<svg class="main-svg" xmlns="http://www.w3.org/2000/svg" xmlns:xlink="http://www.w3.org/1999/xlink" width="700" height="450" style="" viewBox="0 0 700 450"><rect x="0" y="0" width="700" height="450" style="fill: rgb(255, 255, 255); fill-opacity: 1;"/><defs id="defs-c2b2f0"><g class="clips"><clipPath id="clipc2b2f0xyplot" class="plotclip"><rect width="517" height="330"/></clipPath><clipPath class="axesclip" id="clipc2b2f0x"><rect x="60" y="0" width="517" height="450"/></clipPath><clipPath class="axesclip" id="clipc2b2f0y"><rect x="0" y="60" width="700" height="330"/></clipPath><clipPath class="axesclip" id="clipc2b2f0xy"><rect x="60" y="60" width="517" height="330"/></clipPath></g><g class="gradients"/></defs><g class="bglayer"/><g class="layer-below"><g class="imagelayer"/><g class="shapelayer"/></g><g class="cartesianlayer"><g class="subplot xy"><g class="layer-subplot"><g class="shapelayer"/><g class="imagelayer"/></g><g class="gridlayer"><g class="x"><path class="xgrid crisp" transform="translate(163.5,0)" d="M0,60v330" style="stroke: rgb(238, 238, 238); stroke-opacity: 1; stroke-width: 1px;"/><path class="xgrid crisp" transform="translate(267.01,0)" d="M0,60v330" style="stroke: rgb(238, 238, 238); stroke-opacity: 1; stroke-width: 1px;"/><path class="xgrid crisp" transform="translate(370.51,0)" d="M0,60v330" style="stroke: rgb(238, 238, 238); stroke-opacity: 1; stroke-width: 1px;"/><path class="xgrid crisp" transform="translate(474.01,0)" d="M0,60v330" style="stroke: rgb(238, 238, 238); stroke-opacity: 1; stroke-width: 1px;"/></g><g class="y"><path class="ygrid crisp" transform="translate(0,311.97)" d="M60,0h517" style="stroke: rgb(238, 238, 238); stroke-opacity: 1; stroke-width: 1px;"/><path class="ygrid crisp" transform="translate(0,250.19)" d="M60,0h517" style="stroke: rgb(238, 238, 238); stroke-opacity: 1; stroke-width: 1px;"/><path class="ygrid crisp" transform="translate(0,188.4)" d="M60,0h517" style="stroke: rgb(238, 238, 238); stroke-opacity: 1; stroke-width: 1px;"/><path class="ygrid crisp" transform="translate(0,126.62)" d="M60,0h517" style="stroke: rgb(238, 238, 238); stroke-opacity: 1; stroke-width: 1px;"/><path class="ygrid crisp" transform="translate(0,64.84)" d="M60,0h517" style="stroke: rgb(238, 238, 238); stroke-opacity: 1; stroke-width: 1px;"/></g></g><g class="zerolinelayer"><path class="xzl zl crisp" transform="translate(60,0)" d="M0,60v330" style="stroke: rgb(68, 68, 68); stroke-opacity: 1; stroke-width: 1px;"/><path class="yzl zl crisp" transform="translate(0,373.75)" d="M60,0h517" style="stroke: rgb(68, 68, 68); stroke-opacity: 1; stroke-width: 1px;"/></g><path class="xlines-below"/><path class="ylines-below"/><g class="overlines-below"/><g class="xaxislayer-below"/><g class="yaxislayer-below"/><g class="overaxes-below"/><g class="plot" transform="translate(60, 60)" clip-path="url('#clipc2b2f0xyplot')"><g class="scatterlayer mlayer"><g class="trace scatter trace0a3913" style="stroke-miterlimit: 2; opacity: 1;"><g class="fills"/><g class="errorbars"/><g class="lines"><path class="js-line" d="M0,154.95L1.55,158.65L2.07,161.44L8.28,231.38L8.8,232.98L10.35,242.13L10.87,240.65L11.39,246.71L11.9,243.22L13.46,251.53L13.97,254.45L16.04,258.39L16.56,256.87L17.08,257.39L17.6,261.6L19.15,267.63L19.67,265.23L21.22,271.02L21.74,270.38L22.77,267.77L23.29,270.87L23.81,270.89L24.32,272.18L24.84,269.59L25.36,271.66L26.91,276.6L27.43,277.15L28.98,280.55L29.5,277.41L30.02,274.2L30.53,275.19L31.05,272.9L32.09,282.31L32.6,282.15L33.12,282.49L33.64,281.6L34.16,281.14L34.67,283.72L36.23,279.38L36.74,279.16L37.78,284.32L38.3,282.81L38.81,286.31L39.33,285.77L39.85,286.68L40.37,286.43L40.88,287.53L41.4,287.89L41.92,285.29L42.44,281.34L42.95,282.83L43.47,283.35L43.99,283.89L44.51,288.03L45.54,286.03L46.06,286.87L46.58,286.59L47.09,290.41L47.61,290.56L48.13,285.57L49.68,289.58L50.2,288.64L50.72,289.14L51.23,292.86L52.79,289.35L53.3,289.11L54.34,293.21L54.86,292.22L55.37,290.7L55.89,292.29L56.93,294.88L57.44,294.59L57.96,291.73L58.48,289.44L59,291.54L61.07,294.26L61.58,292.15L62.1,294.85L62.62,292.96L63.14,291.69L63.65,294.93L65.21,298.57L65.72,295.92L66.24,296.97L66.76,293.59L68.31,296.52L68.83,295.61L69.35,294.32L69.86,295.36L70.9,295.06L71.42,297.67L71.93,295.19L72.45,295.97L72.97,297.69L73.49,298.12L74.01,299.59L75.04,298.94L75.56,293.65L76.59,298.61L77.11,298.34L77.63,299.65L78.66,295.81L79.18,297.02L80.22,298.92L80.73,299.04L82.29,300.24L82.8,297.9L83.84,299.02L84.36,295.56L85.39,295.47L85.91,297.78L86.43,294.41L86.94,296.75L87.46,295.63L87.98,297.81L88.5,296.27L89.01,299.34L90.05,301.99L90.57,299.83L91.6,301.88L92.12,300.93L92.64,300.73L93.15,299.11L93.67,297.02L94.19,301.98L95.22,302.59L95.74,300.35L96.78,302.44L97.29,301.63L97.81,300.99L98.33,301.6L98.85,300.62L99.36,301.57L99.88,303.44L100.4,301.29L100.92,301.33L101.43,303.53L102.47,303.66L102.99,303.31L103.5,301.39L104.02,304.87L104.54,302.74L105.06,304.87L105.57,305.47L106.09,304.87L107.64,305.66L108.16,304.61L108.68,305.78L109.2,305.21L109.71,306.12L110.23,303.74L110.75,304.31L111.27,304.56L111.78,305.65L112.3,304.63L113.34,303.81L113.85,306L114.37,305.92L114.89,307.48L115.41,305.96L115.92,306.15L116.44,305.44L116.96,306.12L117.48,305.51L119.03,306.39L119.55,304.69L120.06,304.97L120.58,306.17L121.62,306.24L122.13,306.08L123.17,306.97L123.69,306.76L124.72,303.93L125.24,305.79L125.76,305.98L126.27,307.31L127.31,305.74L127.83,306.77L129.38,304.43L129.9,302.14L130.41,303.04L130.93,299.53L131.97,306.43L132.48,305.29L133,303.72L133.52,304.31L134.04,306.96L135.07,305.69L135.59,303.62L137.66,307.43L138.18,306.61L139.21,308.2L139.73,307.66L140.25,306.82L140.76,305.46L141.28,308.29L142.83,306.92L143.35,308.25L143.87,308.23L144.39,300.44L144.9,299.33L145.42,305.87L145.94,307.15L146.46,305.35L147.49,307.47L148.01,307.69L149.56,308.38L150.08,307.73L151.63,309L152.15,306.87L154.22,308.59L154.74,309.15L156.29,309.03L156.81,307.33L159.4,309.62L159.91,308.88L161.47,309.49L161.98,307.15L162.5,306.88L163.02,308.1L164.05,307.54L164.57,308.92L165.09,308.15L165.61,308.82L167.16,307.74L167.68,308.85L168.19,307.45L168.71,308.61L169.23,307.98L169.75,309.78L171.82,308.61L172.33,309.12L173.37,309.99L173.89,310.05L174.92,310.44L175.44,308.75L176.99,309.62L177.51,309.72L178.03,310.01L178.54,309.26L179.06,308.79L179.58,310.02L182.17,309.43L182.68,309.67L183.2,309.62L183.72,308.67L184.24,309.35L184.75,308.68L185.79,310.47L186.31,309.57L187.86,310.73L188.38,310.29L189.41,310L189.93,310.36L190.45,311.09L190.96,310.43L191.48,310.12L192,307.99L193.03,308.39L193.55,308.37L195.1,310.39L195.62,309.2L196.14,308.78L196.66,309.69L197.17,309.58L197.69,310.42L198.73,308.25L199.24,309.47L200.28,309.65L200.8,310.38L201.31,311.15L201.83,310.44L203.9,310.52L204.42,311.16L204.94,311.31L205.45,309.85L205.97,309.63L206.49,310.46L207.01,311.24L207.52,310.14L210.63,311.47L211.15,311.27L212.7,311.62L213.22,311.22L214.77,309.72L215.29,310.28L217.36,311.44L217.87,311.25L220.46,311L220.98,310.5L221.5,311.56L222.02,311.2L222.53,311.57L226.16,310.98L226.67,311.22L227.71,311.52L228.23,311.64L228.74,311.42L229.26,310L230.3,309.55L230.81,311.05L232.37,311.6L232.88,311.11L236.51,311.95L237.02,310.91L238.06,311.18L238.58,311.81L241.16,312.17L241.68,311.19L243.75,312L244.27,311.51L245.3,311.58L245.82,312.14L246.86,310.79L247.37,311.31L248.41,311.74L248.93,311.71L253.58,311.45L254.1,312.2L255.14,312.14L255.65,311.5L257.21,312.1L257.72,311.9L258.24,310.23L258.76,311.68L259.28,311.24L259.79,312.25L260.31,311.91L260.83,312.48L262.38,311.43L262.9,312.46L264.97,312.08L265.49,312.32L266,311.75L266.52,312.49L270.14,312.23L270.66,312.1L272.21,312.09L272.73,311.86L274.8,311.78L275.32,310.99L275.84,310.51L276.35,311.18L276.87,309.82L277.39,311.34L277.91,310.84L278.42,311.92L279.46,312.01L279.98,312.6L281.53,312.17L282.05,312.68L284.63,312.26L285.15,312.29L286.7,312.79L287.22,312.48L288.77,312.65L289.29,312.2L290.33,312.52L290.84,310.44L291.88,310.45L292.4,311.88L292.91,312.53L293.43,311.54L294.98,311.98L295.5,311.12L296.02,311.07L296.54,312.35L297.06,310.82L297.57,312.18L298.09,311.58L298.61,312.52L301.2,311.95L301.71,311.76L303.27,312.46L303.78,311.25L304.82,312.47L305.34,312.29L305.85,312.73L306.37,312.14L307.41,312.4L307.92,312.23L308.96,312.61L309.48,312.29L311.55,312.89L312.06,312.09L313.1,312.17L313.62,311.39L314.13,311.89L314.65,310L316.2,312.32L316.72,312.47L319.83,312.81L320.34,312.98L323.45,312.48L323.97,312.8L326.04,312.13L326.55,312.63L327.59,312.35L328.11,312.58L330.69,312.51L331.21,312.95L334.32,312.24L334.83,311.21L335.35,312.9L335.87,312.17L336.39,312.7L345.18,312.68L345.7,312.19L346.22,312.47L346.74,311.68L348.29,312.91L348.81,312.97L350.88,312.83L351.39,312.99L353.98,312.66L354.5,312.93L357.6,312.85L358.12,313.02L359.16,312.72L359.67,312.77L362.78,313.04L363.3,312.88L371.58,312.88L372.1,312.48L373.65,312.95L374.17,313.08L378.31,313.17L378.82,313.07L389.17,312.64L389.69,313.31L392.28,312.18L392.8,313.01L393.31,312.43L393.83,313L395.38,312.22L395.9,312.78L398.49,313.11L399.01,312.72L401.59,313.1L402.11,313.17L403.66,312.96L404.18,312.94L405.22,313.2L405.73,312.56L407.29,313.2L407.8,312.9L410.91,312.97L411.43,312.55L412.98,312.81L413.5,313.12L420.22,313.11L420.74,313.25L425.4,313.21L425.92,311.8L426.95,312.95L427.47,313.11L429.54,313.09L430.06,311.34L430.57,312.85L431.09,310.7L432.13,312.99L432.64,313.19L435.23,312.96L435.75,313.27L450.24,313.21L450.76,312.8L451.79,313.28L452.31,312.77L454.38,313.28L454.9,313.24L460.59,313.23L461.11,313.01L463.18,313.34L463.7,312.87L465.77,313.33L466.28,313.21L473.53,313.19L474.05,313.31L477.67,313.34L478.19,313.37L479.74,313.37L480.26,313.35L483.88,313.11L484.4,313.24L486.47,313.43L486.98,312.93L488.02,313.26L488.54,312.97L490.09,312.94L490.61,312.9L495.78,313.1L496.3,313.41L501.47,313.25L501.99,313.45L503.03,313.27L503.54,313.41L515.45,313.19L515.96,313.4L517,313.4" style="vector-effect: non-scaling-stroke; fill: none; stroke: rgb(31, 119, 180); stroke-opacity: 1; stroke-width: 2px; opacity: 1;"/></g><g class="points"/><g class="text"/></g><g class="trace scatter trace005b19" style="stroke-miterlimit: 2; opacity: 1;"><g class="fills"/><g class="errorbars"/><g class="lines"><path class="js-line" d="M0,155.22L1.55,156.61L2.07,159.34L3.62,171.66L4.14,179.31L6.73,209.06L7.25,213.63L8.28,219.05L8.8,217.96L9.32,225.53L9.83,224.29L10.35,226.57L11.39,224.99L11.9,226.53L12.42,223.95L12.94,225.35L13.46,225.88L13.97,224.96L15.01,227.77L15.53,224.7L16.04,223.12L16.56,225.8L17.6,221.75L18.11,225.38L18.63,225.4L19.15,223.56L20.18,220.96L20.7,223.62L21.22,220.87L21.74,221.75L22.25,219.53L22.77,220.14L23.29,216.25L23.81,218.86L24.32,218.47L24.84,216.78L25.88,217.44L26.39,214.2L26.91,213.96L27.43,216.98L28.46,215.48L28.98,211.89L29.5,211.02L30.02,207.66L31.05,213.05L31.57,205.77L32.6,208.17L33.12,210.93L33.64,212.09L34.16,209.84L34.67,207.23L35.19,208.47L35.71,208.82L37.26,202.29L37.78,205.64L39.33,196.63L39.85,196.63L40.37,198.86L40.88,194.97L41.92,196.71L42.44,195.28L42.95,194.52L43.47,196.31L44.51,195.3L45.02,197.17L45.54,195.32L46.06,189.57L46.58,190.03L47.09,192.32L47.61,194.82L48.13,192.87L49.68,184.53L50.2,184.9L50.72,185.39L51.23,181.75L52.27,191.36L52.79,188.7L54.34,185.04L54.86,186.53L55.37,188.16L55.89,185.66L56.93,185.81L57.44,182.52L57.96,184.1L58.48,174.08L60.03,182.38L60.55,184.78L61.58,178.71L62.1,178.77L62.62,180.96L63.14,180.38L63.65,179.38L64.17,181.46L64.69,180.89L65.21,178.89L66.76,179.13L67.28,176.76L67.79,179.09L68.31,177.41L69.86,171.67L70.38,172.52L70.9,174.36L71.42,173.54L71.93,171.69L73.49,174.8L74.01,174.36L75.04,168.53L75.56,169.38L76.08,169.31L76.59,165.56L77.11,169.52L78.15,167.61L78.66,163.42L79.18,172.22L79.7,164.32L80.22,146.52L80.73,154.97L81.77,160.7L82.29,159.01L82.8,161.11L83.32,160.12L83.84,158.16L84.36,156.3L84.87,158.83L85.39,160.87L85.91,159.87L86.43,158.02L86.94,161.55L87.46,161L87.98,157.5L90.05,148.42L90.57,148.83L91.08,151.96L92.12,145.47L92.64,156.86L93.15,157.66L93.67,156.58L94.19,152.47L94.71,156.92L95.22,155.13L95.74,155.97L96.26,155.27L97.29,156.02L97.81,155.45L98.85,154.93L99.36,157.57L99.88,156.86L100.4,157.5L100.92,151.81L101.43,152.44L101.95,151.5L102.99,152.27L103.5,152.31L104.02,147.99L104.54,148.33L105.06,146.15L106.61,146.87L107.13,146.5L107.64,147.19L108.16,145.06L108.68,143.82L109.2,144.76L109.71,144.62L110.23,143.62L111.78,140.1L112.3,141.57L112.82,141.45L113.34,139.58L113.85,140.22L114.37,139.75L114.89,139.07L115.92,137.02L116.44,135.26L116.96,133.49L117.48,133.75L117.99,134.77L118.51,133.48L119.03,128.88L119.55,123.99L120.06,130.9L120.58,134.53L121.1,133.54L121.62,134.12L123.69,132.11L124.2,132.59L125.76,131.53L126.27,133.81L127.31,129.38L127.83,132.39L128.34,132.52L128.86,131.83L129.9,126.62L130.41,131.67L130.93,134.83L131.45,125.68L132.48,131.83L133,129.09L134.55,130.16L135.07,129.14L135.59,133.24L136.11,132.85L136.62,133.56L138.69,127.1L139.21,128.32L140.25,125.26L140.76,127.58L141.28,127.74L141.8,131.16L144.39,122.98L144.9,117.49L145.42,122.48L145.94,120.28L146.46,120.52L147.49,110.52L148.01,115.32L149.05,118.85L149.56,116.84L150.6,107.16L151.12,109.79L152.15,110.82L152.67,109.19L153.19,111.71L153.7,110.88L154.22,110.38L154.74,109.83L155.26,108.17L156.29,109.14L156.81,108.07L157.33,105.48L157.84,109.81L158.36,109.85L158.88,109.05L159.91,110.7L160.43,109.45L160.95,109.47L161.47,110.6L161.98,111.11L162.5,109.11L163.02,107.87L163.54,108.98L164.05,106.04L164.57,107.84L165.09,108.61L165.61,104.89L166.12,101.33L166.64,101.98L167.16,102.81L167.68,106.69L168.19,106.56L168.71,102.81L169.75,104.98L170.26,104.2L170.78,102.88L171.3,104.55L174.4,97.55L174.92,97.49L175.96,97.99L176.47,95.79L177.51,93.27L178.03,94.69L178.54,95.06L179.06,93.87L179.58,91.69L180.1,92.25L180.61,93.69L181.65,93.2L182.17,92.42L182.68,97.26L183.2,95.42L183.72,90.86L184.24,90.8L184.75,94.24L185.27,94.94L185.79,94.53L186.31,94.16L187.34,91.56L187.86,89.89L188.89,91.86L189.41,89.41L189.93,89.19L190.45,90.93L192,93.46L192.52,90.69L193.03,91.2L193.55,90.62L195.1,88.25L195.62,88.38L196.14,89.44L196.66,88.32L197.69,84.18L198.21,85.29L198.73,86.64L199.24,84.5L199.76,88.68L200.28,88.42L200.8,88.08L201.83,84.64L202.35,82.38L203.38,86.63L203.9,86.02L205.45,81.34L205.97,82.45L207.52,80.79L208.04,78.81L209.08,82.23L209.59,81.37L210.11,80.94L210.63,82.6L212.18,85.46L212.7,84.37L213.73,82.81L214.25,83.46L215.29,80.46L215.8,81.24L216.32,82.59L216.84,81.89L217.36,82.33L218.39,81.88L218.91,82.78L219.43,83.55L219.94,81.41L221.5,80.77L222.02,81.57L223.05,80.82L223.57,81.74L224.09,79.58L224.6,81.1L226.16,79.52L226.67,77.32L227.71,75.06L228.23,74.34L228.74,74.03L229.26,75.14L229.78,74.68L230.3,75.51L230.81,71.69L231.33,72.15L231.85,73.04L233.92,72.41L234.44,73.24L235.47,74.34L235.99,68.16L236.51,68.95L237.02,71.13L237.54,69.47L238.06,76.11L238.58,80.03L239.09,79.74L239.61,80.04L242.2,73.66L242.72,75.78L243.75,74.29L244.27,72.77L246.34,74.69L246.86,73.19L247.89,71.46L248.41,72.57L248.93,72.51L249.44,73.49L249.96,72.05L250.48,72.85L252.55,67.96L253.07,69.13L253.58,70.72L254.1,67.26L255.14,66.3L255.65,67.08L256.69,67.17L257.21,65.88L257.72,67.64L258.24,67.03L258.76,60.37L259.28,64.69L259.79,64.3L260.31,65.5L261.86,61.33L262.38,63.25L263.93,64.47L264.45,63.9L265.49,61.37L266,62.17L267.04,61.2L267.56,61.57L269.11,60.1L269.63,63.7L271.18,67.78L271.7,66.84L274.28,64.15L274.8,63.46L275.32,60.15L275.84,62.56L276.35,61.67L276.87,64.46L277.91,65.86L278.42,62.29L280.49,66.29L281.01,66.52L282.56,68.38L283.08,67.28L283.6,64.99L284.12,65.61L284.63,67.24L288.26,61.1L288.77,61.41L290.33,63.88L290.84,63.27L291.36,54.93L291.88,61.07L294.47,67.51L294.98,66.9L296.54,63.52L297.06,62.91L297.57,55.77L298.09,61.14L299.13,63.96L299.64,63.54L301.71,58.74L302.23,60.35L302.75,61.3L303.27,58.49L304.3,59.72L304.82,58.27L305.85,60.57L306.37,59.84L306.89,57.83L307.41,59.34L307.92,59.98L308.44,59.52L308.96,59.56L310.51,58.17L311.03,57.82L311.55,57.43L312.06,58L313.1,57.6L313.62,58.6L314.65,52.88L315.17,54.56L316.2,57.84L316.72,57.38L317.76,56.41L318.27,54.35L319.31,52.91L319.83,53.32L321.38,54.92L321.9,54.29L322.41,52.31L322.93,54.25L323.97,52.91L324.48,51.48L325.52,50.11L326.04,50.7L326.55,50.23L327.07,51.22L327.59,50.95L328.11,48.9L329.14,48.46L329.66,48.73L330.18,48.34L330.69,46.56L331.73,45.83L332.25,46.68L332.76,46.59L333.28,45.34L333.8,43.2L334.32,44.98L335.87,47.3L336.39,46.92L336.9,45.82L337.94,43.72L338.46,44.87L339.49,47.31L340.01,45.96L341.56,45.05L342.08,44.69L342.6,46.15L343.11,45.45L343.63,43.89L345.18,33.24L345.7,36.04L346.74,39.27L347.25,38.62L347.77,39.66L348.29,40.6L348.81,39.99L349.84,39.69L350.36,40.65L351.39,40.15L351.91,39.44L352.95,37.65L353.46,37.49L354.5,43.88L355.02,43.67L355.53,43.24L357.09,41.52L357.6,41.12L358.12,40.64L358.64,41.86L360.19,40.95L360.71,40.34L361.74,40.02L362.26,41.07L363.3,40.7L363.81,40.46L364.85,39.68L365.37,40.01L366.4,39.64L366.92,40.51L367.95,41.97L368.47,41.52L368.99,40.84L370.03,39.37L370.54,39.22L371.58,38.97L372.1,39.77L373.65,37.85L374.17,37.14L375.2,35.91L375.72,37.8L376.75,40.66L377.27,38.78L377.79,38.06L378.31,38.74L381.41,38.07L381.93,39.36L383.48,38.34L384,38.11L385.03,36.05L385.55,36.87L386.07,37.14L386.59,36.29L387.62,35.27L388.14,35.83L388.66,36.32L389.17,38.24L389.69,39.01L390.21,38.47L390.73,36.62L391.24,36.99L391.76,38.53L392.28,36.21L392.8,43.11L393.31,43.9L393.83,42.74L394.35,41.85L394.87,42.17L395.38,41.79L395.9,43.26L396.42,42.59L396.94,43.18L398.49,41.54L399.01,41.44L399.52,41.3L400.04,42.71L402.11,40.23L402.63,41.5L404.18,39.71L404.7,40.44L405.73,39.39L406.25,39.99L406.77,40.31L407.29,39.34L407.8,39.13L408.32,37.79L409.87,38.84L410.39,38.08L410.91,38.02L411.43,36.55L413.5,35.49L414.01,35.65L415.57,33.9L416.08,35.1L420.74,35.43L421.26,35.87L423.33,34.5L423.85,34.24L424.88,34.1L425.4,32.52L425.92,32.37L426.43,30.98L426.95,31.49L427.47,33.63L427.99,34.3L428.5,33.64L429.02,32.08L429.54,34.1L430.57,28.91L431.09,33.44L433.16,28.69L433.68,28.11L435.75,36.82L436.27,38.08L437.3,36.9L437.82,37.49L438.34,36.42L438.85,37.87L439.37,38.96L439.89,38.36L440.41,37.05L441.44,34.19L441.96,34.25L442.99,35.87L443.51,36.02L445.07,34.28L445.58,33.31L446.1,33.5L446.62,32.44L447.14,31.97L447.65,32.78L448.69,34.44L449.21,33.79L450.76,30.35L451.28,30.35L452.31,30.4L452.83,31.61L453.35,32.6L453.86,31.99L454.38,30.59L455.93,30.48L456.45,31.26L459.04,29.39L459.56,29.89L460.07,29.64L460.59,30.28L461.11,29.61L461.63,30.74L462.66,31.16L463.18,31.18L465.25,28.29L465.77,29.49L466.8,28.8L467.32,27.75L468.35,28.03L468.87,26.89L469.91,31.64L470.42,30.53L472.49,27.31L473.01,27.25L473.53,25.7L474.05,26.88L475.08,28.36L475.6,27.68L477.15,26.93L477.67,27.53L478.7,27.23L479.22,26.7L480.77,27.59L481.29,27.43L482.84,27.25L483.36,27.91L484.91,28.45L485.43,28.71L486.47,29.3L486.98,28.05L489.05,24.92L489.57,24.68L490.61,25.49L491.12,24.83L492.68,24.13L493.19,25.08L494.23,26.94L494.75,26.21L495.78,26.76L496.3,25.6L497.85,23.13L498.37,23.36L499.92,23.34L500.44,22.75L501.99,24.63L502.51,24.34L503.54,21.83L504.06,22.16L505.1,20.32L505.61,20.61L506.65,20.24L507.17,20.57L507.68,20.24L508.2,20.86L509.75,18.05L510.27,19.34L510.79,19.55L511.31,18.78L511.82,16.5L512.34,17.48L512.86,18.1L514.41,20.79L514.93,20.32L515.45,18.9L515.96,19.51L516.48,20.21L517,21.28" style="vector-effect: non-scaling-stroke; fill: none; stroke: rgb(255, 127, 14); stroke-opacity: 1; stroke-width: 2px; opacity: 1;"/></g><g class="points"/><g class="text"/></g><g class="trace scatter tracefdf955" style="stroke-miterlimit: 2; opacity: 1;"><g class="fills"/><g class="errorbars"/><g class="lines"><path class="js-line" d="M0,309.72L0.52,310.1L1.04,307.85L2.07,308.1L2.59,306.3L3.62,302.92L4.14,299.98L6.21,288.32L6.73,285.44L9.32,278.29L9.83,277.01L10.35,278.43L10.87,275.88L11.39,275.09L11.9,275.94L12.42,277.02L12.94,275.47L14.49,274.08L15.01,273.56L15.53,274.45L16.04,273.97L16.56,273.22L17.08,273.15L17.6,273.93L19.15,272.27L19.67,273.31L20.7,272.68L21.22,272.7L21.74,271.65L22.25,272.04L22.77,271.43L23.29,273.2L23.81,271.38L24.84,271.94L25.36,271.4L26.91,272.61L27.43,271.15L28.46,271.72L28.98,270.8L30.53,271.85L31.05,270.84L31.57,271.95L32.09,271L33.64,270.34L34.16,270.79L34.67,270.89L35.19,270.21L38.3,270.93L38.81,269.79L39.33,270.97L39.85,270.1L41.4,270.15L41.92,270.18L44.51,270.89L45.02,270.02L45.54,269.96L46.06,270.96L47.09,269.77L47.61,270L51.75,269.92L52.27,269.45L53.3,269.7L53.82,270.11L55.37,269.59L55.89,269.69L57.44,269.81L57.96,269.62L59,270.7L59.51,269.74L62.1,269.56L62.62,269.77L63.65,269.89L64.17,269.57L66.76,269.34L67.28,270.17L68.31,269.29L68.83,269.42L70.38,269.75L70.9,269.27L72.45,269.57L72.97,269.36L74.52,269.27L75.04,269.44L80.22,269.27L80.73,268.99L83.84,269.34L84.36,269.36L86.43,269.54L86.94,269.05L88.5,270.06L89.01,269.43L91.6,269.05L92.12,269.84L93.15,269.33L93.67,269.22L94.19,270.09L94.71,269.27L96.26,269.26L96.78,269.04L99.88,268.75L100.4,268.63L101.43,269.07L101.95,268.95L104.02,269.39L104.54,268.89L106.61,268.8L107.13,268.76L110.23,268.77L110.75,268.85L129.38,268.84L129.9,269.33L130.93,268.79L131.45,269.73L132.48,268.82L133,269.08L136.11,268.85L136.62,268.86L138.18,268.79L138.69,268.89L139.73,268.67L140.25,269.04L143.87,268.67L144.39,268.73L145.42,268.7L145.94,268.79L148.01,269.02L148.53,268.63L152.15,268.46L152.67,269.26L154.22,268.49L154.74,268.41L160.95,268.48L161.47,268.28L192,268.76L192.52,268.97L193.55,268.6L194.07,268.75L197.17,268.46L197.69,268.88L201.83,268.6L202.35,268.71L205.45,268.52L205.97,268.68L210.63,268.41L211.15,268.31L218.91,268.2L219.43,268.17L223.05,268.38L223.57,268.16L232.37,268.58L232.88,268.36L234.95,268.36L235.47,268.3L258.24,268.62L258.76,269.41L259.79,268.49L260.31,268.34L266.52,268.33L267.04,268.26L273.77,268.09L274.28,268.06L278.42,268.34L278.94,268.19L286.19,268.06L286.7,268.15L290.84,268.15L291.36,268.64L292.4,268.24L292.91,268.39L301.2,268.26L301.71,268.49L305.85,268.14L306.37,268.14L327.07,268.61L327.59,268.25L332.76,268.29L333.28,268.28L338.46,268.39L338.97,268.29L343.63,268.3L344.15,268.83L347.25,268.39L347.77,268.31L352.43,268.27L352.95,268.37L364.85,268.38L365.37,268.33L375.2,268.25L375.72,268.31L378.31,268.12L378.82,268.18L421.26,267.99L421.78,268.03L433.68,268.22L434.2,268.34L440.92,267.88L441.44,267.84L448.69,268L449.21,268.05L456.45,267.92L456.97,267.92L464.73,267.93L465.25,267.93L479.22,268.14L479.74,268.14L490.61,268L491.12,268.09L517,268.05" style="vector-effect: non-scaling-stroke; fill: none; stroke: rgb(44, 160, 44); stroke-opacity: 1; stroke-width: 2px; opacity: 1;"/></g><g class="points"/><g class="text"/></g></g></g><g class="overplot"/><path class="xlines-above crisp" d="M0,0" style="fill: none;"/><path class="ylines-above crisp" d="M0,0" style="fill: none;"/><g class="overlines-above"/><g class="xaxislayer-above"><g class="xtick"><text text-anchor="middle" x="0" y="403" transform="translate(60,0)" style="font-family: 'Open Sans', verdana, arial, sans-serif; font-size: 12px; fill: rgb(68, 68, 68); fill-opacity: 1; white-space: pre;">0</text></g><g class="xtick"><text text-anchor="middle" x="0" y="403" transform="translate(163.5,0)" style="font-family: 'Open Sans', verdana, arial, sans-serif; font-size: 12px; fill: rgb(68, 68, 68); fill-opacity: 1; white-space: pre;">200</text></g><g class="xtick"><text text-anchor="middle" x="0" y="403" transform="translate(267.01,0)" style="font-family: 'Open Sans', verdana, arial, sans-serif; font-size: 12px; fill: rgb(68, 68, 68); fill-opacity: 1; white-space: pre;">400</text></g><g class="xtick"><text text-anchor="middle" x="0" y="403" transform="translate(370.51,0)" style="font-family: 'Open Sans', verdana, arial, sans-serif; font-size: 12px; fill: rgb(68, 68, 68); fill-opacity: 1; white-space: pre;">600</text></g><g class="xtick"><text text-anchor="middle" x="0" y="403" transform="translate(474.01,0)" style="font-family: 'Open Sans', verdana, arial, sans-serif; font-size: 12px; fill: rgb(68, 68, 68); fill-opacity: 1; white-space: pre;">800</text></g></g><g class="yaxislayer-above"><g class="ytick"><text text-anchor="end" x="59" y="4.199999999999999" transform="translate(0,373.75)" style="font-family: 'Open Sans', verdana, arial, sans-serif; font-size: 12px; fill: rgb(68, 68, 68); fill-opacity: 1; white-space: pre;">0</text></g><g class="ytick"><text text-anchor="end" x="59" y="4.199999999999999" transform="translate(0,311.97)" style="font-family: 'Open Sans', verdana, arial, sans-serif; font-size: 12px; fill: rgb(68, 68, 68); fill-opacity: 1; white-space: pre;">1</text></g><g class="ytick"><text text-anchor="end" x="59" y="4.199999999999999" transform="translate(0,250.19)" style="font-family: 'Open Sans', verdana, arial, sans-serif; font-size: 12px; fill: rgb(68, 68, 68); fill-opacity: 1; white-space: pre;">2</text></g><g class="ytick"><text text-anchor="end" x="59" y="4.199999999999999" transform="translate(0,188.4)" style="font-family: 'Open Sans', verdana, arial, sans-serif; font-size: 12px; fill: rgb(68, 68, 68); fill-opacity: 1; white-space: pre;">3</text></g><g class="ytick"><text text-anchor="end" x="59" y="4.199999999999999" transform="translate(0,126.62)" style="font-family: 'Open Sans', verdana, arial, sans-serif; font-size: 12px; fill: rgb(68, 68, 68); fill-opacity: 1; white-space: pre;">4</text></g><g class="ytick"><text text-anchor="end" x="59" y="4.199999999999999" transform="translate(0,64.84)" style="font-family: 'Open Sans', verdana, arial, sans-serif; font-size: 12px; fill: rgb(68, 68, 68); fill-opacity: 1; white-space: pre;">5</text></g></g><g class="overaxes-above"/></g></g><g class="polarlayer"/><g class="ternarylayer"/><g class="geolayer"/><g class="funnelarealayer"/><g class="pielayer"/><g class="treemaplayer"/><g class="sunburstlayer"/><g class="glimages"/><defs id="topdefs-c2b2f0"><g class="clips"/><clipPath id="legendc2b2f0"><rect width="101" height="67" x="0" y="0"/></clipPath></defs><g class="layer-above"><g class="imagelayer"/><g class="shapelayer"/></g><g class="infolayer"><g class="legend" pointer-events="all" transform="translate(587.34, 60)"><rect class="bg" shape-rendering="crispEdges" width="101" height="67" x="0" y="0" style="stroke: rgb(68, 68, 68); stroke-opacity: 1; fill: rgb(255, 255, 255); fill-opacity: 1; stroke-width: 0px;"/><g class="scrollbox" transform="translate(0, 0)" clip-path="url('#legendc2b2f0')"><g class="groups"><g class="traces" transform="translate(0, 14.5)" style="opacity: 1;"><text class="legendtext" text-anchor="start" x="40" y="4.680000000000001" style="font-family: 'Open Sans', verdana, arial, sans-serif; font-size: 12px; fill: rgb(68, 68, 68); fill-opacity: 1; white-space: pre;">train loss</text><g class="layers" style="opacity: 1;"><g class="legendfill"/><g class="legendlines"><path class="js-line" d="M5,0h30" style="fill: none; stroke: rgb(31, 119, 180); stroke-opacity: 1; stroke-width: 2px;"/></g><g class="legendsymbols"><g class="legendpoints"/></g></g><rect class="legendtoggle" pointer-events="all" x="0" y="-9.5" width="95.78125" height="19" style="cursor: pointer; fill: rgb(0, 0, 0); fill-opacity: 0;"/></g><g class="traces" transform="translate(0, 33.5)" style="opacity: 1;"><text class="legendtext" text-anchor="start" x="40" y="4.680000000000001" style="font-family: 'Open Sans', verdana, arial, sans-serif; font-size: 12px; fill: rgb(68, 68, 68); fill-opacity: 1; white-space: pre;">test loss</text><g class="layers" style="opacity: 1;"><g class="legendfill"/><g class="legendlines"><path class="js-line" d="M5,0h30" style="fill: none; stroke: rgb(255, 127, 14); stroke-opacity: 1; stroke-width: 2px;"/></g><g class="legendsymbols"><g class="legendpoints"/></g></g><rect class="legendtoggle" pointer-events="all" x="0" y="-9.5" width="95.78125" height="19" style="cursor: pointer; fill: rgb(0, 0, 0); fill-opacity: 0;"/></g><g class="traces" transform="translate(0, 52.5)" style="opacity: 1;"><text class="legendtext" text-anchor="start" x="40" y="4.680000000000001" style="font-family: 'Open Sans', verdana, arial, sans-serif; font-size: 12px; fill: rgb(68, 68, 68); fill-opacity: 1; white-space: pre;">acc</text><g class="layers" style="opacity: 1;"><g class="legendfill"/><g class="legendlines"><path class="js-line" d="M5,0h30" style="fill: none; stroke: rgb(44, 160, 44); stroke-opacity: 1; stroke-width: 2px;"/></g><g class="legendsymbols"><g class="legendpoints"/></g></g><rect class="legendtoggle" pointer-events="all" x="0" y="-9.5" width="95.78125" height="19" style="cursor: pointer; fill: rgb(0, 0, 0); fill-opacity: 0;"/></g></g></g><rect class="scrollbar" rx="20" ry="3" width="0" height="0" x="0" y="0" style="fill: rgb(128, 139, 164); fill-opacity: 1;"/></g><g class="g-gtitle"><text class="gtitle" x="350" y="30" text-anchor="middle" dy="0em" style="font-family: 'Open Sans', verdana, arial, sans-serif; font-size: 17px; fill: rgb(68, 68, 68); opacity: 1; font-weight: normal; white-space: pre;">SAMPLE_PER_CLASS_10</text></g><g class="g-xtitle"/><g class="g-ytitle"/></g></svg>