<svg class="main-svg" xmlns="http://www.w3.org/2000/svg" xmlns:xlink="http://www.w3.org/1999/xlink" width="700" height="450" style="" viewBox="0 0 700 450"><rect x="0" y="0" width="700" height="450" style="fill: rgb(255, 255, 255); fill-opacity: 1;"/><defs id="defs-51688f"><g class="clips"><clipPath id="clip51688fxyplot" class="plotclip"><rect width="517" height="330"/></clipPath><clipPath class="axesclip" id="clip51688fx"><rect x="60" y="0" width="517" height="450"/></clipPath><clipPath class="axesclip" id="clip51688fy"><rect x="0" y="60" width="700" height="330"/></clipPath><clipPath class="axesclip" id="clip51688fxy"><rect x="60" y="60" width="517" height="330"/></clipPath></g><g class="gradients"/></defs><g class="bglayer"/><g class="layer-below"><g class="imagelayer"/><g class="shapelayer"/></g><g class="cartesianlayer"><g class="subplot xy"><g class="layer-subplot"><g class="shapelayer"/><g class="imagelayer"/></g><g class="gridlayer"><g class="x"><path class="xgrid crisp" transform="translate(163.5,0)" d="M0,60v330" style="stroke: rgb(238, 238, 238); stroke-opacity: 1; stroke-width: 1px;"/><path class="xgrid crisp" transform="translate(267.01,0)" d="M0,60v330" style="stroke: rgb(238, 238, 238); stroke-opacity: 1; stroke-width: 1px;"/><path class="xgrid crisp" transform="translate(370.51,0)" d="M0,60v330" style="stroke: rgb(238, 238, 238); stroke-opacity: 1; stroke-width: 1px;"/><path class="xgrid crisp" transform="translate(474.01,0)" d="M0,60v330" style="stroke: rgb(238, 238, 238); stroke-opacity: 1; stroke-width: 1px;"/></g><g class="y"><path class="ygrid crisp" transform="translate(0,316.41)" d="M60,0h517" style="stroke: rgb(238, 238, 238); stroke-opacity: 1; stroke-width: 1px;"/><path class="ygrid crisp" transform="translate(0,259.32)" d="M60,0h517" style="stroke: rgb(238, 238, 238); stroke-opacity: 1; stroke-width: 1px;"/><path class="ygrid crisp" transform="translate(0,202.23)" d="M60,0h517" style="stroke: rgb(238, 238, 238); stroke-opacity: 1; stroke-width: 1px;"/><path class="ygrid crisp" transform="translate(0,145.14)" d="M60,0h517" style="stroke: rgb(238, 238, 238); stroke-opacity: 1; stroke-width: 1px;"/><path class="ygrid crisp" transform="translate(0,88.03999999999999)" d="M60,0h517" style="stroke: rgb(238, 238, 238); stroke-opacity: 1; stroke-width: 1px;"/></g></g><g class="zerolinelayer"><path class="xzl zl crisp" transform="translate(60,0)" d="M0,60v330" style="stroke: rgb(68, 68, 68); stroke-opacity: 1; stroke-width: 1px;"/><path class="yzl zl crisp" transform="translate(0,373.51)" d="M60,0h517" style="stroke: rgb(68, 68, 68); stroke-opacity: 1; stroke-width: 1px;"/></g><path class="xlines-below"/><path class="ylines-below"/><g class="overlines-below"/><g class="xaxislayer-below"/><g class="yaxislayer-below"/><g class="overaxes-below"/><g class="plot" transform="translate(60, 60)" clip-path="url('#clip51688fxyplot')"><g class="scatterlayer mlayer"><g class="trace scatter trace4f5358" style="stroke-miterlimit: 2; opacity: 1;"><g class="fills"/><g class="errorbars"/><g class="lines"><path class="js-line" d="M0,49.09L1.55,173.54L2.07,191.76L4.14,224.77L4.66,230.09L8.28,252.33L8.8,256.04L10.35,260.06L10.87,264.71L11.39,265.4L11.9,268.73L12.42,268.95L12.94,270.22L14.49,276.94L15.01,278.83L15.53,278.19L16.04,279.47L17.08,283.33L17.6,282.5L19.67,287.78L20.18,288.67L21.74,291.84L22.25,292.94L24.32,294.98L24.84,297.13L25.36,295.94L25.88,296.19L26.39,296.74L27.43,298.66L27.95,297.85L28.98,299.5L29.5,299.84L30.53,301.33L31.05,300.77L31.57,299.77L32.09,302.04L33.12,302.83L33.64,302.11L34.67,302.54L35.19,304.39L35.71,303.71L36.23,304.29L36.74,304.03L37.26,304.7L37.78,304.9L38.3,303.88L39.33,305.37L39.85,304.58L40.88,305.37L41.4,305.85L41.92,305.84L42.44,307.08L42.95,307.39L43.47,305.91L43.99,305.79L44.51,306.46L45.02,306.39L45.54,307.2L46.06,305.2L46.58,308.06L48.65,307.68L49.16,308.34L49.68,308.24L50.2,309.16L50.72,307.85L51.23,308.43L51.75,309.28L52.27,309.26L52.79,310.14L53.3,309.43L53.82,309.93L54.34,309.33L54.86,310.18L55.37,309.5L55.89,310.31L56.41,308.89L57.96,310.49L58.48,310.1L59,310.71L59.51,309.87L61.07,310.17L61.58,310.22L62.1,308.43L62.62,309.96L63.14,309.79L63.65,310.69L65.21,309.93L65.72,310.18L66.24,310.68L66.76,309.66L68.31,310.61L68.83,310.16L70.9,310.83L71.42,311.44L71.93,309.37L72.45,311.14L74.01,311.12L74.52,311.36L76.59,311.02L77.11,310.55L80.22,311.29L80.73,311.77L81.25,312.01L81.77,311.31L82.8,311.74L83.32,310.37L84.36,311.2L84.87,310.26L85.91,311.15L86.43,311.47L87.46,311.69L87.98,311.3L89.53,311.83L90.05,311.09L91.6,312.09L92.12,311.56L92.64,311.73L93.15,310.64L94.19,311.91L94.71,311.92L95.22,311.41L95.74,311.98L96.26,310.53L96.78,312.04L97.29,311.23L97.81,311.71L98.33,312.03L100.92,311.78L101.43,310.41L102.47,311.93L102.99,310.82L104.02,312.43L104.54,312.56L108.68,312.54L109.2,312.32L110.23,312.73L110.75,312.37L111.78,311.29L112.3,312.15L112.82,312.75L113.34,312.15L115.41,312.7L115.92,311.9L121.1,312.75L121.62,312.22L123.69,312.81L124.2,312.41L124.72,311.75L125.24,312.31L127.31,312.74L127.83,311.97L129.38,312.54L129.9,312.78L131.45,312.64L131.97,312.94L134.55,311.28L135.07,312.55L135.59,312.07L136.11,312.69L136.62,312.65L137.14,311.43L138.18,312.58L138.69,312.69L140.76,312.98L141.28,312.77L142.32,312.93L142.83,312.71L143.87,312.59L144.39,312.45L145.94,312.65L146.46,312.98L147.49,312.63L148.01,311.71L149.56,312.74L150.08,312.9L151.12,312.81L151.63,312.89L157.84,313.06L158.36,312.97L159.91,312.9L160.43,313.19L166.12,312.88L166.64,313.01L167.68,313.18L168.19,312.58L179.06,313.12L179.58,313.21L183.72,312.97L184.24,312.66L185.79,313.08L186.31,312.82L188.38,313.3L188.89,312.91L192,313.1L192.52,312.58L194.07,313.11L194.59,313.13L197.17,312.98L197.69,313.33L201.83,312.69L202.35,313.13L205.97,313.2L206.49,312.6L208.04,313.2L208.56,313.39L210.11,312.71L210.63,313.33L213.22,313.12L213.73,313.33L219.94,313.27L220.46,313.43L227.71,312.94L228.23,313.2L231.33,313.47L231.85,313.05L233.92,313.46L234.44,313.39L235.99,313.17L236.51,313.38L240.13,313.15L240.65,313.24L253.07,313.22L253.58,313.2L255.65,313.22L256.17,313.16L259.28,313.36L259.79,313.3L266,313.39L266.52,313.15L275.32,313.39L275.84,313.18L278.94,313.42L279.46,313.16L280.49,313.39L281.01,313.37L297.06,313.14L297.57,313.41L301.71,313.23L302.23,313.43L311.55,313.28L312.06,313.49L318.79,312.74L319.31,313.49L321.38,313.4L321.9,313.46L329.14,313.35L329.66,313.4L335.35,313.4L335.87,313.3L340.01,313.44L340.53,313.28L345.7,313.43L346.22,312.67L347.25,313.45L347.77,313.48L354.5,313.39L355.02,313.41L360.19,313.4L360.71,313.29L369.51,313.49L370.03,313.43L377.79,313.33L378.31,313.3L382.96,313.47L383.48,313.44L419.71,313.49L420.22,313.38L429.54,313.47L430.06,313.38L440.92,313.49L441.44,313.43L448.69,313.48L449.21,313.27L451.28,313.47L451.79,313.49L484.4,313.46L484.91,313.49L507.68,313.4L508.2,313.17L510.27,313.48L510.79,313.48L517,313.45" style="vector-effect: non-scaling-stroke; fill: none; stroke: rgb(31, 119, 180); stroke-opacity: 1; stroke-width: 2px; opacity: 1;"/></g><g class="points"/><g class="text"/></g><g class="trace scatter trace0b52f4" style="stroke-miterlimit: 2; opacity: 1;"><g class="fills"/><g class="errorbars"/><g class="lines"><path class="js-line" d="M0,16.5L1.55,214.16L2.07,229.17L3.62,257.4L4.14,251.99L4.66,265.38L5.18,264.29L5.69,269.42L6.21,272.45L6.73,270.76L7.76,277L8.28,276.94L8.8,279.31L9.32,277.71L9.83,277.98L10.35,279.11L11.39,283.42L11.9,282.92L12.42,279L12.94,284.05L13.97,287.23L14.49,285.62L15.01,288.21L15.53,284.7L16.04,286.96L16.56,285.95L17.08,284.69L17.6,285.15L18.11,287.06L18.63,289L19.15,282.05L20.18,290.05L20.7,286.53L21.22,287.69L21.74,294.02L22.77,292.43L23.29,293.46L23.81,289.28L24.32,294.44L24.84,292.29L25.36,283.64L25.88,281.9L26.39,291.65L26.91,294.94L27.43,292.7L28.46,291.8L28.98,289.45L29.5,293.93L30.02,291.43L30.53,291.02L31.05,292L31.57,286.6L32.09,293.37L33.64,292.76L34.16,293.5L34.67,294.14L35.19,293.09L35.71,294.76L36.23,286.54L36.74,287.5L37.26,293.71L37.78,294.2L38.3,296.14L38.81,293.99L39.33,295.33L40.37,291.6L40.88,292.23L41.4,291.42L41.92,287.57L42.44,294.48L42.95,291.83L43.47,294.66L43.99,292.65L44.51,293.81L45.54,291.01L46.06,290.88L46.58,294.35L47.09,292.91L47.61,280.14L48.65,291.03L49.16,295.14L49.68,293.32L50.2,281.21L50.72,293.13L51.23,288.77L51.75,289.76L52.27,290.64L52.79,295.7L53.3,295.1L53.82,289.88L54.86,295.33L55.37,293.75L55.89,292.46L56.41,293.24L56.93,280.29L57.44,293.2L59,292.38L59.51,294.35L60.03,284.65L60.55,294.26L61.07,289.26L61.58,292.02L62.1,294.29L62.62,289.43L63.65,294.91L64.17,292.7L64.69,291.26L65.21,292.3L66.24,293.06L66.76,289.06L67.79,290.38L68.31,290.24L68.83,288.88L69.35,291.35L69.86,290.1L70.38,284.8L70.9,291.87L71.42,283.07L72.45,294.2L72.97,292.28L74.52,296.51L75.04,293.88L76.08,293.33L76.59,293.17L78.66,290.48L79.18,289.94L80.73,293.87L81.25,293.94L81.77,288.76L82.29,293.6L83.32,292.77L83.84,293.39L84.87,286.11L85.39,289.2L85.91,286.03L86.43,286.64L86.94,287.49L87.46,287.06L87.98,287.62L89.01,285.69L89.53,285.54L90.05,290.74L90.57,284.59L91.6,289.16L92.12,288.93L92.64,289.35L93.15,285.52L94.19,292.59L94.71,291.08L95.74,288.89L96.26,291.35L96.78,289.76L97.29,291.28L97.81,290.31L98.33,291.57L99.88,289.27L100.4,290.75L100.92,283.52L101.43,286.42L101.95,288.95L102.47,288.69L102.99,286.98L103.5,289.54L104.02,289.28L104.54,287.84L105.06,288.84L105.57,286.8L106.09,286.56L106.61,289.98L107.64,288.9L108.16,289.77L109.71,287.38L110.23,282.6L110.75,282.64L111.27,286.56L112.3,279.37L112.82,285.75L113.34,285.92L113.85,285.12L114.37,286.58L114.89,284.12L115.41,284.48L115.92,287.25L116.44,286.62L116.96,288.88L117.48,286.13L117.99,286.24L118.51,286.37L119.55,286.07L120.06,288L122.13,288.97L122.65,285.31L123.17,286.45L123.69,285.94L124.2,281.69L126.27,287.77L126.79,283.86L127.31,282.7L127.83,284.44L128.34,285.92L128.86,277.8L129.9,290.58L130.41,291.19L130.93,283.88L131.45,288.41L131.97,288.43L132.48,290L134.04,287.92L134.55,289.57L135.07,284.37L135.59,289.45L136.62,281.32L137.14,282.61L138.69,286.68L139.21,285.77L139.73,282.58L140.25,285.24L140.76,283.92L141.28,284.51L141.8,284.45L142.32,282.37L142.83,283.36L143.35,285.92L145.94,278.02L146.46,280.89L146.97,280.8L147.49,278.66L148.01,276.82L148.53,282.04L149.05,279.15L149.56,280.83L150.08,278.51L150.6,280.9L151.12,282.72L151.63,281.97L152.15,282.56L152.67,282.69L153.19,283.64L154.74,280.5L155.26,283.54L155.77,283.17L156.29,280.84L156.81,282.19L157.33,280.1L157.84,279.82L158.36,281.36L158.88,282.32L159.4,286.8L160.43,283.83L160.95,284.48L161.47,282.29L161.98,284.95L163.02,283.13L163.54,283.58L164.57,282.57L165.09,278.15L165.61,280.67L166.12,277.25L167.16,278.75L167.68,278.67L168.71,283.12L169.23,281.16L169.75,282.08L170.26,280.64L171.3,279.85L171.82,280.58L172.33,281.36L172.85,278.5L173.37,280.37L173.89,277.56L174.92,279.74L175.44,278.97L175.96,282.28L176.47,281.53L176.99,282.17L177.51,280.67L178.03,284.03L178.54,281.79L179.06,284.1L180.61,283.85L181.13,283.64L183.72,282.53L184.24,281.77L184.75,281.48L185.27,278.3L185.79,277.96L186.31,280.55L187.86,276.87L188.38,277.41L188.89,279.03L189.41,273.07L190.45,281.32L190.96,282.74L191.48,283.77L192,283.09L193.55,283.16L194.07,281.01L195.62,280.35L196.14,278.04L196.66,271.03L197.17,280.17L198.21,280.08L198.73,279.88L199.24,278.8L199.76,280.25L200.28,279.16L200.8,280.51L201.31,285.31L201.83,273.7L203.38,278.78L203.9,277.03L204.94,276.61L205.45,278.49L205.97,273.72L206.49,276.45L207.01,276.13L207.52,277.68L208.56,276.74L209.08,276.73L209.59,276.05L210.11,278.18L210.63,280.91L211.15,279.45L211.66,278.56L212.18,275.55L213.22,278.69L213.73,277.3L216.32,279.77L216.84,281.32L218.91,279.78L219.43,281.21L221.5,283.31L222.02,280.23L222.53,281.28L223.05,280.77L223.57,277.95L225.64,280.12L226.16,279.06L226.67,284.49L227.19,283.4L227.71,284.5L229.26,282.08L229.78,283.48L231.33,284.44L231.85,272.69L232.88,275.76L233.4,275.25L233.92,275.8L234.44,274.35L234.95,283.33L235.47,280.61L235.99,280.83L236.51,282.35L237.02,281.88L237.54,283.03L238.58,281.47L239.09,280.96L240.65,281.96L241.16,282.69L241.68,282.64L242.2,281.83L243.23,282.84L243.75,281.13L244.79,279.78L245.3,280.76L246.86,281.96L247.37,279.98L248.41,277.66L248.93,279.73L249.44,279.56L249.96,278.23L251.51,281.21L252.03,277.41L253.07,279.92L253.58,278.45L254.1,277.68L254.62,278.78L256.17,279.66L256.69,278.72L257.21,277.79L257.72,278.78L258.24,272.93L258.76,281.14L259.79,281.57L260.31,279.27L261.35,280.92L261.86,280.45L263.42,278.07L263.93,279.8L264.45,275.42L264.97,276.12L265.49,277.05L266.52,277.86L267.04,280.54L267.56,280.83L268.07,279.1L268.59,279.85L269.11,274.77L269.63,274.45L270.14,275.32L270.66,277.04L271.18,275.02L272.73,276.67L273.25,276.27L273.77,276.93L274.28,275.49L275.84,277.04L276.35,274.57L278.94,278.8L279.46,277.76L280.49,273.5L281.01,274.2L281.53,273.13L282.05,278.84L283.6,276.33L284.12,271.8L285.15,271.49L285.67,271.18L286.7,271.57L287.22,271.98L289.29,267.75L289.81,269.42L290.33,268.58L290.84,268.91L291.36,268.88L291.88,267.67L292.4,268.37L293.43,267.94L293.95,269.6L295.5,271.33L296.02,273.44L296.54,273.91L297.06,271.16L298.09,269.13L298.61,270.47L299.13,271.62L299.64,271.22L300.16,271.45L301.2,271.56L301.71,272.28L303.27,272.82L303.78,273.63L305.85,272.5L306.37,267.99L307.41,269.88L307.92,268.76L309.48,272.82L309.99,273.36L310.51,270.93L311.03,272.48L311.55,273.73L312.06,273.34L312.58,272.51L313.62,273.57L314.13,272.92L315.69,271.71L316.2,272.45L317.24,271.4L317.76,272.83L319.31,273.93L319.83,273.44L321.9,271.21L322.41,272.81L325.52,270.57L326.04,272.36L326.55,269.62L327.07,270.67L327.59,270.94L328.11,271.02L328.62,272.3L329.14,273.11L329.66,276.05L330.69,277.06L331.21,275.81L331.73,275.36L332.25,275.91L332.76,275.95L333.28,275.22L333.8,275.32L334.32,274.32L335.87,275.94L336.39,276.58L336.9,277.36L337.42,276.41L338.46,276.39L338.97,274.28L340.53,276.7L341.04,276.99L341.56,277.08L342.08,275.06L343.11,276.12L343.63,275.73L344.67,275.64L345.18,274.72L345.7,276.25L346.22,275.46L346.74,271.9L347.77,274.39L348.29,272.5L349.84,275.21L350.36,275.01L350.88,274.04L351.39,275.08L351.91,275.43L352.43,273.9L353.98,273.58L354.5,275.13L355.53,271.87L356.05,273.28L358.64,273.83L359.16,273.42L359.67,273.59L360.19,272.86L360.71,273.56L361.23,271.5L362.78,272.07L363.3,271.16L364.33,271.48L364.85,272.57L365.88,273.97L366.4,271.67L366.92,271.77L367.44,274.48L368.47,268.23L368.99,268.28L370.03,268.6L370.54,268.81L371.58,272.93L372.1,272.41L372.61,275.59L373.13,274.94L373.65,274.65L375.2,273.83L375.72,273.75L376.24,274.6L376.75,273.71L377.27,274.02L377.79,272.13L378.82,271.11L379.34,271.57L380.38,272.72L380.89,271.49L381.93,271.48L382.45,271.59L384,272.57L384.52,271.94L386.59,271.65L387.1,271.35L388.14,272.99L388.66,274.68L389.69,273.13L390.21,273.51L390.73,274.2L391.24,273.29L391.76,272.52L392.28,273.87L392.8,273.62L393.31,266.75L394.35,269.11L394.87,267.6L397.97,268.24L398.49,269.97L399.52,269.84L400.04,270.36L402.11,271.27L402.63,270.71L404.18,271.5L404.7,270.38L405.73,271.12L406.25,271.21L406.77,271.8L407.29,270.93L408.32,270.63L408.84,270.98L409.36,270.74L409.87,271.5L412.46,270.95L412.98,269.81L413.5,269.85L414.01,267.6L414.53,266.98L415.05,268.39L419.19,271.97L419.71,271.48L420.74,272.21L421.26,271.45L422.29,272.97L422.81,272.69L423.85,270.93L424.36,271.59L425.4,271.07L425.92,272.58L426.95,272.62L427.47,274.63L427.99,275.26L428.5,274.32L429.54,274.28L430.06,273.71L430.57,273.28L431.09,274.21L432.13,273.6L432.64,274.41L433.16,273.86L433.68,271.41L434.71,272.53L435.23,271.72L436.27,273.49L436.78,272.98L437.3,272.13L438.85,271.95L439.37,271.04L439.89,269.23L440.41,270.16L442.48,272.75L442.99,272.37L443.51,272.61L444.03,271.94L444.55,272.69L445.07,271.35L445.58,271.2L446.1,272.69L447.14,271.96L447.65,272.24L450.24,272.38L450.76,271.83L453.86,271.82L454.38,271.94L455.42,269.39L455.93,269.23L456.45,269.38L456.97,267.81L457.49,268.64L458,268.02L458.52,268.03L459.04,268.92L459.56,268.64L460.07,267.01L460.59,272.39L461.11,272.32L461.63,271.57L462.66,271.97L463.18,271.77L464.73,270.35L465.25,271.18L465.77,270.52L466.28,270.99L466.8,270.46L467.32,272.35L467.84,272.17L468.35,272.43L468.87,272.56L469.39,271.76L471.98,271.84L472.49,271.49L474.05,272.91L474.56,272.21L475.6,269.06L476.12,268.85L476.63,267.65L477.15,268.61L477.67,269.83L478.19,269.44L478.7,269.36L483.88,269.32L484.4,270.44L485.95,270.96L486.47,270.22L486.98,269.89L487.5,270.64L489.05,270.21L489.57,270.98L490.61,271.93L491.12,271.99L492.16,272.02L492.68,272.54L495.26,270.98L495.78,269.93L499.92,268.73L500.44,267.82L501.47,268.54L501.99,267.66L503.54,270.01L504.06,268.92L505.61,269.91L506.13,269.45L507.68,270.64L508.2,270.79L508.72,269.82L509.24,270.62L511.82,268.72L512.34,268.52L514.93,269.5L515.45,269.44L517,269.83" style="vector-effect: non-scaling-stroke; fill: none; stroke: rgb(255, 127, 14); stroke-opacity: 1; stroke-width: 2px; opacity: 1;"/></g><g class="points"/><g class="text"/></g><g class="trace scatter trace1a1fbb" style="stroke-miterlimit: 2; opacity: 1;"><g class="fills"/><g class="errorbars"/><g class="lines"><path class="js-line" d="M0,292.67L2.59,223.42L3.11,223.05L3.62,217.98L4.14,220.61L4.66,215.61L5.18,216.12L5.69,214.44L7.25,212.33L7.76,211.94L9.83,211.84L10.35,210.38L11.39,209.03L11.9,209.44L12.42,210.48L13.97,207.92L14.49,207.99L15.01,207.36L15.53,207.86L16.04,207.45L17.08,208.14L17.6,207.68L18.63,205.79L19.15,208.61L20.18,205.92L20.7,207.01L21.22,206.37L21.74,204.54L23.81,205.54L24.32,204.23L25.88,206.78L26.39,205.05L26.91,203.97L27.43,204.58L27.95,204.7L28.98,205.21L29.5,204.04L30.53,204.71L31.05,204.37L31.57,205.71L32.09,204.04L35.19,203.89L35.71,203.52L36.74,204.94L37.26,203.64L38.81,203.66L39.33,203L40.37,203.66L40.88,203.47L41.92,204.32L42.44,203.06L43.47,203.07L43.99,203.46L44.51,202.82L45.02,203.45L46.06,203.38L46.58,202.86L47.09,203.15L47.61,204.32L49.16,202.64L49.68,202.79L50.2,204.13L50.72,203.15L51.75,203.32L52.27,202.86L53.3,202.42L53.82,203.17L55.37,202.58L55.89,202.88L56.41,202.64L56.93,205L57.96,202.65L58.48,202.72L59.51,202.62L60.03,203.94L60.55,202.48L61.07,203.81L62.1,202.25L62.62,202.95L64.17,202.59L64.69,202.76L68.31,202.61L68.83,202.98L69.86,202.77L70.38,203.66L70.9,202.66L71.42,203.6L72.45,202.35L72.97,202.72L74.52,201.95L75.04,202.56L76.08,202.28L76.59,202.43L81.25,202.46L81.77,203.22L82.8,202.59L83.32,202.6L84.36,202.92L84.87,203.18L85.91,202.89L86.43,202.96L87.98,202.85L88.5,202.94L89.53,202.88L90.05,202.51L91.08,202.77L91.6,202.57L93.67,202.37L94.19,202.21L96.78,202.63L97.29,202.39L104.54,202.35L105.06,202.3L107.13,202.3L107.64,202.2L111.78,203.02L112.3,203.25L113.34,202.52L113.85,202.65L117.99,202.5L118.51,202.71L121.62,202.31L122.13,202.18L124.2,202.72L124.72,202.74L126.79,202.57L127.31,202.94L128.34,202.52L128.86,202.93L129.9,202.1L130.41,202.05L130.93,202.79L131.45,202.37L131.97,202.22L134.55,202.05L135.07,202.76L135.59,202.19L136.11,202.68L136.62,202.7L141.28,202.59L141.8,202.52L142.83,202.67L143.35,202.47L145.94,202.74L146.46,202.58L154.74,202.82L155.26,202.3L157.84,202.64L158.36,202.53L163.54,202.19L164.05,202.3L166.64,202.63L167.16,202.59L177.51,202.4L178.03,202.09L187.34,202.45L187.86,202.62L195.1,202.04L195.62,202.1L197.17,202.32L197.69,202.45L201.31,201.96L201.83,202.78L204.42,202.6L204.94,202.53L208.56,202.36L209.08,202.36L213.22,202.49L213.73,202.49L223.05,202.02L223.57,202.28L233.92,202.35L234.44,202.65L235.47,202.27L235.99,202.17L239.09,202.1L239.61,202.15L252.55,202.25L253.07,202.2L257.21,202.42L257.72,202.33L258.24,202.66L258.76,202.03L267.04,202.12L267.56,202.04L271.18,202.6L271.7,202.43L278.42,202.27L278.94,202.18L281.53,202.62L282.05,202.21L289.81,202.78L290.33,202.79L426.95,202.27L427.47,202.13L448.69,202.3L449.21,202.25L517,202.35" style="vector-effect: non-scaling-stroke; fill: none; stroke: rgb(44, 160, 44); stroke-opacity: 1; stroke-width: 2px; opacity: 1;"/></g><g class="points"/><g class="text"/></g></g></g><g class="overplot"/><path class="xlines-above crisp" d="M0,0" style="fill: none;"/><path class="ylines-above crisp" d="M0,0" style="fill: none;"/><g class="overlines-above"/><g class="xaxislayer-above"><g class="xtick"><text text-anchor="middle" x="0" y="403" transform="translate(60,0)" style="font-family: 'Open Sans', verdana, arial, sans-serif; font-size: 12px; fill: rgb(68, 68, 68); fill-opacity: 1; white-space: pre;">0</text></g><g class="xtick"><text text-anchor="middle" x="0" y="403" transform="translate(163.5,0)" style="font-family: 'Open Sans', verdana, arial, sans-serif; font-size: 12px; fill: rgb(68, 68, 68); fill-opacity: 1; white-space: pre;">200</text></g><g class="xtick"><text text-anchor="middle" x="0" y="403" transform="translate(267.01,0)" style="font-family: 'Open Sans', verdana, arial, sans-serif; font-size: 12px; fill: rgb(68, 68, 68); fill-opacity: 1; white-space: pre;">400</text></g><g class="xtick"><text text-anchor="middle" x="0" y="403" transform="translate(370.51,0)" style="font-family: 'Open Sans', verdana, arial, sans-serif; font-size: 12px; fill: rgb(68, 68, 68); fill-opacity: 1; white-space: pre;">600</text></g><g class="xtick"><text text-anchor="middle" x="0" y="403" transform="translate(474.01,0)" style="font-family: 'Open Sans', verdana, arial, sans-serif; font-size: 12px; fill: rgb(68, 68, 68); fill-opacity: 1; white-space: pre;">800</text></g></g><g class="yaxislayer-above"><g class="ytick"><text text-anchor="end" x="59" y="4.199999999999999" transform="translate(0,373.51)" style="font-family: 'Open Sans', verdana, arial, sans-serif; font-size: 12px; fill: rgb(68, 68, 68); fill-opacity: 1; white-space: pre;">0</text></g><g class="ytick"><text text-anchor="end" x="59" y="4.199999999999999" transform="translate(0,316.41)" style="font-family: 'Open Sans', verdana, arial, sans-serif; font-size: 12px; fill: rgb(68, 68, 68); fill-opacity: 1; white-space: pre;">0.5</text></g><g class="ytick"><text text-anchor="end" x="59" y="4.199999999999999" transform="translate(0,259.32)" style="font-family: 'Open Sans', verdana, arial, sans-serif; font-size: 12px; fill: rgb(68, 68, 68); fill-opacity: 1; white-space: pre;">1</text></g><g class="ytick"><text text-anchor="end" x="59" y="4.199999999999999" transform="translate(0,202.23)" style="font-family: 'Open Sans', verdana, arial, sans-serif; font-size: 12px; fill: rgb(68, 68, 68); fill-opacity: 1; white-space: pre;">1.5</text></g><g class="ytick"><text text-anchor="end" x="59" y="4.199999999999999" transform="translate(0,145.14)" style="font-family: 'Open Sans', verdana, arial, sans-serif; font-size: 12px; fill: rgb(68, 68, 68); fill-opacity: 1; white-space: pre;">2</text></g><g class="ytick"><text text-anchor="end" x="59" y="4.199999999999999" transform="translate(0,88.03999999999999)" style="font-family: 'Open Sans', verdana, arial, sans-serif; font-size: 12px; fill: rgb(68, 68, 68); fill-opacity: 1; white-space: pre;">2.5</text></g></g><g class="overaxes-above"/></g></g><g class="polarlayer"/><g class="ternarylayer"/><g class="geolayer"/><g class="funnelarealayer"/><g class="pielayer"/><g class="treemaplayer"/><g class="sunburstlayer"/><g class="glimages"/><defs id="topdefs-51688f"><g class="clips"/><clipPath id="legend51688f"><rect width="101" height="67" x="0" y="0"/></clipPath></defs><g class="layer-above"><g class="imagelayer"/><g class="shapelayer"/></g><g class="infolayer"><g class="legend" pointer-events="all" transform="translate(587.34, 60)"><rect class="bg" shape-rendering="crispEdges" width="101" height="67" x="0" y="0" style="stroke: rgb(68, 68, 68); stroke-opacity: 1; fill: rgb(255, 255, 255); fill-opacity: 1; stroke-width: 0px;"/><g class="scrollbox" transform="translate(0, 0)" clip-path="url('#legend51688f')"><g class="groups"><g class="traces" transform="translate(0, 14.5)" style="opacity: 1;"><text class="legendtext" text-anchor="start" x="40" y="4.680000000000001" style="font-family: 'Open Sans', verdana, arial, sans-serif; font-size: 12px; fill: rgb(68, 68, 68); fill-opacity: 1; white-space: pre;">train loss</text><g class="layers" style="opacity: 1;"><g class="legendfill"/><g class="legendlines"><path class="js-line" d="M5,0h30" style="fill: none; stroke: rgb(31, 119, 180); stroke-opacity: 1; stroke-width: 2px;"/></g><g class="legendsymbols"><g class="legendpoints"/></g></g><rect class="legendtoggle" pointer-events="all" x="0" y="-9.5" width="95.78125" height="19" style="cursor: pointer; fill: rgb(0, 0, 0); fill-opacity: 0;"/></g><g class="traces" transform="translate(0, 33.5)" style="opacity: 1;"><text class="legendtext" text-anchor="start" x="40" y="4.680000000000001" style="font-family: 'Open Sans', verdana, arial, sans-serif; font-size: 12px; fill: rgb(68, 68, 68); fill-opacity: 1; white-space: pre;">test loss</text><g class="layers" style="opacity: 1;"><g class="legendfill"/><g class="legendlines"><path class="js-line" d="M5,0h30" style="fill: none; stroke: rgb(255, 127, 14); stroke-opacity: 1; stroke-width: 2px;"/></g><g class="legendsymbols"><g class="legendpoints"/></g></g><rect class="legendtoggle" pointer-events="all" x="0" y="-9.5" width="95.78125" height="19" style="cursor: pointer; fill: rgb(0, 0, 0); fill-opacity: 0;"/></g><g class="traces" transform="translate(0, 52.5)" style="opacity: 1;"><text class="legendtext" text-anchor="start" x="40" y="4.680000000000001" style="font-family: 'Open Sans', verdana, arial, sans-serif; font-size: 12px; fill: rgb(68, 68, 68); fill-opacity: 1; white-space: pre;">acc</text><g class="layers" style="opacity: 1;"><g class="legendfill"/><g class="legendlines"><path class="js-line" d="M5,0h30" style="fill: none; stroke: rgb(44, 160, 44); stroke-opacity: 1; stroke-width: 2px;"/></g><g class="legendsymbols"><g class="legendpoints"/></g></g><rect class="legendtoggle" pointer-events="all" x="0" y="-9.5" width="95.78125" height="19" style="cursor: pointer; fill: rgb(0, 0, 0); fill-opacity: 0;"/></g></g></g><rect class="scrollbar" rx="20" ry="3" width="0" height="0" x="0" y="0" style="fill: rgb(128, 139, 164); fill-opacity: 1;"/></g><g class="g-gtitle"><text class="gtitle" x="350" y="30" text-anchor="middle" dy="0em" style="font-family: 'Open Sans', verdana, arial, sans-serif; font-size: 17px; fill: rgb(68, 68, 68); opacity: 1; font-weight: normal; white-space: pre;">SAMPLE_PER_CLASS_100</text></g><g class="g-xtitle"/><g class="g-ytitle"/></g></svg>