<svg class="main-svg" xmlns="http://www.w3.org/2000/svg" xmlns:xlink="http://www.w3.org/1999/xlink" width="700" height="450" style="" viewBox="0 0 700 450"><rect x="0" y="0" width="700" height="450" style="fill: rgb(255, 255, 255); fill-opacity: 1;"/><defs id="defs-c6ad1a"><g class="clips"><clipPath id="clipc6ad1axyplot" class="plotclip"><rect width="517" height="330"/></clipPath><clipPath class="axesclip" id="clipc6ad1ax"><rect x="60" y="0" width="517" height="450"/></clipPath><clipPath class="axesclip" id="clipc6ad1ay"><rect x="0" y="60" width="700" height="330"/></clipPath><clipPath class="axesclip" id="clipc6ad1axy"><rect x="60" y="60" width="517" height="330"/></clipPath></g><g class="gradients"/></defs><g class="bglayer"/><g class="layer-below"><g class="imagelayer"/><g class="shapelayer"/></g><g class="cartesianlayer"><g class="subplot xy"><g class="layer-subplot"><g class="shapelayer"/><g class="imagelayer"/></g><g class="gridlayer"><g class="x"><path class="xgrid crisp" transform="translate(163.5,0)" d="M0,60v330" style="stroke: rgb(238, 238, 238); stroke-opacity: 1; stroke-width: 1px;"/><path class="xgrid crisp" transform="translate(267.01,0)" d="M0,60v330" style="stroke: rgb(238, 238, 238); stroke-opacity: 1; stroke-width: 1px;"/><path class="xgrid crisp" transform="translate(370.51,0)" d="M0,60v330" style="stroke: rgb(238, 238, 238); stroke-opacity: 1; stroke-width: 1px;"/><path class="xgrid crisp" transform="translate(474.01,0)" d="M0,60v330" style="stroke: rgb(238, 238, 238); stroke-opacity: 1; stroke-width: 1px;"/></g><g class="y"><path class="ygrid crisp" transform="translate(0,316.77)" d="M60,0h517" style="stroke: rgb(238, 238, 238); stroke-opacity: 1; stroke-width: 1px;"/><path class="ygrid crisp" transform="translate(0,260.03)" d="M60,0h517" style="stroke: rgb(238, 238, 238); stroke-opacity: 1; stroke-width: 1px;"/><path class="ygrid crisp" transform="translate(0,203.28)" d="M60,0h517" style="stroke: rgb(238, 238, 238); stroke-opacity: 1; stroke-width: 1px;"/><path class="ygrid crisp" transform="translate(0,146.54000000000002)" d="M60,0h517" style="stroke: rgb(238, 238, 238); stroke-opacity: 1; stroke-width: 1px;"/><path class="ygrid crisp" transform="translate(0,89.78999999999999)" d="M60,0h517" style="stroke: rgb(238, 238, 238); stroke-opacity: 1; stroke-width: 1px;"/></g></g><g class="zerolinelayer"><path class="xzl zl crisp" transform="translate(60,0)" d="M0,60v330" style="stroke: rgb(68, 68, 68); stroke-opacity: 1; stroke-width: 1px;"/><path class="yzl zl crisp" transform="translate(0,373.52)" d="M60,0h517" style="stroke: rgb(68, 68, 68); stroke-opacity: 1; stroke-width: 1px;"/></g><path class="xlines-below"/><path class="ylines-below"/><g class="overlines-below"/><g class="xaxislayer-below"/><g class="yaxislayer-below"/><g class="overaxes-below"/><g class="plot" transform="translate(60, 60)" clip-path="url('#clipc6ad1axyplot')"><g class="scatterlayer mlayer"><g class="trace scatter traceeba66b" style="stroke-miterlimit: 2; opacity: 1;"><g class="fills"/><g class="errorbars"/><g class="lines"><path class="js-line" d="M0,28.01L2.59,167.23L3.11,179.13L5.18,207.46L5.69,210.79L8.8,234.74L9.32,235.6L11.9,248.84L12.42,250.14L13.46,255.92L13.97,258.23L17.08,265.14L17.6,268.08L19.15,272.34L19.67,270.24L21.74,277.33L22.25,277.92L22.77,277.14L23.29,280.03L23.81,278.42L24.32,279.16L24.84,279.82L25.88,282.49L26.39,281.75L26.91,284.24L27.43,283.93L27.95,284.78L28.98,286.11L29.5,285.37L30.02,287.55L30.53,287.23L31.05,288.61L31.57,288.17L32.09,288.89L33.12,289.83L33.64,289.24L34.16,292.08L34.67,291.76L35.19,292.62L35.71,293.55L36.23,290.66L36.74,291.27L37.26,294.23L38.3,294.29L38.81,295.23L39.33,293.21L39.85,295.37L40.37,295.29L40.88,296.24L42.95,297.41L43.47,299.3L44.51,298.01L45.02,298.04L45.54,300.06L46.06,299.79L46.58,300.93L47.61,300.16L48.13,301.13L48.65,297.84L49.16,298.36L49.68,300.82L50.2,301.75L50.72,300.14L52.27,304.16L52.79,303.23L53.3,303.91L53.82,303.32L54.34,303.02L54.86,303.65L56.41,304.95L56.93,304.69L57.44,305.46L57.96,304.16L59.51,306.21L60.03,305.8L60.55,305.16L61.07,306.4L62.1,305.72L62.62,306.78L63.65,305.56L64.17,306.55L66.24,305.37L66.76,304.99L68.83,307.48L69.35,306.92L69.86,306.13L70.38,307.97L71.42,307.63L71.93,308.38L72.45,308.37L72.97,307.38L74.01,307.43L74.52,306.84L76.08,307.91L76.59,306.79L77.11,306.81L77.63,307.77L78.66,307.52L79.18,307.38L80.22,309.35L80.73,309L81.77,309.66L82.29,309.52L83.84,307.34L84.36,308.27L85.91,309.12L86.43,308.88L88.5,309.08L89.01,310.12L89.53,310.42L90.05,308.25L91.08,309.64L91.6,309.28L92.64,309.71L93.15,309.71L94.19,309.84L94.71,308.81L95.22,308.57L95.74,310.06L96.26,309.02L96.78,310.34L97.29,309.91L97.81,310.51L98.33,309.56L98.85,309.85L99.36,310.37L100.4,309.51L100.92,309.79L102.99,310.49L103.5,311.57L106.09,310.83L106.61,311.53L108.16,310.5L108.68,311.13L110.23,311.53L110.75,311.01L112.3,310.51L112.82,311.4L114.89,310.8L115.41,310.06L116.44,311.19L116.96,310.42L119.55,311.99L120.06,311.94L121.1,312.33L121.62,311.71L123.17,310.35L123.69,311.27L124.72,311.62L125.24,311.19L127.31,311.8L127.83,311.54L128.86,310.66L129.38,311.42L131.45,311.64L131.97,312.44L134.04,311.71L134.55,312.03L135.59,311.73L136.11,311.78L137.14,311L137.66,311.85L138.18,311.19L138.69,312.21L139.73,311.99L140.25,312.3L141.28,310.92L141.8,311.31L143.87,311.67L144.39,312.39L145.42,311L145.94,311.88L146.46,312.41L146.97,311.78L148.01,311.88L148.53,310.97L149.56,310.14L150.08,311.48L151.12,312.11L151.63,311.08L152.67,312.27L153.19,311.94L154.22,312.11L154.74,311.57L155.77,312.87L156.29,311.83L158.36,313.01L158.88,312.66L160.43,312.35L160.95,312.29L161.98,312.75L162.5,311.97L163.02,312.73L163.54,312.26L164.05,312.24L165.61,312.8L166.12,312.44L167.68,312.6L168.19,312.65L173.89,312.21L174.4,311.74L176.99,312.57L177.51,310.98L178.54,312.28L179.06,312.02L180.1,312.43L180.61,312.62L181.65,313.07L182.17,311.76L183.2,312.71L183.72,311.88L185.79,313.11L186.31,312.74L187.34,312.51L187.86,312.33L188.89,312.13L189.41,313.13L191.48,310.98L192,312.84L193.55,312.88L194.07,312.17L195.62,312.82L196.14,312.5L196.66,312.74L197.17,311.54L198.73,312.69L199.24,312.77L207.52,312.28L208.04,312.88L209.08,312.83L209.59,312.48L212.18,312.87L212.7,312.87L219.94,313.06L220.46,312.69L222.53,313.19L223.05,313.39L226.67,312.53L227.19,312.57L228.23,312.78L228.74,312.29L229.78,312.94L230.3,312.79L232.37,313.1L232.88,312.93L234.95,312.82L235.47,313.22L236.51,312.95L237.02,313.01L238.58,313.07L239.09,313.03L242.72,313.08L243.23,312.73L244.27,312.74L244.79,313.05L245.82,313.16L246.34,312.95L247.37,313.2L247.89,312.92L249.44,312.83L249.96,313.02L252.03,312.92L252.55,312.62L253.58,313.18L254.1,313.1L254.62,312.44L255.14,313.04L256.17,313.17L256.69,313.17L258.24,312.93L258.76,313.19L266.52,312.97L267.04,313.25L283.6,313.35L284.12,312.88L285.67,313.16L286.19,313.28L292.91,313.26L293.43,313.33L298.61,312.53L299.13,313.31L304.82,313.19L305.34,313.41L305.85,312.37L306.37,313.05L307.92,313.21L308.44,313.23L310.51,313.25L311.03,312.96L313.62,313.4L314.13,313.43L317.24,313.25L317.76,313.32L332.76,313.27L333.28,313.21L336.9,313.23L337.42,313.4L342.08,313.28L342.6,313.23L346.74,313.31L347.25,313.18L348.81,313.12L349.32,313.06L353.46,313.33L353.98,313.13L358.64,313.38L359.16,313.39L362.78,313.31L363.3,313.31L370.03,313.36L370.54,313.3L375.2,313.48L375.72,313.26L377.79,313.29L378.31,313.13L379.34,313.4L379.86,313L380.89,313.28L381.41,313.29L405.73,313.43L406.25,313.46L441.96,313.46L442.48,313.37L453.86,313.39L454.38,313.45L490.61,313.43L491.12,313.39L517,313.41" style="vector-effect: non-scaling-stroke; fill: none; stroke: rgb(31, 119, 180); stroke-opacity: 1; stroke-width: 2px; opacity: 1;"/></g><g class="points"/><g class="text"/></g><g class="trace scatter trace6a443b" style="stroke-miterlimit: 2; opacity: 1;"><g class="fills"/><g class="errorbars"/><g class="lines"><path class="js-line" d="M0,16.5L3.11,215.85L3.62,220.04L4.14,237.42L4.66,234.09L5.18,242.05L5.69,241.75L6.21,248.02L7.76,251.14L8.28,257.52L8.8,257.22L9.32,258.72L9.83,256.98L10.35,257.92L10.87,253.89L11.39,260.65L11.9,262.33L12.42,266.72L12.94,266.59L13.46,265.02L14.49,266.91L15.01,267.35L15.53,270.29L16.04,267.92L17.08,268.17L17.6,271.12L18.11,271.89L18.63,270.01L19.15,267.11L19.67,269.1L20.7,270.38L21.22,272.5L22.77,273.6L23.29,273.26L23.81,272.52L24.32,261.86L24.84,272.83L25.36,270.74L25.88,273.37L26.39,273.52L26.91,274.69L27.95,272.39L28.46,274.54L28.98,273.88L29.5,275.93L31.05,276.16L31.57,275.07L32.6,275.99L33.12,268.94L33.64,276.96L34.16,272.73L34.67,276.73L35.19,275.74L35.71,268.69L36.23,269.93L36.74,274.38L37.26,277.13L37.78,274.97L38.3,275.97L38.81,272.4L39.33,275.09L39.85,271.83L40.37,272.44L40.88,275.38L41.92,275.17L42.44,274.16L42.95,274.2L43.47,276.07L45.54,273.7L46.06,273.64L46.58,274.51L47.09,273.38L48.13,271.09L48.65,264.2L49.68,272.42L50.2,271.74L50.72,272.59L51.23,271.52L51.75,271.25L52.27,274.43L52.79,270.2L53.3,271.38L53.82,273.31L54.86,272.87L55.37,274.34L55.89,275.36L56.41,271.85L56.93,271.87L57.44,270.62L57.96,273.34L58.48,272.16L59,272.98L59.51,272.82L60.03,270.32L60.55,272.44L61.07,271.44L61.58,271.97L62.1,270.83L62.62,273.53L63.14,273L63.65,269.85L64.17,269.58L64.69,271.37L65.21,271.49L65.72,269.89L66.24,266.52L66.76,268.15L67.28,267.92L67.79,265.28L68.31,265.49L68.83,264.14L69.35,265.7L69.86,263.74L70.9,265.75L71.42,264.03L72.45,260.28L72.97,260.76L73.49,262.02L74.01,253.42L74.52,259.14L75.56,263.74L76.08,265.9L76.59,260.32L77.11,262.35L77.63,260.9L78.15,257.97L78.66,264.06L79.7,263.91L80.22,262.2L81.25,264.76L81.77,264.11L82.29,262.8L83.32,256.69L83.84,260.53L85.39,263.8L85.91,262.36L86.43,256.45L86.94,258.22L87.46,260.54L87.98,261.4L88.5,257.84L90.57,259.73L91.08,257.17L92.12,261.13L92.64,257.39L93.15,260.09L93.67,258.13L94.19,258.2L94.71,257.4L95.74,252.48L96.26,254.46L96.78,254.79L97.29,256.8L97.81,255.18L98.33,257.91L99.36,251.47L99.88,253.28L100.92,257.19L101.43,256.83L101.95,255.69L102.47,255.36L102.99,252.79L103.5,254.67L104.02,253.89L104.54,253.36L105.06,253.17L105.57,256.43L106.09,252.01L106.61,255.72L107.13,251.86L107.64,254.02L108.68,258.03L109.2,257.27L109.71,259.12L110.23,257.33L111.27,256.79L111.78,254.5L112.3,256.82L112.82,255.29L113.34,255.75L113.85,254.06L114.37,258.03L114.89,254.67L115.92,255.91L116.44,255.53L117.48,258.29L117.99,253.75L118.51,259.07L119.03,258.98L119.55,257.82L121.1,258.49L121.62,244.43L122.13,256.63L122.65,252.83L123.17,253.51L124.2,257.83L124.72,255.73L125.24,254.12L125.76,256.74L126.79,250.57L127.31,252.74L127.83,249.44L128.34,251.38L129.9,253.39L130.41,253.52L131.45,253.65L131.97,251.33L133,256.18L133.52,255.08L134.55,254.28L135.07,253.26L136.11,254.78L136.62,253.92L137.14,252.29L137.66,253.18L138.18,254.44L138.69,250.57L139.73,248.21L140.25,245.88L141.28,251.12L141.8,249.08L142.32,248.25L142.83,249.62L143.35,251.81L143.87,249.45L144.9,250.61L145.42,246.08L146.46,252.49L146.97,251.01L148.01,247.4L148.53,249.25L149.56,249.99L150.08,252L151.63,247.05L152.15,244.9L153.7,248.49L154.22,247.55L156.29,251.59L156.81,250.29L157.33,252.73L157.84,252.62L158.36,251.11L158.88,250.71L159.4,247.5L159.91,251.42L160.43,250.67L160.95,251.33L162.5,245.92L163.02,248.68L163.54,248.4L164.05,246.24L165.09,249.59L165.61,249.76L166.64,250.89L167.16,249.84L168.71,251.96L169.23,251.51L170.26,247.44L170.78,248.57L171.82,251.19L172.33,249.12L173.89,243.4L174.4,244.16L175.44,248.46L175.96,246.26L176.99,243.34L177.51,239.84L178.54,245.98L179.06,246.01L179.58,249.66L180.1,248.38L180.61,247.23L181.65,244.76L182.17,245.01L183.2,245.47L183.72,242.14L184.75,245.91L185.27,246.12L185.79,244.92L186.31,246.58L186.82,244.86L187.34,245.51L187.86,247.5L188.38,242.01L188.89,244.59L189.41,245.34L189.93,244.7L190.45,244.26L190.96,245.94L192,246.68L192.52,246.37L193.55,245.37L194.07,241.58L194.59,242.41L195.1,247.15L196.66,243.3L197.17,243.28L197.69,245.62L198.21,244.06L198.73,246.22L199.24,242.93L199.76,243.67L200.28,242.91L201.31,239.18L201.83,241.51L202.87,239.31L203.38,237.32L204.42,241.88L204.94,239.95L205.45,239.31L205.97,240.22L206.49,240.6L207.01,238.77L207.52,239.42L208.04,238.9L208.56,238.38L209.59,240.6L210.11,240.08L210.63,240.2L211.15,240.86L211.66,239.66L212.7,240.13L213.22,241.68L214.77,237.91L215.29,239.79L216.84,242L217.36,241.56L217.87,240.46L218.39,243.2L220.46,239.46L220.98,241.24L221.5,242L222.02,241.27L223.57,240.16L224.09,240.8L224.6,240.77L225.12,239.69L225.64,241.24L226.16,240.17L226.67,241.73L227.19,240.23L227.71,238.71L228.23,240.88L229.26,234.78L229.78,235.16L230.3,235.84L230.81,234.15L231.33,233.52L231.85,236.29L232.88,232.37L233.4,235.88L233.92,236.86L234.44,228.21L235.47,238.48L235.99,238.03L236.51,237.51L237.02,233.94L237.54,234.27L238.06,236.83L238.58,243.3L239.09,242.9L239.61,243.52L240.13,243.93L240.65,242.34L241.16,242.97L241.68,240.73L242.2,237.53L242.72,239.72L243.23,239.98L243.75,238.78L244.79,242.65L245.3,244.32L248.41,241.78L248.93,239.99L249.44,239.27L249.96,240.53L250.48,240.48L251,237.32L251.51,240.58L252.03,239.71L252.55,239.87L253.07,240.11L253.58,239.49L254.62,239.28L255.14,238.35L255.65,239.72L256.17,235.82L257.72,239.52L258.24,239.28L258.76,239.25L259.28,238.31L261.86,239.85L262.38,239.51L262.9,240.24L263.42,239.4L263.93,240.57L264.45,238.24L266.52,233.33L267.04,235.36L268.07,236.45L268.59,237.43L269.11,234.73L269.63,236.25L270.14,236.68L270.66,234.96L271.18,236.29L271.7,234.98L272.73,236.03L273.25,234.78L274.28,234.67L274.8,234.5L275.32,233.49L275.84,235.56L276.35,237.07L276.87,236.05L277.91,235.81L278.42,236.46L278.94,235.47L279.46,236.14L280.49,236.94L281.01,234.95L281.53,235.72L282.05,237.86L283.08,237.18L283.6,237.44L284.12,236.6L284.63,237.25L285.67,239.36L286.19,239.46L287.74,240.89L288.26,239.66L289.81,238.65L290.33,239L291.36,237.14L291.88,238.36L292.4,241.02L292.91,240.51L293.43,239.57L294.47,238.23L294.98,230.8L295.5,237.47L296.02,236.43L296.54,233.8L298.09,238.71L298.61,234.63L299.64,232.34L300.16,232.83L300.68,237.08L301.2,234.81L301.71,235.71L302.23,235.84L303.27,235.27L303.78,236.51L304.3,236.05L304.82,237.91L306.37,237.17L306.89,236.96L308.44,232.3L308.96,233.1L309.48,236.44L309.99,234.66L310.51,230.4L311.03,234.12L311.55,235.9L312.06,235.45L312.58,235.48L313.62,235.11L314.13,234.59L315.69,232.56L316.2,233.59L317.76,236.87L318.27,232.88L318.79,232.59L319.31,233.79L321.38,235.09L321.9,232.56L322.93,235.85L323.45,236.29L323.97,234.54L324.48,235.51L325.52,235L326.04,234.14L327.07,235.08L327.59,232.68L328.11,231.49L328.62,231.97L329.14,231.83L330.18,232.78L330.69,232.75L332.76,232.66L333.28,231.72L335.35,232.61L335.87,233.32L336.39,233.57L336.9,225.95L337.94,229L338.46,226.3L338.97,227.78L339.49,227.34L340.01,227.41L340.53,227.3L341.04,228.16L342.08,228.27L342.6,229.62L343.63,231.11L344.15,230.02L345.18,229.12L345.7,230.12L347.25,230.85L347.77,230.33L349.32,231.08L349.84,230.57L350.36,230.28L350.88,225.71L351.91,222.44L352.43,223.3L352.95,223.59L353.46,224.98L354.5,230.63L355.02,231.7L356.05,230.96L356.57,231.01L357.6,230.24L358.12,231.3L358.64,231.63L359.16,228.16L359.67,228.02L360.19,230.03L361.23,230.15L361.74,232.93L363.3,233.76L363.81,233.04L364.33,233.81L364.85,232.81L366.92,229.64L367.44,227.21L370.03,227.57L370.54,232.74L371.06,233.28L371.58,232.23L373.65,231.88L374.17,232.15L376.24,229.91L376.75,230.29L377.27,229.03L377.79,230.5L379.86,228.5L380.38,230.14L380.89,231.39L381.41,229.67L382.45,230.58L382.96,228.78L384.52,228.34L385.03,229.14L386.07,228.65L386.59,227.55L387.62,231.76L388.14,231.05L388.66,231L389.17,229.84L391.76,230.57L392.28,230.32L393.31,231.85L393.83,230.93L394.35,232.2L394.87,231.75L395.38,231.61L395.9,229.73L396.42,230.4L396.94,230.49L397.97,231.36L398.49,231.18L402.63,231.64L403.15,232.13L403.66,232.82L404.18,232.15L406.25,231.84L406.77,232L408.32,231.16L408.84,232.23L409.87,232.36L410.39,231.41L410.91,231.19L411.43,233.06L412.46,233.82L412.98,232.87L413.5,232.47L414.01,233.35L414.53,233.11L415.05,233.86L415.57,232.03L416.08,232.25L416.6,232.77L419.19,230.83L419.71,232.04L420.22,233.22L420.74,232.2L422.29,233.51L422.81,231.55L423.85,232.12L424.36,230.46L425.4,232.42L425.92,232.73L426.43,232.33L426.95,232.99L427.47,232.38L427.99,233.16L429.02,232.91L429.54,232.8L430.57,232.5L431.09,233.58L432.13,230.75L432.64,231.04L433.16,232.31L434.2,230.07L434.71,231.28L435.75,231.57L436.27,231.92L437.82,230.51L438.34,231.36L439.37,231.78L439.89,230.45L440.92,230.34L441.44,231.25L441.96,231.06L442.48,232.57L442.99,232.09L443.51,230.42L444.55,231.29L445.07,230.94L446.1,231.68L446.62,230.9L447.65,231.86L448.17,231.39L449.72,230.02L450.24,229.14L450.76,229.49L451.28,231.14L453.35,230.42L453.86,230.65L455.93,229.84L456.45,230.93L457.49,227.61L458,227.85L459.04,227.08L459.56,228.21L460.07,226.74L460.59,226.96L461.11,226.47L464.73,229.18L465.25,228.56L467.32,227.16L467.84,225.53L469.39,227.81L469.91,227.92L470.42,227.34L470.94,228.07L471.98,227.94L472.49,227.61L473.01,227.65L473.53,228.89L474.05,227.85L474.56,229.07L475.08,229.5L475.6,227.84L477.15,227.91L477.67,228.95L478.19,229.16L478.7,230.57L481.29,229.14L481.81,229.37L482.33,228.84L482.84,229.4L484.4,228.2L484.91,228.58L485.95,231.01L486.47,231.01L488.02,230.74L488.54,230.68L489.57,231.71L490.09,229.99L491.12,228.55L491.64,228.51L492.68,228.87L493.19,228.98L493.71,229.31L494.23,230.92L494.75,231.49L495.26,230.39L496.82,231.6L497.33,228.55L498.37,229.2L498.89,229.98L501.99,228.74L502.51,229.1L504.06,229.83L504.58,227.64L505.1,227.77L505.61,227.03L507.17,225.33L507.68,226.15L508.72,228.45L509.24,227.66L509.75,226.07L510.27,226.55L510.79,226.47L511.31,228.38L511.82,227.29L512.86,225.89L513.38,226.3L513.89,225.52L514.41,225.89L514.93,227.07L515.96,226.87L516.48,227.5L517,227.19" style="vector-effect: non-scaling-stroke; fill: none; stroke: rgb(255, 127, 14); stroke-opacity: 1; stroke-width: 2px; opacity: 1;"/></g><g class="points"/><g class="text"/></g><g class="trace scatter tracef731a3" style="stroke-miterlimit: 2; opacity: 1;"><g class="fills"/><g class="errorbars"/><g class="lines"><path class="js-line" d="M0,305.7L1.04,281.25L1.55,257.2L2.59,239.79L3.11,234.1L3.62,234.03L4.14,225.41L4.66,227.03L5.18,224.16L5.69,224.67L6.21,222.16L7.76,220.85L8.28,219.18L10.35,218.41L10.87,219.39L12.42,215.16L12.94,215.3L13.97,215.17L14.49,214.59L15.01,214.68L15.53,213.37L16.04,214.25L16.56,213.84L17.08,213.45L18.63,212.63L19.15,213.84L20.7,212.31L21.22,211.56L22.77,210.8L23.29,210.95L23.81,210.9L24.32,212.01L24.84,210.61L25.36,211.72L26.91,209.5L27.43,211.2L28.46,209.45L28.98,209.99L29.5,208.86L30.02,209.34L30.53,209.2L31.57,209.63L32.09,209.02L32.6,208.85L33.12,210.39L33.64,208.86L34.16,209.48L34.67,208.24L35.71,210.26L36.23,209.38L37.26,208.2L37.78,208.6L38.3,208.07L38.81,209.06L39.33,208.21L39.85,208.82L40.88,207.82L41.4,208.23L47.09,207.59L47.61,208.14L48.13,208.05L48.65,209.2L49.68,207.44L50.2,207.44L51.75,207.47L52.27,206.69L54.34,207.23L54.86,207.31L55.89,206.6L56.41,207.68L57.44,207.01L57.96,206.95L59.51,206.64L60.03,207.08L61.58,206.64L62.1,207.04L63.14,206.69L63.65,207.17L65.72,206.82L66.24,207.41L67.28,206.95L67.79,207.12L69.35,206.87L69.86,207.22L70.9,206.32L71.42,206.82L73.49,207.21L74.01,208.12L75.04,207.39L75.56,207.08L76.08,206.78L76.59,207.44L77.63,207.07L78.15,208.05L79.18,206.86L79.7,206.73L82.29,206.83L82.8,207.5L85.91,207.01L86.43,207.74L88.5,207.26L89.01,207.18L111.27,206.63L111.78,206.84L114.37,206.15L114.89,206.69L116.44,206.37L116.96,206.58L118.51,206.17L119.03,206.2L120.58,206.41L121.1,206.12L121.62,207.84L122.13,206.45L123.17,206.82L123.69,206.39L125.76,206.4L126.27,206.57L128.34,206.6L128.86,206.53L131.45,206.73L131.97,206.38L136.62,206.41L137.14,206.61L139.21,206.3L139.73,206.23L140.76,206.84L141.28,206.29L142.83,206.4L143.35,206.28L145.94,206.37L146.46,206.05L148.01,206.77L148.53,206.37L150.08,206.33L150.6,206.16L152.67,206.51L153.19,206.36L155.26,206.48L155.77,206.14L158.88,206.08L159.4,206.8L160.95,206.15L161.47,206.38L164.05,206.48L164.57,206.49L169.75,206.12L170.26,206.23L173.37,206.46L173.89,206.63L179.06,206.7L179.58,206.41L184.75,206.09L185.27,205.98L187.34,206.26L187.86,205.89L188.89,206.32L189.41,206.21L192,206.16L192.52,205.98L194.59,206.46L195.1,205.93L196.66,206.33L197.17,206.14L201.83,206.11L202.35,206.39L232.37,206.18L232.88,206.64L234.95,206.31L235.47,206.08L255.65,205.91L256.17,206.31L259.28,206.2L259.79,206.22L309.99,206.2L310.51,206.52L315.17,206.16L315.69,206.4L317.76,205.95L318.27,206.12L327.07,206.06L327.59,206.37L331.21,206.09L331.73,206.14L343.11,206.28L343.63,206.07L348.29,205.95L348.81,205.87L352.95,206.32L353.46,206.12L356.05,206.08L356.57,206.19L361.74,205.92L362.26,205.84L380.38,205.96L380.89,205.92L423.85,205.76L424.36,205.97L426.95,205.72L427.47,205.75L433.68,205.75L434.2,205.87L459.56,205.95L460.07,206.06L475.6,205.85L476.12,205.88L484.4,205.79L484.91,205.81L491.12,205.75L491.64,205.81L517,205.86" style="vector-effect: non-scaling-stroke; fill: none; stroke: rgb(44, 160, 44); stroke-opacity: 1; stroke-width: 2px; opacity: 1;"/></g><g class="points"/><g class="text"/></g></g></g><g class="overplot"/><path class="xlines-above crisp" d="M0,0" style="fill: none;"/><path class="ylines-above crisp" d="M0,0" style="fill: none;"/><g class="overlines-above"/><g class="xaxislayer-above"><g class="xtick"><text text-anchor="middle" x="0" y="403" transform="translate(60,0)" style="font-family: 'Open Sans', verdana, arial, sans-serif; font-size: 12px; fill: rgb(68, 68, 68); fill-opacity: 1; white-space: pre;">0</text></g><g class="xtick"><text text-anchor="middle" x="0" y="403" transform="translate(163.5,0)" style="font-family: 'Open Sans', verdana, arial, sans-serif; font-size: 12px; fill: rgb(68, 68, 68); fill-opacity: 1; white-space: pre;">200</text></g><g class="xtick"><text text-anchor="middle" x="0" y="403" transform="translate(267.01,0)" style="font-family: 'Open Sans', verdana, arial, sans-serif; font-size: 12px; fill: rgb(68, 68, 68); fill-opacity: 1; white-space: pre;">400</text></g><g class="xtick"><text text-anchor="middle" x="0" y="403" transform="translate(370.51,0)" style="font-family: 'Open Sans', verdana, arial, sans-serif; font-size: 12px; fill: rgb(68, 68, 68); fill-opacity: 1; white-space: pre;">600</text></g><g class="xtick"><text text-anchor="middle" x="0" y="403" transform="translate(474.01,0)" style="font-family: 'Open Sans', verdana, arial, sans-serif; font-size: 12px; fill: rgb(68, 68, 68); fill-opacity: 1; white-space: pre;">800</text></g></g><g class="yaxislayer-above"><g class="ytick"><text text-anchor="end" x="59" y="4.199999999999999" transform="translate(0,373.52)" style="font-family: 'Open Sans', verdana, arial, sans-serif; font-size: 12px; fill: rgb(68, 68, 68); fill-opacity: 1; white-space: pre;">0</text></g><g class="ytick"><text text-anchor="end" x="59" y="4.199999999999999" transform="translate(0,316.77)" style="font-family: 'Open Sans', verdana, arial, sans-serif; font-size: 12px; fill: rgb(68, 68, 68); fill-opacity: 1; white-space: pre;">0.5</text></g><g class="ytick"><text text-anchor="end" x="59" y="4.199999999999999" transform="translate(0,260.03)" style="font-family: 'Open Sans', verdana, arial, sans-serif; font-size: 12px; fill: rgb(68, 68, 68); fill-opacity: 1; white-space: pre;">1</text></g><g class="ytick"><text text-anchor="end" x="59" y="4.199999999999999" transform="translate(0,203.28)" style="font-family: 'Open Sans', verdana, arial, sans-serif; font-size: 12px; fill: rgb(68, 68, 68); fill-opacity: 1; white-space: pre;">1.5</text></g><g class="ytick"><text text-anchor="end" x="59" y="4.199999999999999" transform="translate(0,146.54000000000002)" style="font-family: 'Open Sans', verdana, arial, sans-serif; font-size: 12px; fill: rgb(68, 68, 68); fill-opacity: 1; white-space: pre;">2</text></g><g class="ytick"><text text-anchor="end" x="59" y="4.199999999999999" transform="translate(0,89.78999999999999)" style="font-family: 'Open Sans', verdana, arial, sans-serif; font-size: 12px; fill: rgb(68, 68, 68); fill-opacity: 1; white-space: pre;">2.5</text></g></g><g class="overaxes-above"/></g></g><g class="polarlayer"/><g class="ternarylayer"/><g class="geolayer"/><g class="funnelarealayer"/><g class="pielayer"/><g class="treemaplayer"/><g class="sunburstlayer"/><g class="glimages"/><defs id="topdefs-c6ad1a"><g class="clips"/><clipPath id="legendc6ad1a"><rect width="101" height="67" x="0" y="0"/></clipPath></defs><g class="layer-above"><g class="imagelayer"/><g class="shapelayer"/></g><g class="infolayer"><g class="legend" pointer-events="all" transform="translate(587.34, 60)"><rect class="bg" shape-rendering="crispEdges" width="101" height="67" x="0" y="0" style="stroke: rgb(68, 68, 68); stroke-opacity: 1; fill: rgb(255, 255, 255); fill-opacity: 1; stroke-width: 0px;"/><g class="scrollbox" transform="translate(0, 0)" clip-path="url('#legendc6ad1a')"><g class="groups"><g class="traces" transform="translate(0, 14.5)" style="opacity: 1;"><text class="legendtext" text-anchor="start" x="40" y="4.680000000000001" style="font-family: 'Open Sans', verdana, arial, sans-serif; font-size: 12px; fill: rgb(68, 68, 68); fill-opacity: 1; white-space: pre;">train loss</text><g class="layers" style="opacity: 1;"><g class="legendfill"/><g class="legendlines"><path class="js-line" d="M5,0h30" style="fill: none; stroke: rgb(31, 119, 180); stroke-opacity: 1; stroke-width: 2px;"/></g><g class="legendsymbols"><g class="legendpoints"/></g></g><rect class="legendtoggle" pointer-events="all" x="0" y="-9.5" width="95.78125" height="19" style="cursor: pointer; fill: rgb(0, 0, 0); fill-opacity: 0;"/></g><g class="traces" transform="translate(0, 33.5)" style="opacity: 1;"><text class="legendtext" text-anchor="start" x="40" y="4.680000000000001" style="font-family: 'Open Sans', verdana, arial, sans-serif; font-size: 12px; fill: rgb(68, 68, 68); fill-opacity: 1; white-space: pre;">test loss</text><g class="layers" style="opacity: 1;"><g class="legendfill"/><g class="legendlines"><path class="js-line" d="M5,0h30" style="fill: none; stroke: rgb(255, 127, 14); stroke-opacity: 1; stroke-width: 2px;"/></g><g class="legendsymbols"><g class="legendpoints"/></g></g><rect class="legendtoggle" pointer-events="all" x="0" y="-9.5" width="95.78125" height="19" style="cursor: pointer; fill: rgb(0, 0, 0); fill-opacity: 0;"/></g><g class="traces" transform="translate(0, 52.5)" style="opacity: 1;"><text class="legendtext" text-anchor="start" x="40" y="4.680000000000001" style="font-family: 'Open Sans', verdana, arial, sans-serif; font-size: 12px; fill: rgb(68, 68, 68); fill-opacity: 1; white-space: pre;">acc</text><g class="layers" style="opacity: 1;"><g class="legendfill"/><g class="legendlines"><path class="js-line" d="M5,0h30" style="fill: none; stroke: rgb(44, 160, 44); stroke-opacity: 1; stroke-width: 2px;"/></g><g class="legendsymbols"><g class="legendpoints"/></g></g><rect class="legendtoggle" pointer-events="all" x="0" y="-9.5" width="95.78125" height="19" style="cursor: pointer; fill: rgb(0, 0, 0); fill-opacity: 0;"/></g></g></g><rect class="scrollbar" rx="20" ry="3" width="0" height="0" x="0" y="0" style="fill: rgb(128, 139, 164); fill-opacity: 1;"/></g><g class="g-gtitle"><text class="gtitle" x="350" y="30" text-anchor="middle" dy="0em" style="font-family: 'Open Sans', verdana, arial, sans-serif; font-size: 17px; fill: rgb(68, 68, 68); opacity: 1; font-weight: normal; white-space: pre;">SAMPLE_PER_CLASS_50</text></g><g class="g-xtitle"/><g class="g-ytitle"/></g></svg>