<svg class="main-svg" xmlns="http://www.w3.org/2000/svg" xmlns:xlink="http://www.w3.org/1999/xlink" width="700" height="450" style="" viewBox="0 0 700 450"><rect x="0" y="0" width="700" height="450" style="fill: rgb(255, 255, 255); fill-opacity: 1;"/><defs id="defs-33586c"><g class="clips"><clipPath id="clip33586cxyplot" class="plotclip"><rect width="517" height="330"/></clipPath><clipPath class="axesclip" id="clip33586cx"><rect x="60" y="0" width="517" height="450"/></clipPath><clipPath class="axesclip" id="clip33586cy"><rect x="0" y="60" width="700" height="330"/></clipPath><clipPath class="axesclip" id="clip33586cxy"><rect x="60" y="60" width="517" height="330"/></clipPath></g><g class="gradients"/></defs><g class="bglayer"/><g class="layer-below"><g class="imagelayer"/><g class="shapelayer"/></g><g class="cartesianlayer"><g class="subplot xy"><g class="layer-subplot"><g class="shapelayer"/><g class="imagelayer"/></g><g class="gridlayer"><g class="x"><path class="xgrid crisp" transform="translate(163.5,0)" d="M0,60v330" style="stroke: rgb(238, 238, 238); stroke-opacity: 1; stroke-width: 1px;"/><path class="xgrid crisp" transform="translate(267.01,0)" d="M0,60v330" style="stroke: rgb(238, 238, 238); stroke-opacity: 1; stroke-width: 1px;"/><path class="xgrid crisp" transform="translate(370.51,0)" d="M0,60v330" style="stroke: rgb(238, 238, 238); stroke-opacity: 1; stroke-width: 1px;"/><path class="xgrid crisp" transform="translate(474.01,0)" d="M0,60v330" style="stroke: rgb(238, 238, 238); stroke-opacity: 1; stroke-width: 1px;"/></g><g class="y"><path class="ygrid crisp" transform="translate(0,302.27)" d="M60,0h517" style="stroke: rgb(238, 238, 238); stroke-opacity: 1; stroke-width: 1px;"/><path class="ygrid crisp" transform="translate(0,231.03)" d="M60,0h517" style="stroke: rgb(238, 238, 238); stroke-opacity: 1; stroke-width: 1px;"/><path class="ygrid crisp" transform="translate(0,159.8)" d="M60,0h517" style="stroke: rgb(238, 238, 238); stroke-opacity: 1; stroke-width: 1px;"/><path class="ygrid crisp" transform="translate(0,88.56)" d="M60,0h517" style="stroke: rgb(238, 238, 238); stroke-opacity: 1; stroke-width: 1px;"/></g></g><g class="zerolinelayer"><path class="xzl zl crisp" transform="translate(60,0)" d="M0,60v330" style="stroke: rgb(68, 68, 68); stroke-opacity: 1; stroke-width: 1px;"/><path class="yzl zl crisp" transform="translate(0,373.5)" d="M60,0h517" style="stroke: rgb(68, 68, 68); stroke-opacity: 1; stroke-width: 1px;"/></g><path class="xlines-below"/><path class="ylines-below"/><g class="overlines-below"/><g class="xaxislayer-below"/><g class="yaxislayer-below"/><g class="overaxes-below"/><g class="plot" transform="translate(60, 60)" clip-path="url('#clip33586cxyplot')"><g class="scatterlayer mlayer"><g class="trace scatter trace6333d3" style="stroke-miterlimit: 2; opacity: 1;"><g class="fills"/><g class="errorbars"/><g class="lines"><path class="js-line" d="M0,16.5L1.55,186.74L2.07,203.36L4.14,246.32L4.66,252.77L6.21,268.63L6.73,271.06L9.32,282.67L9.83,285.17L10.35,288.5L10.87,287.89L11.39,288.94L11.9,290.31L12.42,289.76L12.94,293.87L13.46,293.68L13.97,295.42L14.49,295.81L15.01,297.69L15.53,296.85L16.04,299.04L17.08,299.16L17.6,301.04L18.63,303.01L19.15,303.1L20.7,303.97L21.22,305.81L22.25,304.66L22.77,305.06L23.29,306.4L23.81,305.63L24.32,307.32L24.84,306.94L25.36,304.75L26.39,306.34L26.91,305.84L27.95,308.66L28.46,308.22L29.5,306.53L30.02,308.24L31.05,310.13L31.57,310.15L33.12,310.34L33.64,310.32L34.67,310.42L35.19,309.89L36.74,310.79L37.26,310.7L38.3,310.78L38.81,310.9L39.33,309.83L39.85,310.81L40.88,311.27L41.4,311.21L41.92,309.6L42.44,310.66L42.95,311.6L43.47,310.99L43.99,311.35L45.02,311.51L45.54,310.25L46.06,311.11L46.58,310.69L47.09,310.63L48.13,311.25L48.65,310.71L49.16,310.32L49.68,306.42L50.2,310.76L50.72,308.49L53.3,312.72L53.82,312.01L54.34,311.5L54.86,312.21L55.89,312.22L56.41,311.75L57.44,312.05L57.96,312.28L59.51,311.95L60.03,311.42L61.07,311.79L61.58,310.24L62.1,309.01L62.62,310.61L63.65,312.51L64.17,310.66L64.69,312.45L65.21,312.11L65.72,312.6L67.79,312.52L68.31,311.37L68.83,310.94L69.35,312.19L69.86,311.91L70.38,312.8L73.49,311.46L74.01,312.74L75.56,312.44L76.08,312.73L77.11,312.89L77.63,312.58L79.18,312.38L79.7,311.95L81.77,312.92L82.29,312.78L84.36,311.2L84.87,312.72L89.01,312.23L89.53,312.04L91.6,313.08L92.12,313.14L93.67,312.11L94.19,312.54L96.78,313.04L97.29,313.2L98.33,312.2L98.85,312.73L99.88,312.57L100.4,313.21L101.95,312.88L102.47,313.08L103.5,313.02L104.02,312.5L104.54,312.14L105.06,312.78L106.61,313.24L107.13,313.28L109.2,312.87L109.71,313.21L116.44,313.23L116.96,312.46L118.51,313.28L119.03,313.09L121.62,313.33L122.13,312.78L123.69,313.2L124.2,313.01L126.79,312.99L127.31,312.54L128.34,312.95L128.86,312.98L130.93,311.7L131.45,312.38L131.97,312.84L132.48,311L133.52,313.23L134.04,313.13L136.11,313.18L136.62,311.95L137.66,312.97L138.18,313.02L139.21,312.71L139.73,313.3L144.39,313.28L144.9,312.95L145.42,311.1L145.94,312.82L148.01,313.33L148.53,313.07L149.56,313.21L150.08,312.14L151.12,313.39L151.63,313.37L152.15,311.1L152.67,312.74L153.19,312.08L153.7,313.22L156.29,313.43L156.81,313.08L158.88,313.29L159.4,313.39L160.95,313.28L161.47,312.28L163.02,313.26L163.54,313.19L167.68,313.26L168.19,313.4L171.3,312.93L171.82,312.78L173.37,313.37L173.89,312.24L175.44,312.39L175.96,313.28L176.99,313.15L177.51,313.23L180.61,313.35L181.13,312.91L183.2,313.43L183.72,313.4L185.79,312.88L186.31,313.42L190.96,312.68L191.48,313.4L517,313.5" style="vector-effect: non-scaling-stroke; fill: none; stroke: rgb(31, 119, 180); stroke-opacity: 1; stroke-width: 2px; opacity: 1;"/></g><g class="points"/><g class="text"/></g><g class="trace scatter trace7e3ea5" style="stroke-miterlimit: 2; opacity: 1;"><g class="fills"/><g class="errorbars"/><g class="lines"><path class="js-line" d="M0,52.3L1.04,176.28L1.55,196.34L3.62,235.51L4.14,231.32L6.21,257.41L6.73,253.32L7.25,253.88L7.76,260.78L8.28,256.3L8.8,260.39L9.32,263.19L9.83,257.16L10.35,254.62L10.87,257.34L11.39,265.5L11.9,256.81L12.94,264.62L13.46,266.28L13.97,265.63L14.49,269.48L15.01,264.81L15.53,267.45L16.04,263.04L16.56,268.9L17.08,264.76L17.6,267.41L19.15,266.3L19.67,268.02L21.74,257.11L22.25,262.23L22.77,263.62L23.29,262.24L24.32,270.46L24.84,262.9L25.36,262.11L25.88,263.87L26.39,268.25L26.91,268.04L27.43,266.45L27.95,268.55L28.46,257.54L30.53,266.37L31.05,263.97L31.57,264.83L32.09,262.73L32.6,263.11L33.12,260.15L33.64,262.81L34.16,261.84L34.67,261.72L36.74,264.86L37.26,263.4L37.78,251.63L38.3,257.23L38.81,257.16L39.33,254.74L40.37,262.61L40.88,259.29L41.4,258.06L41.92,258.36L42.44,258.44L42.95,261.39L43.47,260.99L43.99,261.86L44.51,259.15L45.02,259.78L45.54,259.33L46.58,258.66L47.09,256.74L47.61,256.58L48.13,259.55L48.65,251.72L49.16,254.64L49.68,254.79L50.72,257.43L51.23,254.29L51.75,261.12L52.27,258.53L52.79,259.25L53.82,260.21L54.34,260.27L55.37,256.19L55.89,263.25L56.93,256.29L57.44,256.27L57.96,258.74L58.48,258.6L59,253.19L59.51,256.21L60.03,254.61L60.55,258.24L61.07,254.16L61.58,255.31L62.1,258.55L62.62,257.78L63.14,258.29L63.65,255.38L64.17,258.17L64.69,257.36L65.21,257.91L65.72,260.62L66.24,257.82L67.28,260.96L67.79,259.01L68.31,251.13L68.83,255.17L69.86,260.36L70.38,258.08L70.9,255.72L71.42,258.2L71.93,259.27L72.45,256.41L72.97,256.07L73.49,256.97L74.01,258.12L74.52,256.55L75.04,260.14L75.56,249.68L76.08,259.18L76.59,256.96L77.11,258.34L77.63,261.02L78.15,256.74L78.66,245.81L79.18,257.38L80.22,258.08L80.73,256.19L81.77,255.47L82.29,257.26L82.8,254.77L83.32,258.06L83.84,256.4L84.36,257.06L84.87,257.3L85.39,250.39L85.91,254.37L86.43,253.2L86.94,256.73L87.98,254.32L88.5,256.41L89.01,251.79L89.53,252.92L90.05,257.17L90.57,258.38L91.08,254.87L91.6,252.81L92.12,256.59L92.64,253.69L93.15,253.97L93.67,255.43L94.19,252.54L94.71,255.49L95.22,255.91L95.74,252.71L96.78,254.84L97.29,254.37L97.81,253.84L98.33,254.53L98.85,239.48L99.36,253.32L99.88,251.41L100.4,252.93L100.92,254.63L101.43,250.02L102.47,254.59L102.99,252.12L103.5,254.78L104.02,245.07L104.54,252.83L105.06,252.09L105.57,254.76L106.09,254.72L106.61,252.35L107.13,252.14L107.64,250.13L108.68,250.46L109.2,253.13L109.71,250.93L110.23,251.66L110.75,250.56L111.27,248.34L111.78,248.9L112.3,251.51L113.34,251.56L113.85,252.64L114.37,248.47L114.89,253.78L115.41,252.14L115.92,254.56L116.44,253.47L116.96,242.08L117.99,248.75L118.51,248.58L119.03,248.51L119.55,250.27L120.06,249.31L120.58,249.63L121.1,250.56L121.62,251.27L122.13,244.06L122.65,252.07L123.17,244.9L124.72,250.26L125.24,246.92L125.76,251.8L126.27,246.77L126.79,248.4L127.31,247.31L127.83,245.34L128.34,252.46L128.86,245.89L129.38,246.47L129.9,250.49L130.93,241.98L131.45,254.96L132.48,252.78L133,255.07L134.04,254.48L134.55,253.81L135.07,251.92L135.59,253.45L136.11,253.57L136.62,255.01L138.18,250.85L138.69,252L139.73,250.95L140.25,251.88L141.8,253.62L142.32,252.68L142.83,252.5L143.35,245.34L144.39,252.62L144.9,250.56L145.42,249.42L145.94,250.63L146.97,253.81L147.49,253.57L148.01,252.61L148.53,252.06L149.05,253.3L150.08,254.12L150.6,252.86L151.63,254.12L152.15,252.81L152.67,252.62L153.19,253.43L153.7,256.27L154.22,256.11L154.74,255.5L155.77,255.55L156.29,254.1L156.81,252.65L157.33,256.21L158.36,250.08L158.88,253.55L159.91,256.68L160.43,255.68L161.47,255.82L161.98,254.55L162.5,254.29L163.02,251.71L163.54,249.93L164.05,251.99L164.57,252.28L165.09,250.09L165.61,247.86L166.12,248.61L166.64,250.93L167.16,244.84L167.68,251.22L168.19,251.16L168.71,249.75L169.23,244.91L169.75,246.39L170.26,249.15L170.78,244.52L171.3,247.54L171.82,245.11L172.33,246.77L172.85,247.54L173.37,246.81L173.89,247L174.4,244.56L174.92,242.94L175.44,246.08L175.96,248.32L176.47,244.99L176.99,245.57L177.51,249.6L178.54,245.21L179.06,245.38L179.58,249.69L180.1,250.16L180.61,249.2L181.13,247.89L181.65,248.67L182.17,247.63L182.68,250.29L183.2,251.2L183.72,250.57L186.82,249.45L187.34,247.13L188.89,249.14L189.41,248.78L189.93,244.66L190.45,234.03L191.48,248.6L192,248.61L192.52,244.4L193.03,246.8L194.07,250.52L194.59,247.42L195.1,248.03L195.62,246.65L196.14,248.24L196.66,247.9L197.17,248.74L198.73,244.93L199.24,246.01L200.8,244.82L201.31,246.96L201.83,245.91L202.35,247.13L202.87,244.13L203.38,244.56L203.9,246.17L204.42,245.86L204.94,247.4L205.45,243.17L205.97,244.39L206.49,241.98L207.52,245.28L208.04,243.8L208.56,241.75L209.08,242.1L209.59,244.45L210.63,241.98L211.15,243.87L211.66,246.23L212.18,245.31L212.7,246.66L213.22,244.95L213.73,245.41L214.25,247.35L215.29,239.4L215.8,241.06L216.32,245.14L216.84,244.15L217.36,244.55L218.39,244.65L218.91,243.49L219.43,243.3L219.94,238.01L220.98,242.97L221.5,242.94L222.53,244L223.05,240.95L224.09,246.5L224.6,247.07L225.12,248.31L225.64,245.63L226.16,245.36L226.67,246.67L227.71,242.14L228.23,239.34L230.3,246.2L230.81,239.38L232.88,244.95L233.4,246.57L233.92,246.04L234.44,246.93L234.95,248L235.47,247.33L235.99,247.81L236.51,246.79L237.54,245.69L238.06,247.02L238.58,246.77L239.09,245.56L240.13,243.68L240.65,245.31L241.68,247.47L242.2,246.8L242.72,238.14L243.23,242.36L243.75,242.45L244.27,241.19L244.79,245.28L245.3,236.26L246.34,239.34L246.86,232.8L248.41,246.78L248.93,246.91L249.44,246.95L249.96,247.87L251,245.13L251.51,247.8L252.55,245.6L253.07,248.03L253.58,246.75L254.1,249.12L254.62,250.16L255.14,248.38L255.65,248.8L256.17,247.64L256.69,248.31L257.21,247.41L257.72,246.88L258.24,247.94L258.76,247.22L259.28,244.44L260.31,245.64L260.83,249.8L261.86,242.1L262.38,242.74L262.9,242.61L263.93,244L264.45,243.51L265.49,239.55L266,241.67L266.52,241.99L267.04,244.37L268.59,246.17L269.11,242.43L270.14,244.05L270.66,243.44L271.18,244.56L271.7,244.16L272.21,243.53L273.25,245.73L273.77,241.6L275.84,243.17L276.35,243.67L277.39,244.26L277.91,243.68L278.94,243.16L279.46,240.29L280.49,242.98L281.01,243.1L282.05,243.16L282.56,238.61L283.08,237.8L283.6,238.9L284.12,239.38L284.63,242.38L285.15,243.2L285.67,241.53L286.19,239.18L286.7,239.69L287.22,244.67L288.26,245.36L288.77,242.89L289.29,240.97L289.81,244.47L290.33,244.19L290.84,241.88L291.88,241.59L292.4,242.44L294.47,244.56L294.98,242.84L295.5,240.52L296.02,240.88L296.54,240.97L297.06,241.16L297.57,240.27L298.09,242.19L298.61,241.2L299.13,241.88L299.64,240.5L300.16,240.12L300.68,241.74L301.71,243.31L302.23,241.31L302.75,243.16L303.27,242.19L304.3,242.63L304.82,243.07L305.34,243.36L305.85,241.61L306.89,242.37L307.41,241.12L308.44,241.82L308.96,238.76L311.55,241.05L312.06,239.55L313.1,241.67L313.62,241.44L314.13,240.16L314.65,241.21L315.17,241.91L315.69,240.91L316.72,240.34L317.24,240.85L317.76,240.32L318.27,238.23L318.79,239.66L319.31,239.2L319.83,240.27L320.86,240.49L321.38,241.52L322.41,242.44L322.93,240.06L323.45,242.36L323.97,239.45L324.48,241.6L325,240.58L325.52,240.73L326.55,238.91L327.07,238.91L327.59,239.33L328.11,238.49L329.66,239.52L330.18,238.56L330.69,238.89L331.21,241.74L332.25,242.3L332.76,241.07L333.28,242.59L333.8,239.88L334.32,241.5L334.83,241.25L335.35,235.12L336.39,240.64L336.9,240.36L338.46,240.33L338.97,240.03L340.53,242.1L341.04,242.15L342.6,241.15L343.11,241.36L343.63,241.31L344.15,242.91L346.22,241.63L346.74,241.68L347.25,241.77L347.77,240.99L348.81,242.55L349.32,240.27L349.84,239.85L350.36,242.38L351.39,230.3L351.91,246.76L352.95,244.34L353.46,244.9L354.5,245.47L355.02,244.58L356.57,245.01L357.09,243.88L357.6,244.81L358.12,244.01L359.67,242.88L360.19,240.33L361.74,242.9L362.26,243L363.3,242.81L363.81,241.85L364.33,240.62L364.85,241.29L365.37,240.69L366.4,240.17L366.92,240.6L367.44,239.72L367.95,240.17L368.47,241.14L369.51,242.39L370.03,241.69L371.58,242.57L372.1,241.28L373.13,241.33L373.65,241.92L374.68,241.76L375.2,241.57L375.72,241.36L376.24,242.06L377.79,242.4L378.31,241.41L378.82,241.18L379.34,239.92L382.96,240.54L383.48,239.71L384.52,239.6L385.03,241.14L385.55,241L386.07,238.2L386.59,241.24L387.1,240.82L387.62,241.28L388.14,240.11L388.66,240.67L389.17,240.84L389.69,241.16L390.21,233.51L391.24,235.67L391.76,235.12L392.28,244.57L392.8,244.31L393.31,243.5L393.83,244.53L394.35,243.98L394.87,243.5L395.9,240.55L396.42,240.58L396.94,240.29L397.45,237.54L398.49,240.36L399.01,240.47L400.04,240.76L400.56,230.1L401.59,235.81L402.11,235.79L403.15,236.2L403.66,230.67L404.18,229.77L404.7,232.14L405.73,231.38L406.25,232.43L407.8,232.28L408.32,232.98L410.91,234.01L411.43,234.3L413.5,232.45L414.01,232.81L416.6,233.99L417.12,233.4L419.19,234.11L419.71,231.67L422.29,232.51L422.81,231.63L423.85,232.4L424.36,231.57L425.4,231.62L425.92,230.32L426.95,232.13L427.47,232.13L429.02,231.1L429.54,229.75L432.13,229.89L432.64,229.45L433.16,229.68L433.68,230.81L434.2,230.19L434.71,231.53L436.78,231.81L437.3,231.39L438.85,231.17L439.37,227.87L440.41,226.54L440.92,228.31L441.96,228.11L442.48,227.77L444.55,229.49L445.07,229.23L446.62,229.58L447.14,226.93L448.69,230.24L449.21,230.26L451.79,229.59L452.31,230.48L452.83,230.81L453.35,230.15L454.9,228.98L455.42,229.12L456.45,227.56L456.97,228.4L458,229.71L458.52,229.73L459.04,230.24L459.56,229.28L461.63,230.63L462.14,230.79L464.21,230.2L464.73,227.41L466.28,228.1L466.8,228.61L470.94,229.99L471.46,230.25L473.01,231.65L473.53,231.21L475.08,231.32L475.6,231.54L476.63,231.67L477.15,232.74L477.67,232.91L478.19,231.52L479.22,231.28L479.74,230.55L480.77,229.72L481.29,227.3L481.81,226.93L482.33,228.11L483.36,228.14L483.88,229.27L485.95,229.88L486.47,229.43L487.5,229.93L488.02,229.97L489.57,230.12L490.09,230.35L491.64,231.02L492.16,232.11L493.71,232.63L494.23,231.93L495.26,230.5L495.78,227.43L496.3,228.81L496.82,228.12L497.33,227.67L497.85,226.52L498.37,227.23L499.92,227.71L500.44,229.35L502.51,229.28L503.03,228.33L504.06,225.63L504.58,225.91L506.13,227.7L506.65,225.62L507.17,225.82L507.68,224.09L508.2,224.23L508.72,226.39L509.24,227.13L509.75,229.25L511.82,227.74L512.34,228.41L512.86,228.3L513.38,230.05L515.45,229.64L515.96,228.44L517,228.89" style="vector-effect: non-scaling-stroke; fill: none; stroke: rgb(255, 127, 14); stroke-opacity: 1; stroke-width: 2px; opacity: 1;"/></g><g class="points"/><g class="text"/></g><g class="trace scatter trace8df04f" style="stroke-miterlimit: 2; opacity: 1;"><g class="fills"/><g class="errorbars"/><g class="lines"><path class="js-line" d="M0,261.91L2.07,218.79L2.59,209.83L3.11,210.48L3.62,203.17L4.14,205.31L4.66,200.63L6.21,193.31L6.73,193.92L7.25,193.7L7.76,189.68L8.28,192.18L8.8,190.14L9.32,188.96L9.83,191.48L10.35,191.8L10.87,189.75L11.39,187.72L11.9,189.91L12.42,186.9L12.94,187.1L13.46,185.47L13.97,186.2L14.49,185.38L15.01,187.05L15.53,185.07L16.04,186.93L16.56,185.45L17.08,186.05L17.6,184.42L19.15,184.55L19.67,183.69L20.18,185.18L20.7,184.85L21.22,184.97L21.74,186.1L22.25,185.09L24.32,182.39L24.84,184.21L25.36,185.24L25.88,183.92L26.91,183.12L27.43,183.26L27.95,182.65L28.46,185.06L29.5,184.77L30.02,183.15L31.57,182.53L32.09,183.19L34.16,182.76L34.67,183.12L35.71,182.8L36.23,182.72L37.26,182.46L37.78,183.86L38.81,183.14L39.33,183.25L39.85,183.35L40.37,182.18L41.4,183.15L41.92,183.15L42.44,183.25L42.95,182.35L44.51,182.84L45.02,182.52L46.58,182.75L47.09,182.65L48.13,182.19L48.65,184.22L50.2,182.89L50.72,183.04L51.23,183.72L51.75,182.34L52.27,182.97L52.79,182.24L54.34,182.08L54.86,182.57L55.89,181.71L56.41,182.46L58.48,181.9L59,182.89L60.55,182.22L61.07,183.21L65.21,182.34L65.72,181.66L66.76,181.62L67.28,181.56L67.79,181.91L68.31,183.4L69.86,181.94L70.38,182.18L71.42,181.99L71.93,181.93L74.01,182.16L74.52,181.84L75.56,182.76L76.08,181.8L77.11,181.73L77.63,181.14L78.15,181.75L78.66,184.03L79.7,181.88L80.22,181.89L81.77,181.95L82.29,181.73L82.8,182.1L83.32,181.43L84.36,181.61L84.87,181.52L86.43,182.15L86.94,181.76L87.46,181.42L87.98,182.19L88.5,181.69L89.01,182.56L90.05,181.86L90.57,181.32L91.6,181.63L92.12,181.33L93.15,182L93.67,181.63L94.19,182.23L94.71,181.52L98.33,181.69L98.85,182.36L100.4,181.73L100.92,181.5L101.95,181.94L102.47,181.44L103.5,181.29L104.02,182.85L105.06,181.93L105.57,181.47L107.13,181.7L107.64,181.97L109.71,181.75L110.23,181.43L112.82,181.49L113.34,181.37L114.89,181.52L115.41,181.51L116.44,181.15L116.96,182.65L118.51,181.97L119.03,181.84L121.62,181.28L122.13,181.85L122.65,181.02L123.17,181.56L123.69,181.44L125.24,182.04L125.76,181.26L126.79,181.66L127.31,181.79L128.86,181.85L129.38,182.03L129.9,181.29L130.41,182L130.93,182.14L131.45,181.16L133,181.35L133.52,181.2L135.59,181.54L136.11,181.68L138.69,181.51L139.21,181.54L141.28,181.27L141.8,181.08L143.35,182.01L143.87,181.17L145.94,181.52L146.46,181.4L148.01,181.54L148.53,181.64L150.08,181.17L150.6,181.53L152.15,181.57L152.67,181.6L154.74,181.14L155.26,181.19L157.84,181.14L158.36,181.41L161.47,181.11L161.98,181.29L167.16,182.06L167.68,181.37L168.71,181.27L169.23,182L171.82,181.82L172.33,181.93L173.89,181.35L174.4,181.81L175.44,181.82L175.96,181.53L176.99,182.01L177.51,181.3L178.54,181.52L179.06,181.39L180.61,181.34L181.13,181.5L183.2,181.02L183.72,181.1L186.82,181.26L187.34,181.6L189.41,181.19L189.93,181.96L190.45,183.64L190.96,181.54L193.03,181.8L193.55,181.2L195.1,181.59L195.62,181.76L204.94,181.15L205.45,181.88L207.01,181.41L207.52,181.38L209.08,181.67L209.59,181.37L211.15,181.58L211.66,181.47L214.25,181.12L214.77,181.69L215.8,181.94L216.32,181.29L220.46,181.64L220.98,181.43L227.19,181.23L227.71,181.58L228.74,181.65L229.26,181.46L230.3,181.13L230.81,181.67L235.99,180.96L236.51,180.99L242.2,181.22L242.72,182.26L243.75,181.6L244.27,181.91L245.3,181.56L245.82,181.5L249.44,181.37L249.96,181.11L254.1,180.91L254.62,180.73L256.69,180.91L257.21,180.98L260.31,180.96L260.83,180.95L262.9,181.17L263.42,180.98L278.94,181.08L279.46,181.42L282.05,181L282.56,181.41L284.12,181.74L284.63,181.29L285.67,181.31L286.19,181.76L288.26,181L288.77,181.16L289.81,180.88L290.33,180.95L291.88,181.28L292.4,181.1L294.98,181.02L295.5,181.49L305.34,180.98L305.85,181.06L308.44,181L308.96,181.25L313.62,181.28L314.13,181.61L316.2,181.32L316.72,181.27L333.28,181.16L333.8,181.26L334.83,181.01L335.35,181.53L337.42,181.01L337.94,181.06L385.55,180.74L386.07,181.3L387.62,180.83L388.14,180.97L394.87,180.65L395.38,180.88L406.77,181.23L407.29,181.16L410.39,181.11L410.91,181.11L417.12,181.08L417.64,181.09L436.78,181.05L437.3,181.15L445.58,181.18L446.1,181.18L449.72,181.14L450.24,181.18L507.17,181.28L507.68,181.53L517,181.14" style="vector-effect: non-scaling-stroke; fill: none; stroke: rgb(44, 160, 44); stroke-opacity: 1; stroke-width: 2px; opacity: 1;"/></g><g class="points"/><g class="text"/></g></g></g><g class="overplot"/><path class="xlines-above crisp" d="M0,0" style="fill: none;"/><path class="ylines-above crisp" d="M0,0" style="fill: none;"/><g class="overlines-above"/><g class="xaxislayer-above"><g class="xtick"><text text-anchor="middle" x="0" y="403" transform="translate(60,0)" style="font-family: 'Open Sans', verdana, arial, sans-serif; font-size: 12px; fill: rgb(68, 68, 68); fill-opacity: 1; white-space: pre;">0</text></g><g class="xtick"><text text-anchor="middle" x="0" y="403" transform="translate(163.5,0)" style="font-family: 'Open Sans', verdana, arial, sans-serif; font-size: 12px; fill: rgb(68, 68, 68); fill-opacity: 1; white-space: pre;">200</text></g><g class="xtick"><text text-anchor="middle" x="0" y="403" transform="translate(267.01,0)" style="font-family: 'Open Sans', verdana, arial, sans-serif; font-size: 12px; fill: rgb(68, 68, 68); fill-opacity: 1; white-space: pre;">400</text></g><g class="xtick"><text text-anchor="middle" x="0" y="403" transform="translate(370.51,0)" style="font-family: 'Open Sans', verdana, arial, sans-serif; font-size: 12px; fill: rgb(68, 68, 68); fill-opacity: 1; white-space: pre;">600</text></g><g class="xtick"><text text-anchor="middle" x="0" y="403" transform="translate(474.01,0)" style="font-family: 'Open Sans', verdana, arial, sans-serif; font-size: 12px; fill: rgb(68, 68, 68); fill-opacity: 1; white-space: pre;">800</text></g></g><g class="yaxislayer-above"><g class="ytick"><text text-anchor="end" x="59" y="4.199999999999999" transform="translate(0,373.5)" style="font-family: 'Open Sans', verdana, arial, sans-serif; font-size: 12px; fill: rgb(68, 68, 68); fill-opacity: 1; white-space: pre;">0</text></g><g class="ytick"><text text-anchor="end" x="59" y="4.199999999999999" transform="translate(0,302.27)" style="font-family: 'Open Sans', verdana, arial, sans-serif; font-size: 12px; fill: rgb(68, 68, 68); fill-opacity: 1; white-space: pre;">0.5</text></g><g class="ytick"><text text-anchor="end" x="59" y="4.199999999999999" transform="translate(0,231.03)" style="font-family: 'Open Sans', verdana, arial, sans-serif; font-size: 12px; fill: rgb(68, 68, 68); fill-opacity: 1; white-space: pre;">1</text></g><g class="ytick"><text text-anchor="end" x="59" y="4.199999999999999" transform="translate(0,159.8)" style="font-family: 'Open Sans', verdana, arial, sans-serif; font-size: 12px; fill: rgb(68, 68, 68); fill-opacity: 1; white-space: pre;">1.5</text></g><g class="ytick"><text text-anchor="end" x="59" y="4.199999999999999" transform="translate(0,88.56)" style="font-family: 'Open Sans', verdana, arial, sans-serif; font-size: 12px; fill: rgb(68, 68, 68); fill-opacity: 1; white-space: pre;">2</text></g></g><g class="overaxes-above"/></g></g><g class="polarlayer"/><g class="ternarylayer"/><g class="geolayer"/><g class="funnelarealayer"/><g class="pielayer"/><g class="treemaplayer"/><g class="sunburstlayer"/><g class="glimages"/><defs id="topdefs-33586c"><g class="clips"/><clipPath id="legend33586c"><rect width="101" height="67" x="0" y="0"/></clipPath></defs><g class="layer-above"><g class="imagelayer"/><g class="shapelayer"/></g><g class="infolayer"><g class="legend" pointer-events="all" transform="translate(587.34, 60)"><rect class="bg" shape-rendering="crispEdges" width="101" height="67" x="0" y="0" style="stroke: rgb(68, 68, 68); stroke-opacity: 1; fill: rgb(255, 255, 255); fill-opacity: 1; stroke-width: 0px;"/><g class="scrollbox" transform="translate(0, 0)" clip-path="url('#legend33586c')"><g class="groups"><g class="traces" transform="translate(0, 14.5)" style="opacity: 1;"><text class="legendtext" text-anchor="start" x="40" y="4.680000000000001" style="font-family: 'Open Sans', verdana, arial, sans-serif; font-size: 12px; fill: rgb(68, 68, 68); fill-opacity: 1; white-space: pre;">train loss</text><g class="layers" style="opacity: 1;"><g class="legendfill"/><g class="legendlines"><path class="js-line" d="M5,0h30" style="fill: none; stroke: rgb(31, 119, 180); stroke-opacity: 1; stroke-width: 2px;"/></g><g class="legendsymbols"><g class="legendpoints"/></g></g><rect class="legendtoggle" pointer-events="all" x="0" y="-9.5" width="95.78125" height="19" style="cursor: pointer; fill: rgb(0, 0, 0); fill-opacity: 0;"/></g><g class="traces" transform="translate(0, 33.5)" style="opacity: 1;"><text class="legendtext" text-anchor="start" x="40" y="4.680000000000001" style="font-family: 'Open Sans', verdana, arial, sans-serif; font-size: 12px; fill: rgb(68, 68, 68); fill-opacity: 1; white-space: pre;">test loss</text><g class="layers" style="opacity: 1;"><g class="legendfill"/><g class="legendlines"><path class="js-line" d="M5,0h30" style="fill: none; stroke: rgb(255, 127, 14); stroke-opacity: 1; stroke-width: 2px;"/></g><g class="legendsymbols"><g class="legendpoints"/></g></g><rect class="legendtoggle" pointer-events="all" x="0" y="-9.5" width="95.78125" height="19" style="cursor: pointer; fill: rgb(0, 0, 0); fill-opacity: 0;"/></g><g class="traces" transform="translate(0, 52.5)" style="opacity: 1;"><text class="legendtext" text-anchor="start" x="40" y="4.680000000000001" style="font-family: 'Open Sans', verdana, arial, sans-serif; font-size: 12px; fill: rgb(68, 68, 68); fill-opacity: 1; white-space: pre;">acc</text><g class="layers" style="opacity: 1;"><g class="legendfill"/><g class="legendlines"><path class="js-line" d="M5,0h30" style="fill: none; stroke: rgb(44, 160, 44); stroke-opacity: 1; stroke-width: 2px;"/></g><g class="legendsymbols"><g class="legendpoints"/></g></g><rect class="legendtoggle" pointer-events="all" x="0" y="-9.5" width="95.78125" height="19" style="cursor: pointer; fill: rgb(0, 0, 0); fill-opacity: 0;"/></g></g></g><rect class="scrollbar" rx="20" ry="3" width="0" height="0" x="0" y="0" style="fill: rgb(128, 139, 164); fill-opacity: 1;"/></g><g class="g-gtitle"><text class="gtitle" x="350" y="30" text-anchor="middle" dy="0em" style="font-family: 'Open Sans', verdana, arial, sans-serif; font-size: 17px; fill: rgb(68, 68, 68); opacity: 1; font-weight: normal; white-space: pre;">SAMPLE_PER_CLASS_50</text></g><g class="g-xtitle"/><g class="g-ytitle"/></g></svg>