<svg class="main-svg" xmlns="http://www.w3.org/2000/svg" xmlns:xlink="http://www.w3.org/1999/xlink" width="700" height="450" style="" viewBox="0 0 700 450"><rect x="0" y="0" width="700" height="450" style="fill: rgb(255, 255, 255); fill-opacity: 1;"/><defs id="defs-ed7608"><g class="clips"><clipPath id="cliped7608xyplot" class="plotclip"><rect width="517" height="330"/></clipPath><clipPath class="axesclip" id="cliped7608x"><rect x="60" y="0" width="517" height="450"/></clipPath><clipPath class="axesclip" id="cliped7608y"><rect x="0" y="60" width="700" height="330"/></clipPath><clipPath class="axesclip" id="cliped7608xy"><rect x="60" y="60" width="517" height="330"/></clipPath></g><g class="gradients"/></defs><g class="bglayer"/><g class="layer-below"><g class="imagelayer"/><g class="shapelayer"/></g><g class="cartesianlayer"><g class="subplot xy"><g class="layer-subplot"><g class="shapelayer"/><g class="imagelayer"/></g><g class="gridlayer"><g class="x"><path class="xgrid crisp" transform="translate(163.5,0)" d="M0,60v330" style="stroke: rgb(238, 238, 238); stroke-opacity: 1; stroke-width: 1px;"/><path class="xgrid crisp" transform="translate(267.01,0)" d="M0,60v330" style="stroke: rgb(238, 238, 238); stroke-opacity: 1; stroke-width: 1px;"/><path class="xgrid crisp" transform="translate(370.51,0)" d="M0,60v330" style="stroke: rgb(238, 238, 238); stroke-opacity: 1; stroke-width: 1px;"/><path class="xgrid crisp" transform="translate(474.01,0)" d="M0,60v330" style="stroke: rgb(238, 238, 238); stroke-opacity: 1; stroke-width: 1px;"/></g><g class="y"><path class="ygrid crisp" transform="translate(0,291.19)" d="M60,0h517" style="stroke: rgb(238, 238, 238); stroke-opacity: 1; stroke-width: 1px;"/><path class="ygrid crisp" transform="translate(0,208.88)" d="M60,0h517" style="stroke: rgb(238, 238, 238); stroke-opacity: 1; stroke-width: 1px;"/><path class="ygrid crisp" transform="translate(0,126.58)" d="M60,0h517" style="stroke: rgb(238, 238, 238); stroke-opacity: 1; stroke-width: 1px;"/></g></g><g class="zerolinelayer"><path class="xzl zl crisp" transform="translate(60,0)" d="M0,60v330" style="stroke: rgb(68, 68, 68); stroke-opacity: 1; stroke-width: 1px;"/><path class="yzl zl crisp" transform="translate(0,373.5)" d="M60,0h517" style="stroke: rgb(68, 68, 68); stroke-opacity: 1; stroke-width: 1px;"/></g><path class="xlines-below"/><path class="ylines-below"/><g class="overlines-below"/><g class="xaxislayer-below"/><g class="yaxislayer-below"/><g class="overaxes-below"/><g class="plot" transform="translate(60, 60)" clip-path="url('#cliped7608xyplot')"><g class="scatterlayer mlayer"><g class="trace scatter tracea5611d" style="stroke-miterlimit: 2; opacity: 1;"><g class="fills"/><g class="errorbars"/><g class="lines"><path class="js-line" d="M0,16.5L1.04,194.93L1.55,221.23L3.62,263.87L4.14,268.91L8.28,293.2L8.8,294.65L9.32,294.32L9.83,295.98L11.39,300.61L11.9,301.21L13.97,304.35L14.49,304.49L15.01,304.84L15.53,306.31L16.04,304.83L16.56,307.67L17.08,308.67L17.6,306.7L18.11,306.39L18.63,307.33L19.67,307.28L20.18,308.74L20.7,308.83L21.22,309.87L21.74,309.13L22.25,310.43L22.77,308.58L23.29,309.6L23.81,310.71L24.32,310.3L24.84,310.5L25.88,310.08L26.39,311.22L28.46,310.38L28.98,311.29L30.53,311.61L31.05,310.76L31.57,311.18L32.09,310.58L32.6,310.94L33.12,309.93L33.64,311.67L34.16,311.09L34.67,310.6L36.23,310.89L36.74,307.07L37.78,310.58L38.3,311.87L38.81,310.78L39.33,312.38L42.95,310.87L43.47,312.3L46.06,311.06L46.58,311.99L47.61,312.04L48.13,311.46L49.16,311.2L49.68,312.29L50.72,311.78L51.23,311.58L51.75,312.13L52.27,310.99L52.79,312.26L53.3,310.08L54.34,312.53L54.86,313.03L56.41,313.03L56.93,313.06L57.96,313.04L58.48,313.15L60.03,312.36L60.55,312.59L61.58,312.39L62.1,312.86L63.14,312.98L63.65,311.79L64.17,312.31L64.69,311.13L65.72,312.91L66.24,312.72L67.28,312.74L67.79,312.71L68.31,312.96L68.83,311.71L69.35,313L69.86,312.02L70.9,312.58L71.42,311.45L72.97,312.97L73.49,312.73L74.01,311.1L74.52,312.78L76.08,312.83L76.59,311.66L77.63,313.01L78.15,312.73L78.66,313.14L79.18,312.27L79.7,312.17L80.22,312.87L82.29,312.54L82.8,313.25L86.43,312.74L86.94,313.08L87.46,312.19L87.98,313.17L89.53,312.25L90.05,312.66L92.64,311.9L93.15,312.64L93.67,313.18L94.19,311.09L94.71,312.9L95.22,312.73L95.74,312.6L96.78,311.31L97.29,312.85L98.85,312.96L99.36,312.1L100.92,313.18L101.43,313.3L108.68,313.09L109.2,312.86L111.27,313.42L111.78,313.19L114.89,312.71L115.41,313.33L117.48,312.99L117.99,312.72L119.03,313.16L119.55,312.74L120.58,312.71L121.1,313.43L124.72,312.86L125.24,313.25L126.79,312.88L127.31,313.3L129.38,313.15L129.9,313.09L133,313.37L133.52,312.61L134.55,313.3L135.07,313.31L135.59,312.46L136.11,313.15L139.73,313.19L140.25,313.36L143.87,313.25L144.39,312.84L144.9,312.32L145.42,313.36L149.56,313.37L150.08,312.67L151.63,312.53L152.15,313.33L155.77,313.09L156.29,313.34L175.44,313.33L175.96,312.6L177.51,313.44L178.03,313.48L179.58,313.43L180.1,312.69L181.65,313.48L182.17,313.45L185.27,313.47L185.79,313.48L188.38,313.27L188.89,313.47L190.96,312.9L191.48,313.47L205.97,313.47L206.49,312.62L207.52,313.26L208.04,313.45L218.91,313.44L219.43,313.5L236.51,313.46L237.02,313.47L242.2,313.37L242.72,313.49L517,313.5" style="vector-effect: non-scaling-stroke; fill: none; stroke: rgb(31, 119, 180); stroke-opacity: 1; stroke-width: 2px; opacity: 1;"/></g><g class="points"/><g class="text"/></g><g class="trace scatter trace3d44cb" style="stroke-miterlimit: 2; opacity: 1;"><g class="fills"/><g class="errorbars"/><g class="lines"><path class="js-line" d="M0,125.34L1.55,226.01L2.07,231.96L4.66,264.45L5.18,262.59L5.69,254.56L6.21,263.9L7.25,261.89L7.76,269.58L8.28,269.81L8.8,275.22L9.83,266.05L10.35,276.88L10.87,270.15L11.39,279.57L12.42,267.62L12.94,274.8L13.97,275.76L14.49,271.79L15.01,276.74L15.53,275.26L16.04,276.03L16.56,280.65L17.08,271.88L17.6,274.35L18.11,274.15L18.63,271.53L19.15,277.4L19.67,273.22L20.18,273.09L20.7,274.78L21.22,273.84L21.74,276.41L22.77,268.87L23.29,269.13L23.81,269.19L24.32,274.92L25.36,265.41L25.88,266.78L26.39,272.68L26.91,275.95L27.43,257.48L27.95,274.16L28.46,269.52L28.98,275.13L30.02,274.75L30.53,273.42L31.05,271.71L31.57,276.81L32.09,273.15L32.6,262.56L33.12,273.01L33.64,272.26L34.16,275.07L34.67,267.06L35.19,274.82L35.71,274.19L36.23,277.07L37.78,272.64L38.3,274.84L38.81,258.14L39.33,274.61L39.85,273.27L40.37,266.16L40.88,271.87L41.4,269.96L41.92,270.72L42.44,265.93L42.95,269.4L43.47,271.56L43.99,269.81L44.51,267.98L45.02,269.77L45.54,258.59L46.06,269.19L47.09,271.84L47.61,264.78L48.13,272.72L48.65,263.95L50.2,261.72L50.72,270.76L51.75,275.49L52.27,267.73L52.79,272.02L53.3,270.1L53.82,272.68L54.34,272.36L54.86,273.83L55.89,270.53L56.41,272.4L56.93,268.57L57.44,271.19L57.96,268.39L58.48,270.85L60.03,262.98L60.55,268.74L61.58,266.76L62.1,269.72L62.62,271.07L63.14,267.52L63.65,266.63L64.17,269.8L65.21,271.08L65.72,269.12L66.24,269.34L66.76,271.44L67.79,268.92L68.31,271.51L68.83,263.69L69.35,273.2L69.86,270.26L70.38,274.46L70.9,274.84L71.42,269.84L71.93,274.54L72.45,270.33L72.97,262.07L73.49,266.35L74.01,258.25L74.52,262.8L75.04,273.25L75.56,272.44L76.08,269.91L76.59,271.04L77.11,270.01L78.66,268.73L79.18,265.17L79.7,267.46L80.22,267.01L80.73,268.58L81.25,267.24L81.77,269.53L82.29,267.93L82.8,268.41L83.32,267.74L83.84,268.7L84.36,265.5L84.87,263.25L85.39,266.98L86.43,270.27L86.94,267.61L87.98,270.09L88.5,266.47L89.53,268.36L90.05,259.22L91.08,265.01L91.6,265.88L92.12,265.21L92.64,266.13L93.15,264.99L93.67,257.36L94.19,273.11L94.71,261.23L95.22,263.66L95.74,261.72L96.26,263.31L96.78,260.33L97.29,260.74L97.81,265.08L98.33,263.59L98.85,264L99.36,265.92L100.4,262.84L100.92,263.96L101.43,264.67L101.95,261.58L102.47,263.76L102.99,261.87L104.02,260.22L104.54,262.21L105.57,258.82L106.09,264.18L106.61,263.92L107.13,264.76L107.64,268.45L108.16,268.25L108.68,265.87L109.2,266.94L109.71,266.31L110.23,265.11L110.75,265.91L111.27,264.81L111.78,264.65L112.3,257.96L112.82,265.39L113.34,255.46L114.37,251.72L114.89,259.97L115.41,260.41L115.92,262.21L116.44,261.97L116.96,264.5L117.99,264.73L118.51,264.54L119.03,265.14L119.55,262.57L120.06,257.65L120.58,263.28L121.1,263.23L121.62,264.04L122.65,265.16L123.17,265.8L123.69,265.52L124.2,262.73L125.24,265.38L125.76,260.12L126.27,260.89L126.79,265.63L127.83,264.33L128.34,264.48L128.86,264.59L129.38,263.36L130.41,259.75L130.93,262.25L131.45,259.6L131.97,261L133,260.3L133.52,258.27L134.04,256.31L134.55,256.68L135.07,261.89L135.59,260.78L136.11,261.29L136.62,260.72L137.66,263.73L138.18,259.26L138.69,263.09L139.21,258.58L140.25,264.43L140.76,261.68L141.28,259.64L141.8,261.03L143.35,258.04L143.87,258.51L144.39,256.69L144.9,259.57L145.42,258.74L145.94,262.05L146.46,261.25L146.97,264.17L148.01,262.48L148.53,259.68L149.05,260.46L149.56,259.54L150.08,260.64L150.6,257.75L151.63,263.75L152.15,257.92L153.7,269.98L154.22,259.37L155.26,270.67L155.77,269.41L156.29,271.73L156.81,268.88L157.33,270.42L157.84,268.45L158.88,264.19L159.4,265.63L160.43,264.99L160.95,264.74L161.98,264.68L162.5,268L164.05,267.16L164.57,266.18L165.61,264.48L166.12,264.79L167.16,264.61L167.68,265.63L168.19,266.79L168.71,265.59L170.26,261.56L170.78,264.63L171.3,261.47L171.82,264.47L172.33,263.09L172.85,263.55L173.37,263.73L173.89,267.76L174.4,264.32L174.92,264.59L175.44,263.7L175.96,259.69L176.47,261.44L176.99,263.13L177.51,264.21L178.03,263.94L178.54,264.21L179.58,260.7L180.1,260.78L180.61,261.88L181.13,265.05L181.65,265.78L182.17,264.88L182.68,266.29L183.2,265.52L183.72,257.17L184.24,263.53L184.75,264.03L185.27,263.32L185.79,263.93L186.31,262.93L187.34,266.04L187.86,260.3L188.38,263.41L188.89,261.99L189.41,262.66L190.96,267.66L191.48,267.78L192,267.93L192.52,266.76L193.55,263.99L194.07,265.75L194.59,263.54L195.1,265.51L195.62,266.31L196.14,263.61L197.17,265.97L197.69,260.17L198.21,261.78L198.73,266.28L199.76,260.11L200.28,265.02L200.8,264.97L201.31,266.07L202.35,265.47L202.87,265.17L204.42,258.41L204.94,253.55L205.45,265.68L205.97,265.12L206.49,261.19L208.04,265.23L208.56,258.58L210.11,263.14L210.63,263.84L211.66,263.83L212.18,264.07L212.7,264.1L213.22,262.81L213.73,262.13L214.25,262.71L215.29,263.13L215.8,265.06L216.32,260.32L216.84,261.6L217.36,261.64L217.87,264.06L218.39,263.11L218.91,263.26L220.46,264.83L220.98,263.45L222.02,261.02L222.53,263.31L223.05,263.44L223.57,265.19L225.64,259.62L226.16,260.02L227.71,256.99L228.23,260.83L228.74,260.62L229.26,262.6L230.3,256.67L230.81,259.88L231.85,257.5L232.37,257.86L233.4,254.93L233.92,255.62L234.44,256.42L234.95,255.76L235.47,254.27L235.99,255.82L236.51,256.53L237.02,255.88L237.54,253.61L238.06,254.47L238.58,254.64L239.09,253.02L239.61,253.9L240.13,253.22L240.65,254.3L243.23,256.48L243.75,253.45L245.3,256.2L245.82,255L247.89,250.95L248.41,251.44L249.44,247.15L249.96,251.53L251,251.87L251.51,248.59L252.55,251.26L253.07,250.86L254.1,251.42L254.62,249.35L255.65,252.39L256.17,249.58L256.69,247.95L257.21,248.62L257.72,250.02L258.76,252.19L259.28,249.77L260.31,252.56L260.83,252.25L261.35,249.81L261.86,250.31L262.38,237.05L263.42,256.94L263.93,256.2L266.52,257.5L267.04,257.48L267.56,254.26L268.07,255.32L268.59,254.06L269.11,251.54L269.63,252.12L270.14,253.03L270.66,253.73L271.18,251.91L271.7,252.71L272.21,249.39L273.25,245.33L273.77,245.25L274.28,245.35L274.8,246.77L275.32,246.23L275.84,247.08L276.35,247.02L276.87,248.64L277.91,249.07L278.42,246.8L278.94,248.01L279.46,245.65L279.98,245.25L280.49,247.52L281.53,244.9L282.05,245.96L283.08,248.33L283.6,248.24L284.63,254.09L285.15,254.82L286.19,256.59L286.7,255.54L287.22,251.58L287.74,251.96L288.26,250.17L288.77,251.91L289.29,251.7L289.81,252.31L290.84,254.24L291.36,252.87L291.88,251.26L292.4,252.46L292.91,250.54L293.43,251.58L293.95,252.92L294.47,251.63L294.98,253.54L295.5,248.18L297.06,252L297.57,250.46L298.09,252.37L298.61,251.84L299.13,250.98L300.16,250.45L300.68,250.6L301.71,250.59L302.23,250.85L303.27,251.43L303.78,250.39L304.82,250.91L305.34,250.4L307.41,251.91L307.92,252.25L308.44,253.91L308.96,253.54L309.48,253.65L310.51,252.99L311.03,250.8L311.55,252.9L312.06,252.46L312.58,252.28L313.1,251.87L313.62,253.28L314.65,254.73L315.17,251.99L316.2,252.78L316.72,252.37L317.24,252.7L317.76,249.9L319.31,248.02L319.83,247.56L320.34,248.01L320.86,246.22L322.41,247.33L322.93,246.71L323.97,247.96L324.48,251.49L325.52,251.44L326.04,249.58L327.07,252.3L327.59,251.59L328.62,248.79L329.14,250.39L329.66,251.19L330.18,250.15L330.69,249.13L331.21,250.62L331.73,249.48L332.25,251.15L332.76,248.94L333.28,249.12L333.8,249.68L335.35,246.75L335.87,247.94L337.42,249.57L337.94,248.4L338.97,248.81L339.49,247.04L340.01,245.67L340.53,242.14L341.56,246.06L342.08,245.88L342.6,244.46L343.11,247.09L343.63,246.87L344.15,247.37L345.18,247.3L345.7,246.61L347.25,246.86L347.77,245.49L349.32,245.86L349.84,246.84L350.88,246.52L351.39,247.25L352.43,247.44L352.95,249.08L353.98,248.55L354.5,249.39L355.53,243.76L356.05,247.26L357.6,248.13L358.12,247.64L359.67,246.92L360.19,245.59L360.71,243.87L361.23,245.7L362.78,249.95L363.3,249.75L364.33,251.56L364.85,251.09L366.4,250.3L366.92,251.27L367.95,252.18L368.47,252.38L370.03,253.09L370.54,251.45L371.06,251.47L371.58,250.3L372.61,253.29L373.13,251.47L373.65,249.28L374.17,249.62L374.68,248.88L376.24,251.24L376.75,249.76L378.31,253.68L378.82,253.77L379.34,253.59L379.86,252.16L380.38,252.62L380.89,250.68L381.41,250.27L381.93,245.71L382.45,246.33L382.96,245.55L384,245.62L384.52,250.02L385.03,249.17L385.55,249.82L386.07,250.62L386.59,250.19L387.1,250.27L389.17,249.62L389.69,249.57L390.21,249.27L390.73,247.96L393.31,244.56L393.83,247.25L394.35,246.89L394.87,247.82L396.94,239.23L397.45,240.72L398.49,243.41L399.01,242.6L402.11,243.04L402.63,242.45L403.15,242.34L403.66,245.98L404.18,246.48L404.7,243.78L405.73,242.99L406.25,243.61L406.77,243.51L407.29,242.5L408.84,242.51L409.36,243.49L409.87,243.68L410.39,241.01L410.91,241.67L411.43,240.97L411.94,238.39L412.46,239.91L412.98,241.14L413.5,239.92L414.53,240.48L415.05,239.69L415.57,241.04L416.08,240.46L416.6,241.36L417.12,241.46L417.64,239.02L418.15,236.25L418.67,236.45L419.19,238.88L420.22,239.86L420.74,244.19L421.26,245.37L421.78,244.32L422.81,244.01L423.33,245.73L424.88,244.51L425.4,245.1L425.92,245.15L426.43,243.7L427.99,244.01L428.5,243.69L429.02,243.52L429.54,240.09L430.57,243.44L431.09,243.56L433.16,242.66L433.68,243.71L434.71,240.42L435.23,239.79L435.75,240.08L436.27,241.23L436.78,241.92L437.3,240.73L439.89,241.3L440.41,241.31L441.44,240.44L441.96,236.36L443.51,238.49L444.03,237.6L445.58,237.59L446.1,239.29L447.65,239.41L448.17,240.2L448.69,237.04L449.21,238.73L449.72,239.94L450.24,239.63L450.76,239.47L451.79,240.07L452.31,242.43L453.86,241.38L454.38,242.08L455.42,242.84L455.93,241.62L457.49,239.12L458,241.47L458.52,241.74L459.04,239.28L460.07,239.28L460.59,241.02L463.18,240.68L463.7,241.76L465.25,241.22L465.77,240.15L466.8,240.27L467.32,239.72L467.84,239.86L468.35,238.88L469.91,241.02L470.42,240.72L470.94,240.35L471.46,238.11L471.98,239.32L472.49,238.89L473.01,239.21L474.56,240.65L475.08,240.55L475.6,241.09L476.12,238.61L477.15,240.85L477.67,240.73L478.19,237.94L478.7,238.89L479.22,239.41L480.26,242.66L480.77,242.09L481.29,242.06L481.81,242.97L483.36,240.42L483.88,239.47L485.95,239.4L486.47,240.67L487.5,241.45L488.02,241.2L488.54,240.85L489.05,242.17L490.61,241.67L491.12,241.74L492.68,240.62L493.19,239.45L493.71,238.7L494.23,239.55L495.78,238.59L496.3,238.55L496.82,238.49L497.33,239.9L498.37,240.05L498.89,239.14L499.92,239.56L500.44,239.08L501.47,238.14L501.99,238.12L502.51,237.95L503.03,238.99L505.1,236.9L505.61,234.78L506.13,233.87L506.65,234.42L507.17,233.9L508.2,233.91L508.72,234.92L509.75,234.89L510.27,234.41L510.79,233.82L511.31,234.67L511.82,237.04L512.34,236.51L512.86,236.65L513.89,236.9L514.41,239.1L517,238.5" style="vector-effect: non-scaling-stroke; fill: none; stroke: rgb(255, 127, 14); stroke-opacity: 1; stroke-width: 2px; opacity: 1;"/></g><g class="points"/><g class="text"/></g><g class="trace scatter trace01f42a" style="stroke-miterlimit: 2; opacity: 1;"><g class="fills"/><g class="errorbars"/><g class="lines"><path class="js-line" d="M0,233.73L2.07,180.35L2.59,178.92L4.14,167.53L4.66,166.53L5.18,165.25L5.69,166.74L6.21,163.5L6.73,164.27L7.25,165.39L8.8,161.46L9.32,161.51L9.83,161.6L10.35,160.27L11.39,158.75L11.9,160.83L12.42,160.51L12.94,159.22L13.46,158.7L13.97,159.41L14.49,159.46L15.01,158.35L16.56,156.93L17.08,157.73L17.6,159.45L18.11,157.68L19.67,158.49L20.18,157.94L21.74,157.12L22.25,158.13L22.77,158.9L23.29,157.72L23.81,158.17L24.32,157.31L25.36,158.76L25.88,158.14L26.91,156.32L27.43,157.58L27.95,157.23L28.46,158.12L29.5,156.98L30.02,156.75L31.05,157.57L31.57,156.2L32.6,157.32L33.12,156.78L33.64,157.28L34.16,156.28L34.67,157.5L35.19,156.64L36.74,156.5L37.26,156.62L37.78,157.28L38.3,156.27L38.81,159.22L39.33,156.29L40.37,157.38L40.88,156.76L41.4,157.26L41.92,156.47L42.44,157.83L42.95,157.07L43.47,156.36L45.02,156.46L45.54,157.75L47.09,156.27L47.61,157.74L48.13,156.54L48.65,157.99L50.2,157.74L50.72,156.77L51.75,155.99L52.27,157.39L53.82,156.26L54.34,156.09L55.37,155.97L55.89,156.17L56.41,155.79L56.93,156.45L58.48,155.82L59,156.22L60.03,157.28L60.55,156.17L62.62,156.19L63.14,156.26L63.65,157.1L64.17,156.23L67.28,156.11L67.79,156.34L68.31,155.77L68.83,157.02L69.35,155.84L69.86,156.46L70.38,155.65L70.9,155.7L71.42,156.61L71.93,155.5L72.45,156.01L72.97,156.46L73.49,156.08L74.01,157.23L75.56,155.77L76.08,155.98L78.66,155.92L79.18,156.98L80.22,156.13L80.73,156.16L82.8,156.03L83.32,155.96L83.84,155.7L84.36,156.35L85.39,156.12L85.91,155.91L86.94,156.07L87.46,155.85L87.98,155.63L88.5,156.43L89.53,156.11L90.05,157.02L91.08,155.94L91.6,155.7L93.67,156.63L94.19,155.51L94.71,156.71L95.22,156.18L95.74,156.45L96.26,156.31L96.78,156.98L98.33,156.24L98.85,155.97L101.95,156.42L102.47,155.77L104.02,156.25L104.54,155.94L105.57,156.73L106.09,155.57L111.78,155.92L112.3,156.78L113.34,156.35L113.85,156.76L115.41,156.02L115.92,155.78L119.55,156.2L120.06,156.95L121.1,156.08L121.62,156.22L123.17,155.63L123.69,155.88L124.2,156.26L124.72,155.7L125.24,155.62L125.76,156.69L128.86,155.82L129.38,155.71L130.93,155.85L131.45,156.12L133,155.83L133.52,156.03L136.62,156.34L137.14,156.07L138.69,155.81L139.21,156.5L140.76,155.92L141.28,156.21L142.32,155.97L142.83,156.07L145.42,156.05L145.94,155.75L152.67,155.93L153.19,155.65L153.7,155.39L154.22,155.98L156.29,155.17L156.81,155.69L158.36,155.58L158.88,155.9L160.43,155.77L160.95,155.77L170.78,155.42L171.3,156.12L172.33,155.56L172.85,155.8L175.44,155.51L175.96,156.31L179.06,155.77L179.58,156.01L183.2,155.35L183.72,156.65L184.75,155.58L185.27,155.67L187.34,155.39L187.86,156.39L188.89,155.76L189.41,155.81L191.48,155.1L192,155.06L195.1,155.35L195.62,155.24L196.66,155.57L197.17,155.35L197.69,156.25L198.21,155.81L198.73,155.25L199.76,156.19L200.28,155.32L203.9,155.7L204.42,156.3L204.94,156.42L205.45,155.27L208.04,155.27L208.56,156.13L210.11,155.46L210.63,155.37L219.94,155.18L220.46,155.18L223.05,155.34L223.57,155.12L232.37,155.51L232.88,156.11L238.06,155.63L238.58,155.61L242.2,155.45L242.72,155.34L246.34,155.6L246.86,155.72L249.44,156.16L249.96,155.62L261.86,155.74L262.38,156.4L263.93,155.35L264.45,155.27L268.59,155.77L269.11,156.06L271.7,155.58L272.21,155.77L274.8,155.86L275.32,155.88L277.91,155.83L278.42,155.95L280.49,155.8L281.01,156.3L281.53,156.64L282.05,156.01L284.12,155.47L284.63,155.52L286.7,155.33L287.22,155.73L291.36,155.32L291.88,155.4L298.61,155.41L299.13,155.48L306.89,155.42L307.41,155.62L311.55,155.29L312.06,155.35L340.01,155.73L340.53,156.14L343.11,155.6L343.63,155.57L349.84,155.46L350.36,155.55L355.02,155.36L355.53,155.54L357.6,155.18L358.12,155.18L366.4,155.33L366.92,155.2L381.41,155.23L381.93,155.4L386.59,155.07L387.1,155.03L403.15,155.41L403.66,155.24L429.02,155.42L429.54,155.73L432.13,155.41L432.64,155.41L447.65,155.47L448.17,155.38L449.72,155.28L450.24,155.26L454.38,155.19L454.9,155.12L469.39,155.4L469.91,155.32L476.12,155.37L476.63,155.27L503.03,155.34L503.54,155.32L511.31,155.47L511.82,155.35L517,155.23" style="vector-effect: non-scaling-stroke; fill: none; stroke: rgb(44, 160, 44); stroke-opacity: 1; stroke-width: 2px; opacity: 1;"/></g><g class="points"/><g class="text"/></g></g></g><g class="overplot"/><path class="xlines-above crisp" d="M0,0" style="fill: none;"/><path class="ylines-above crisp" d="M0,0" style="fill: none;"/><g class="overlines-above"/><g class="xaxislayer-above"><g class="xtick"><text text-anchor="middle" x="0" y="403" transform="translate(60,0)" style="font-family: 'Open Sans', verdana, arial, sans-serif; font-size: 12px; fill: rgb(68, 68, 68); fill-opacity: 1; white-space: pre;">0</text></g><g class="xtick"><text text-anchor="middle" x="0" y="403" transform="translate(163.5,0)" style="font-family: 'Open Sans', verdana, arial, sans-serif; font-size: 12px; fill: rgb(68, 68, 68); fill-opacity: 1; white-space: pre;">200</text></g><g class="xtick"><text text-anchor="middle" x="0" y="403" transform="translate(267.01,0)" style="font-family: 'Open Sans', verdana, arial, sans-serif; font-size: 12px; fill: rgb(68, 68, 68); fill-opacity: 1; white-space: pre;">400</text></g><g class="xtick"><text text-anchor="middle" x="0" y="403" transform="translate(370.51,0)" style="font-family: 'Open Sans', verdana, arial, sans-serif; font-size: 12px; fill: rgb(68, 68, 68); fill-opacity: 1; white-space: pre;">600</text></g><g class="xtick"><text text-anchor="middle" x="0" y="403" transform="translate(474.01,0)" style="font-family: 'Open Sans', verdana, arial, sans-serif; font-size: 12px; fill: rgb(68, 68, 68); fill-opacity: 1; white-space: pre;">800</text></g></g><g class="yaxislayer-above"><g class="ytick"><text text-anchor="end" x="59" y="4.199999999999999" transform="translate(0,373.5)" style="font-family: 'Open Sans', verdana, arial, sans-serif; font-size: 12px; fill: rgb(68, 68, 68); fill-opacity: 1; white-space: pre;">0</text></g><g class="ytick"><text text-anchor="end" x="59" y="4.199999999999999" transform="translate(0,291.19)" style="font-family: 'Open Sans', verdana, arial, sans-serif; font-size: 12px; fill: rgb(68, 68, 68); fill-opacity: 1; white-space: pre;">0.5</text></g><g class="ytick"><text text-anchor="end" x="59" y="4.199999999999999" transform="translate(0,208.88)" style="font-family: 'Open Sans', verdana, arial, sans-serif; font-size: 12px; fill: rgb(68, 68, 68); fill-opacity: 1; white-space: pre;">1</text></g><g class="ytick"><text text-anchor="end" x="59" y="4.199999999999999" transform="translate(0,126.58)" style="font-family: 'Open Sans', verdana, arial, sans-serif; font-size: 12px; fill: rgb(68, 68, 68); fill-opacity: 1; white-space: pre;">1.5</text></g></g><g class="overaxes-above"/></g></g><g class="polarlayer"/><g class="ternarylayer"/><g class="geolayer"/><g class="funnelarealayer"/><g class="pielayer"/><g class="treemaplayer"/><g class="sunburstlayer"/><g class="glimages"/><defs id="topdefs-ed7608"><g class="clips"/><clipPath id="legended7608"><rect width="101" height="67" x="0" y="0"/></clipPath></defs><g class="layer-above"><g class="imagelayer"/><g class="shapelayer"/></g><g class="infolayer"><g class="legend" pointer-events="all" transform="translate(587.34, 60)"><rect class="bg" shape-rendering="crispEdges" width="101" height="67" x="0" y="0" style="stroke: rgb(68, 68, 68); stroke-opacity: 1; fill: rgb(255, 255, 255); fill-opacity: 1; stroke-width: 0px;"/><g class="scrollbox" transform="translate(0, 0)" clip-path="url('#legended7608')"><g class="groups"><g class="traces" transform="translate(0, 14.5)" style="opacity: 1;"><text class="legendtext" text-anchor="start" x="40" y="4.680000000000001" style="font-family: 'Open Sans', verdana, arial, sans-serif; font-size: 12px; fill: rgb(68, 68, 68); fill-opacity: 1; white-space: pre;">train loss</text><g class="layers" style="opacity: 1;"><g class="legendfill"/><g class="legendlines"><path class="js-line" d="M5,0h30" style="fill: none; stroke: rgb(31, 119, 180); stroke-opacity: 1; stroke-width: 2px;"/></g><g class="legendsymbols"><g class="legendpoints"/></g></g><rect class="legendtoggle" pointer-events="all" x="0" y="-9.5" width="95.78125" height="19" style="cursor: pointer; fill: rgb(0, 0, 0); fill-opacity: 0;"/></g><g class="traces" transform="translate(0, 33.5)" style="opacity: 1;"><text class="legendtext" text-anchor="start" x="40" y="4.680000000000001" style="font-family: 'Open Sans', verdana, arial, sans-serif; font-size: 12px; fill: rgb(68, 68, 68); fill-opacity: 1; white-space: pre;">test loss</text><g class="layers" style="opacity: 1;"><g class="legendfill"/><g class="legendlines"><path class="js-line" d="M5,0h30" style="fill: none; stroke: rgb(255, 127, 14); stroke-opacity: 1; stroke-width: 2px;"/></g><g class="legendsymbols"><g class="legendpoints"/></g></g><rect class="legendtoggle" pointer-events="all" x="0" y="-9.5" width="95.78125" height="19" style="cursor: pointer; fill: rgb(0, 0, 0); fill-opacity: 0;"/></g><g class="traces" transform="translate(0, 52.5)" style="opacity: 1;"><text class="legendtext" text-anchor="start" x="40" y="4.680000000000001" style="font-family: 'Open Sans', verdana, arial, sans-serif; font-size: 12px; fill: rgb(68, 68, 68); fill-opacity: 1; white-space: pre;">acc</text><g class="layers" style="opacity: 1;"><g class="legendfill"/><g class="legendlines"><path class="js-line" d="M5,0h30" style="fill: none; stroke: rgb(44, 160, 44); stroke-opacity: 1; stroke-width: 2px;"/></g><g class="legendsymbols"><g class="legendpoints"/></g></g><rect class="legendtoggle" pointer-events="all" x="0" y="-9.5" width="95.78125" height="19" style="cursor: pointer; fill: rgb(0, 0, 0); fill-opacity: 0;"/></g></g></g><rect class="scrollbar" rx="20" ry="3" width="0" height="0" x="0" y="0" style="fill: rgb(128, 139, 164); fill-opacity: 1;"/></g><g class="g-gtitle"><text class="gtitle" x="350" y="30" text-anchor="middle" dy="0em" style="font-family: 'Open Sans', verdana, arial, sans-serif; font-size: 17px; fill: rgb(68, 68, 68); opacity: 1; font-weight: normal; white-space: pre;">SAMPLE_PER_CLASS_100</text></g><g class="g-xtitle"/><g class="g-ytitle"/></g></svg>