<svg class="main-svg" xmlns="http://www.w3.org/2000/svg" xmlns:xlink="http://www.w3.org/1999/xlink" width="700" height="450" style="" viewBox="0 0 700 450"><rect x="0" y="0" width="700" height="450" style="fill: rgb(255, 255, 255); fill-opacity: 1;"/><defs id="defs-b1451b"><g class="clips"><clipPath id="clipb1451bxyplot" class="plotclip"><rect width="517" height="330"/></clipPath><clipPath class="axesclip" id="clipb1451bx"><rect x="60" y="0" width="517" height="450"/></clipPath><clipPath class="axesclip" id="clipb1451by"><rect x="0" y="60" width="700" height="330"/></clipPath><clipPath class="axesclip" id="clipb1451bxy"><rect x="60" y="60" width="517" height="330"/></clipPath></g><g class="gradients"/></defs><g class="bglayer"/><g class="layer-below"><g class="imagelayer"/><g class="shapelayer"/></g><g class="cartesianlayer"><g class="subplot xy"><g class="layer-subplot"><g class="shapelayer"/><g class="imagelayer"/></g><g class="gridlayer"><g class="x"><path class="xgrid crisp" transform="translate(163.5,0)" d="M0,60v330" style="stroke: rgb(238, 238, 238); stroke-opacity: 1; stroke-width: 1px;"/><path class="xgrid crisp" transform="translate(267.01,0)" d="M0,60v330" style="stroke: rgb(238, 238, 238); stroke-opacity: 1; stroke-width: 1px;"/><path class="xgrid crisp" transform="translate(370.51,0)" d="M0,60v330" style="stroke: rgb(238, 238, 238); stroke-opacity: 1; stroke-width: 1px;"/><path class="xgrid crisp" transform="translate(474.01,0)" d="M0,60v330" style="stroke: rgb(238, 238, 238); stroke-opacity: 1; stroke-width: 1px;"/></g><g class="y"><path class="ygrid crisp" transform="translate(0,312.71000000000004)" d="M60,0h517" style="stroke: rgb(238, 238, 238); stroke-opacity: 1; stroke-width: 1px;"/><path class="ygrid crisp" transform="translate(0,251.91)" d="M60,0h517" style="stroke: rgb(238, 238, 238); stroke-opacity: 1; stroke-width: 1px;"/><path class="ygrid crisp" transform="translate(0,191.11)" d="M60,0h517" style="stroke: rgb(238, 238, 238); stroke-opacity: 1; stroke-width: 1px;"/><path class="ygrid crisp" transform="translate(0,130.31)" d="M60,0h517" style="stroke: rgb(238, 238, 238); stroke-opacity: 1; stroke-width: 1px;"/><path class="ygrid crisp" transform="translate(0,69.51)" d="M60,0h517" style="stroke: rgb(238, 238, 238); stroke-opacity: 1; stroke-width: 1px;"/></g></g><g class="zerolinelayer"><path class="xzl zl crisp" transform="translate(60,0)" d="M0,60v330" style="stroke: rgb(68, 68, 68); stroke-opacity: 1; stroke-width: 1px;"/><path class="yzl zl crisp" transform="translate(0,373.51)" d="M60,0h517" style="stroke: rgb(68, 68, 68); stroke-opacity: 1; stroke-width: 1px;"/></g><path class="xlines-below"/><path class="ylines-below"/><g class="overlines-below"/><g class="xaxislayer-below"/><g class="yaxislayer-below"/><g class="overaxes-below"/><g class="plot" transform="translate(60, 60)" clip-path="url('#clipb1451bxyplot')"><g class="scatterlayer mlayer"><g class="trace scatter trace7ee994" style="stroke-miterlimit: 2; opacity: 1;"><g class="fills"/><g class="errorbars"/><g class="lines"><path class="js-line" d="M0,46.75L1.04,58.84L1.55,70.17L6.73,220.32L7.25,225.99L9.32,247.53L9.83,250.22L11.39,262.29L11.9,267.43L17.08,287.48L17.6,289.34L18.11,290.03L18.63,287.36L19.67,292.91L20.18,294.41L20.7,296.16L21.22,294.69L22.77,300.39L23.29,298.94L23.81,300.81L24.32,300.29L24.84,300.64L25.36,301.02L25.88,302.56L26.91,304.05L27.43,303.54L27.95,303.79L28.46,305.72L29.5,306.24L30.02,307.52L30.53,305.57L31.05,307.3L31.57,306.99L32.09,307.94L32.6,307.54L33.12,308.29L36.74,310.06L37.26,309.53L38.3,310.29L38.81,310.11L40.37,310.85L40.88,308.8L41.4,309.07L41.92,310.59L42.44,309.84L42.95,310.78L43.99,311.19L44.51,310.17L45.02,309.8L45.54,311.02L46.06,309.34L46.58,311.84L47.61,310.76L48.13,311.69L49.16,311.6L49.68,311.75L51.23,311.51L51.75,312.09L53.82,311.62L54.34,312.29L57.44,311.96L57.96,312.44L61.58,312.16L62.1,311.84L62.62,312.7L63.14,311.65L64.17,312.74L64.69,312.33L65.72,311.96L66.24,309.31L67.28,312.59L67.79,312.05L68.31,312.81L71.93,312.68L72.45,312.57L72.97,312.8L73.49,311.86L75.04,313.01L75.56,312.96L90.05,312.89L90.57,312.07L91.08,312.83L91.6,311.51L92.12,312.82L92.64,312.12L93.15,312.97L94.19,310.16L94.71,311.6L95.74,313.06L96.26,312.39L98.33,313.14L98.85,312.93L101.43,312.92L101.95,311.99L102.47,313.16L102.99,309.16L104.02,312.16L104.54,310.21L105.06,313.21L105.57,312.3L106.09,313.03L111.78,313.21L112.3,311.31L112.82,313.28L113.34,312.34L113.85,312.13L114.37,309.46L114.89,312.74L115.41,311.98L115.92,313.16L117.48,313.25L117.99,313.12L120.58,312.26L121.1,313.33L121.62,312.45L122.13,313.03L122.65,313.03L125.76,313.23L126.27,313.29L138.69,312.71L139.21,312.07L140.25,312.86L140.76,313.07L142.32,313.34L142.83,313.25L150.6,313.33L151.12,313.26L152.15,313.36L152.67,312.61L154.22,313.24L154.74,313.39L159.91,313.28L160.43,313.37L163.02,313.35L163.54,313.38L210.63,313.32L211.15,312.52L211.66,311.62L212.18,313.35L212.7,312.69L213.22,313.1L213.73,313.42L217.87,313.27L218.39,313.37L223.05,313.39L223.57,313.43L237.02,313.43L237.54,312.23L238.58,313.45L239.09,313.46L243.23,313.18L243.75,311.26L244.79,313.46L245.3,313.41L247.37,313.38L247.89,313.46L265.49,313.42L266,310.25L266.52,313.46L267.04,311.22L268.07,313.09L268.59,313.37L269.63,313.44L270.14,312.51L270.66,313.45L271.18,309.88L272.21,313.48L272.73,313.46L292.91,313.39L293.43,313.46L294.47,313.42L294.98,313.44L302.75,313.33L303.27,313.48L309.99,313.42L310.51,313.48L347.25,313.47L347.77,313.49L366.92,313.46L367.44,313.48L371.06,313.48L371.58,313.47L385.03,313.48L385.55,312.38L386.07,313.47L386.59,312.53L387.62,313.48L388.14,313.45L400.56,313.48L401.08,313.4L406.77,313.46L407.29,313.48L419.71,313.48L420.22,313.48L435.23,313.49L435.75,313.02L437.3,313.48L437.82,313.45L447.14,313.46L447.65,313.49L483.36,313.44L483.88,313.49L512.34,313.49L512.86,313.5L517,313.49" style="vector-effect: non-scaling-stroke; fill: none; stroke: rgb(31, 119, 180); stroke-opacity: 1; stroke-width: 2px; opacity: 1;"/></g><g class="points"/><g class="text"/></g><g class="trace scatter tracedcfc37" style="stroke-miterlimit: 2; opacity: 1;"><g class="fills"/><g class="errorbars"/><g class="lines"><path class="js-line" d="M0,47.8L1.04,54.04L1.55,60.87L3.11,101.46L3.62,119.53L5.69,176.24L6.21,181.85L7.25,189.21L7.76,191.54L8.28,192.59L8.8,196.73L9.83,192.03L10.35,198.81L10.87,200.87L11.39,195.34L11.9,191.47L12.42,199.76L12.94,201.18L13.46,193.54L14.49,189.99L15.01,188.59L15.53,189.22L16.04,194.26L16.56,195.14L17.08,190.01L17.6,193.63L18.11,184.12L18.63,181.29L19.15,190.86L20.18,175.08L20.7,182.25L21.22,183.35L21.74,175.59L22.25,172.37L22.77,177.91L23.29,182.85L23.81,176.04L24.84,171.72L25.36,172.82L25.88,175.3L26.39,175.04L26.91,172.12L27.43,170.45L27.95,170.73L28.46,164.46L28.98,161.8L29.5,166.84L30.02,169.52L30.53,166.44L31.57,156.07L32.09,157.94L33.12,161.24L33.64,154.01L34.16,148.66L34.67,149.85L35.19,152.63L36.23,154.59L36.74,153.1L37.26,155.58L37.78,154.39L38.81,148.22L39.33,149.6L39.85,148.79L40.37,150.74L41.4,146.97L41.92,143.15L42.44,138.87L42.95,141.07L43.47,140.13L43.99,136.49L45.02,126.79L45.54,136.12L46.06,135.17L46.58,130.07L47.09,125.4L47.61,130.84L48.13,133.04L48.65,132.01L49.16,133.3L50.2,134.79L50.72,138.36L51.23,139.71L51.75,137.78L53.3,129.3L53.82,129L55.37,127.11L55.89,125.2L57.96,122.88L58.48,124.12L59,127.25L59.51,124.58L61.58,119.28L62.1,119.38L63.14,109.98L63.65,111.47L64.17,116.12L65.21,120.69L65.72,117.89L66.24,116.4L66.76,119.99L67.79,121.29L68.31,119.28L68.83,117.82L69.35,119.95L70.38,119.89L70.9,118.39L72.45,113.85L72.97,108.31L74.01,110.75L74.52,108.57L75.56,105.11L76.08,107.31L77.11,109.41L77.63,108.63L78.15,109.87L78.66,108.48L79.7,105.11L80.22,105.94L80.73,104.53L81.25,105.15L81.77,106.74L82.29,108.44L82.8,106.94L84.36,100.32L84.87,100.56L86.43,105.99L86.94,106.15L87.46,108.94L87.98,107.36L89.53,102.38L90.05,103.83L91.08,94.81L91.6,96.2L92.12,97.46L92.64,101.57L93.15,99.67L93.67,100.02L94.19,91.88L94.71,97.94L95.22,98.7L95.74,98.08L96.26,98.06L96.78,97L97.81,102.85L98.33,102.67L99.88,92.29L100.4,93.4L100.92,94.54L101.95,100.19L102.47,92.19L102.99,98.28L103.5,92.96L104.02,85.05L104.54,90.94L105.57,92.99L106.09,91.95L106.61,90.28L107.13,90.79L107.64,91.45L109.2,92.64L109.71,92.31L110.75,92.23L111.27,92.95L112.3,94.86L112.82,94.1L113.85,94.09L114.37,89.95L115.41,76.77L115.92,81.79L116.96,88.6L117.48,88.64L119.03,84.56L119.55,83.53L120.06,80.39L120.58,85.67L121.1,87.67L121.62,87.35L122.13,86.91L123.17,91.17L123.69,90.12L125.76,86.38L126.27,86.75L126.79,87.13L127.31,85.04L128.34,81.05L128.86,82.2L129.38,82.89L129.9,79.27L130.93,71.03L131.45,79.35L133,86.25L133.52,86.06L134.04,82.27L134.55,85.63L135.07,86.08L135.59,85.42L136.62,70.71L137.14,73.37L137.66,77.1L138.18,80L138.69,90.75L140.25,50.12L140.76,64.94L142.32,80.59L142.83,82.25L143.35,82.89L143.87,82.43L144.39,82.01L144.9,81.17L145.42,78.72L146.46,76.05L146.97,72.12L149.56,63.76L150.08,63.56L151.12,62.99L151.63,63.33L152.15,64.51L152.67,62.19L154.22,71.36L154.74,70.79L157.33,69.62L157.84,69L158.36,68.85L158.88,65.75L159.4,63.15L159.91,67.56L161.47,68.27L161.98,68.36L164.05,68.3L164.57,68.06L168.19,69.13L168.71,69.1L170.26,68.27L170.78,67.3L171.82,66.61L172.33,65.77L172.85,64.65L173.37,61.31L173.89,59.28L174.4,61.53L175.96,66.55L176.47,65.23L178.03,55.05L178.54,56.56L180.1,61.05L180.61,60.95L181.65,61.55L182.17,60.67L183.2,59.76L183.72,60.63L185.79,61.77L186.31,61.52L187.34,61.08L187.86,61.94L188.38,61.92L188.89,59.11L189.41,57.5L189.93,60.63L190.96,61.36L191.48,61.07L193.03,60.75L193.55,59.25L194.07,59.27L194.59,60.5L196.14,62.71L196.66,62.51L200.28,59.57L200.8,59.55L201.83,59.63L202.35,60.84L203.38,61.83L203.9,61.27L209.08,53.99L209.59,51.96L210.11,50.57L210.63,51.76L212.18,57.08L212.7,55.63L213.73,54.53L214.25,52.42L215.8,57.95L216.32,57.58L216.84,58.35L217.87,53.6L218.39,56.31L218.91,57.88L219.43,57.19L219.94,57.54L221.5,61.91L222.02,61.68L227.19,54.61L227.71,54.59L231.33,53.84L231.85,53.18L233.4,50.62L233.92,51.42L234.95,51.53L235.47,51.84L236.51,52.06L237.02,47.35L238.58,54.55L239.09,54.53L241.16,52.48L241.68,51.94L242.72,56.05L243.23,51.89L244.79,47.29L245.3,45.33L245.82,45.45L246.34,47.22L247.89,50.54L248.41,51.33L249.44,53.02L249.96,52.49L251.51,50.56L252.03,50.51L253.07,49.89L253.58,50.25L255.14,51.63L255.65,51.6L257.21,52.18L257.72,51.21L259.28,47.4L259.79,46.98L262.38,46.41L262.9,45.87L264.97,44.92L265.49,45.52L266,45.53L266.52,39.66L267.04,42.4L267.56,42.15L268.07,41.57L268.59,41.34L269.11,42.48L271.7,48.25L272.21,47.94L274.28,46.45L274.8,46.49L278.42,46.72L278.94,46.94L281.01,47.81L281.53,47.33L283.6,45.14L284.12,44.88L285.67,44.53L286.19,44.56L288.26,44.96L288.77,44.18L289.81,40.55L290.33,42.96L291.88,44.78L292.4,44.91L292.91,44.89L293.43,44.01L293.95,44.85L294.47,43.76L294.98,43.14L295.5,45.11L297.06,47.75L297.57,47.5L299.64,40.07L300.16,39.89L301.71,40.93L302.23,40.81L303.78,40.76L304.3,42.37L305.34,43.24L305.85,38.48L306.37,37.46L306.89,40.77L308.44,43.52L308.96,43.57L310.51,43.62L311.03,43.31L314.13,41.23L314.65,40.12L318.79,38.88L319.31,38.2L320.34,38.11L320.86,38.82L321.9,39.43L322.41,40.88L323.45,43.88L323.97,43.91L325,43.33L325.52,42.6L327.07,41.52L327.59,41.81L331.21,41.08L331.73,40.77L332.76,40.16L333.28,40.15L337.42,39.75L337.94,39.88L347.25,37.7L347.77,37.93L348.81,38.35L349.32,39.21L350.36,42.24L350.88,42.46L354.5,37.33L355.02,37.23L356.57,37.46L357.09,37.98L360.71,37.72L361.23,37.56L367.44,36.04L367.95,35.43L369.51,32.87L370.03,32.91L372.1,35.26L372.61,35.52L373.65,35.44L374.17,36.92L375.72,38.26L376.24,38.55L377.79,39.11L378.31,38.95L379.86,36.59L380.38,35.44L381.93,32.48L382.45,32.69L382.96,32.82L383.48,32.15L384.52,30.86L385.03,31.02L385.55,30.93L386.07,29.11L386.59,27.72L387.1,27.92L387.62,27.62L389.17,28.84L389.69,29.37L390.21,29.65L390.73,32.18L392.28,36.16L392.8,35.98L395.38,33.02L395.9,33.4L397.45,34.29L397.97,35.48L400.04,37.37L400.56,37.14L401.59,37.32L402.11,36.65L403.15,36.03L403.66,32.5L405.22,25.72L405.73,25.71L408.84,28.44L409.36,29.23L411.94,32.44L412.46,32.34L414.01,30.68L414.53,30.88L418.67,33.53L419.19,33.86L422.29,34.81L422.81,34.82L423.33,34.59L423.85,32.81L424.88,31.65L425.4,32.1L427.47,33.42L427.99,33.44L430.06,34.28L430.57,34.27L435.75,34.45L436.27,33.41L437.82,32.06L438.34,31.7L439.89,31.56L440.41,32.03L444.55,34.1L445.07,34.12L446.1,33.42L446.62,33.08L450.24,33.49L450.76,34.14L451.79,34.39L452.31,34L453.35,34.01L453.86,32.63L455.93,30.01L456.45,29.71L462.66,28.7L463.18,28.36L465.77,27.53L466.28,27.43L467.32,27.77L467.84,28.23L470.42,27.83L470.94,27.81L473.01,26.85L473.53,26.25L475.6,22.8L476.12,22.72L481.29,24.93L481.81,25.55L484.4,26.06L484.91,25.92L489.57,25.55L490.09,25.58L496.82,25.25L497.33,25.41L499.92,25.68L500.44,22.11L500.96,19.05L501.47,22.81L502.51,26.87L503.03,26.95L505.1,25.53L505.61,22.72L507.17,16.5L507.68,16.89L509.24,21.24L509.75,21.48L513.89,21.89L514.41,21.86L516.48,22.54L517,22.79" style="vector-effect: non-scaling-stroke; fill: none; stroke: rgb(255, 127, 14); stroke-opacity: 1; stroke-width: 2px; opacity: 1;"/></g><g class="points"/><g class="text"/></g><g class="trace scatter tracea508dc" style="stroke-miterlimit: 2; opacity: 1;"><g class="fills"/><g class="errorbars"/><g class="lines"><path class="js-line" d="M0,296.18L1.55,281.98L2.07,286.5L3.11,278.88L3.62,271.35L5.18,248.87L5.69,247.36L6.21,247.05L6.73,243.71L7.25,241.97L7.76,242.32L8.28,242.94L9.32,238.08L9.83,240.26L10.87,233.94L11.39,234.59L11.9,236.78L12.94,233.16L13.46,235.52L14.49,232.09L15.01,232.29L15.53,233.95L16.04,233.2L16.56,230.32L17.08,231.15L17.6,230.25L18.63,233.14L19.15,229.22L19.67,230.26L20.18,233.23L21.22,229.27L21.74,231.36L22.25,232.38L22.77,230.45L23.29,227.35L23.81,229.91L24.32,231.49L24.84,229.8L25.88,229.73L26.39,228.63L26.91,228.43L27.43,229.4L28.46,228.45L28.98,230.25L30.02,226.03L30.53,226.63L31.05,229.23L31.57,230.13L32.09,229.13L32.6,227.2L33.12,227.42L33.64,229.7L34.67,229.12L35.19,228.39L35.71,228.4L36.23,227.56L36.74,227.79L37.26,227.2L38.3,226.61L38.81,227.24L39.33,227.26L39.85,228.12L41.4,227.19L41.92,228.24L42.44,228.54L42.95,227.87L43.99,227.21L44.51,228.43L45.02,228.66L45.54,227.18L47.09,229.04L47.61,228.05L48.65,227.92L49.16,227.69L50.2,227.33L50.72,226.76L51.75,226.7L52.27,227.13L53.3,227.91L53.82,227.5L55.37,227.11L55.89,227.59L57.96,228.29L58.48,227.7L59.51,226.9L60.03,227.19L61.58,228.29L62.1,228.21L63.65,228.86L64.17,228.11L65.21,226.76L65.72,227.19L66.76,227.53L67.28,227.54L70.9,227.46L71.42,227.17L72.45,226.95L72.97,227.99L79.18,227.73L79.7,227.95L82.29,226.65L82.8,227.24L84.36,228.36L84.87,228.45L87.46,226.75L87.98,227.04L89.53,227.02L90.05,226.79L91.6,228.16L92.12,228.02L93.15,226.37L93.67,227.21L94.19,228.57L94.71,227.66L95.74,227.31L96.26,227.73L96.78,228.3L97.29,227.62L101.95,227.29L102.47,228.25L102.99,227.28L103.5,227.87L104.02,228.83L105.06,227.71L105.57,227.88L107.13,227.97L107.64,227.69L112.3,226.85L112.82,227.09L114.37,227.79L114.89,228.81L117.48,227.38L117.99,227.59L120.58,227.43L121.1,227.17L122.13,227.71L122.65,227.19L124.2,227.03L124.72,227.11L126.27,227.19L126.79,227.13L128.86,228.31L129.38,228.21L134.55,227.73L135.07,227.52L136.11,227.99L136.62,228.41L138.69,226.91L139.21,228.13L139.73,229.3L140.25,229.01L140.76,227.85L142.83,227.03L143.35,227.04L150.08,228.18L150.6,228.1L153.19,227.64L153.7,227.22L156.81,226.85L157.33,226.94L159.91,227.61L160.43,227.49L167.16,227.41L167.68,227.33L174.92,227.78L175.44,227.64L177.51,227.99L178.03,228.01L182.17,227.8L182.68,227.93L185.27,227.48L185.79,227.42L192.52,227.72L193.03,227.62L207.01,227.53L207.52,227.64L211.15,228.02L211.66,227.66L213.22,228.05L213.73,228.19L214.77,228.11L215.29,227.76L216.84,227.41L217.36,227.76L219.94,227.56L220.46,227.2L222.53,226.99L223.05,227.07L227.71,227.61L228.23,227.59L232.37,227.92L232.88,228.08L236.51,227.62L237.02,228.57L239.09,226.95L239.61,226.99L242.2,227.54L242.72,227.16L245.3,228.27L245.82,228.19L249.44,227.51L249.96,227.67L252.55,227.96L253.07,227.93L257.21,227.32L257.72,227.48L260.31,228.09L260.83,228.07L272.73,228.27L273.25,228.4L278.42,228.19L278.94,228.11L282.56,228.11L283.08,228.14L295.5,228.14L296.02,228L298.09,227.9L298.61,228.1L300.68,228.2L301.2,228.14L304.82,227.62L305.34,227.63L306.37,228.36L306.89,228.21L309.99,228.01L310.51,228.09L315.17,228.17L315.69,227.97L319.31,227.89L319.83,227.92L368.99,228.21L369.51,228.22L375.2,227.59L375.72,227.56L380.38,227.87L380.89,227.98L390.21,228.57L390.73,228.17L392.8,227.69L393.31,227.73L396.94,227.95L397.45,227.86L401.59,227.47L402.11,227.54L404.18,228.59L404.7,228.82L410.39,228.2L410.91,228.11L422.29,227.76L422.81,227.77L429.54,227.74L430.06,227.75L474.05,228.28L474.56,228.38L481.29,228.09L481.81,228.01L494.23,227.9L494.75,227.93L501.47,228.15L501.99,227.83L505.1,227.71L505.61,228.01L507.68,228.47L508.2,228.2L512.86,227.91L513.38,227.92L517,227.84" style="vector-effect: non-scaling-stroke; fill: none; stroke: rgb(44, 160, 44); stroke-opacity: 1; stroke-width: 2px; opacity: 1;"/></g><g class="points"/><g class="text"/></g></g></g><g class="overplot"/><path class="xlines-above crisp" d="M0,0" style="fill: none;"/><path class="ylines-above crisp" d="M0,0" style="fill: none;"/><g class="overlines-above"/><g class="xaxislayer-above"><g class="xtick"><text text-anchor="middle" x="0" y="403" transform="translate(60,0)" style="font-family: 'Open Sans', verdana, arial, sans-serif; font-size: 12px; fill: rgb(68, 68, 68); fill-opacity: 1; white-space: pre;">0</text></g><g class="xtick"><text text-anchor="middle" x="0" y="403" transform="translate(163.5,0)" style="font-family: 'Open Sans', verdana, arial, sans-serif; font-size: 12px; fill: rgb(68, 68, 68); fill-opacity: 1; white-space: pre;">200</text></g><g class="xtick"><text text-anchor="middle" x="0" y="403" transform="translate(267.01,0)" style="font-family: 'Open Sans', verdana, arial, sans-serif; font-size: 12px; fill: rgb(68, 68, 68); fill-opacity: 1; white-space: pre;">400</text></g><g class="xtick"><text text-anchor="middle" x="0" y="403" transform="translate(370.51,0)" style="font-family: 'Open Sans', verdana, arial, sans-serif; font-size: 12px; fill: rgb(68, 68, 68); fill-opacity: 1; white-space: pre;">600</text></g><g class="xtick"><text text-anchor="middle" x="0" y="403" transform="translate(474.01,0)" style="font-family: 'Open Sans', verdana, arial, sans-serif; font-size: 12px; fill: rgb(68, 68, 68); fill-opacity: 1; white-space: pre;">800</text></g></g><g class="yaxislayer-above"><g class="ytick"><text text-anchor="end" x="59" y="4.199999999999999" transform="translate(0,373.51)" style="font-family: 'Open Sans', verdana, arial, sans-serif; font-size: 12px; fill: rgb(68, 68, 68); fill-opacity: 1; white-space: pre;">0</text></g><g class="ytick"><text text-anchor="end" x="59" y="4.199999999999999" transform="translate(0,312.71000000000004)" style="font-family: 'Open Sans', verdana, arial, sans-serif; font-size: 12px; fill: rgb(68, 68, 68); fill-opacity: 1; white-space: pre;">0.5</text></g><g class="ytick"><text text-anchor="end" x="59" y="4.199999999999999" transform="translate(0,251.91)" style="font-family: 'Open Sans', verdana, arial, sans-serif; font-size: 12px; fill: rgb(68, 68, 68); fill-opacity: 1; white-space: pre;">1</text></g><g class="ytick"><text text-anchor="end" x="59" y="4.199999999999999" transform="translate(0,191.11)" style="font-family: 'Open Sans', verdana, arial, sans-serif; font-size: 12px; fill: rgb(68, 68, 68); fill-opacity: 1; white-space: pre;">1.5</text></g><g class="ytick"><text text-anchor="end" x="59" y="4.199999999999999" transform="translate(0,130.31)" style="font-family: 'Open Sans', verdana, arial, sans-serif; font-size: 12px; fill: rgb(68, 68, 68); fill-opacity: 1; white-space: pre;">2</text></g><g class="ytick"><text text-anchor="end" x="59" y="4.199999999999999" transform="translate(0,69.51)" style="font-family: 'Open Sans', verdana, arial, sans-serif; font-size: 12px; fill: rgb(68, 68, 68); fill-opacity: 1; white-space: pre;">2.5</text></g></g><g class="overaxes-above"/></g></g><g class="polarlayer"/><g class="ternarylayer"/><g class="geolayer"/><g class="funnelarealayer"/><g class="pielayer"/><g class="treemaplayer"/><g class="sunburstlayer"/><g class="glimages"/><defs id="topdefs-b1451b"><g class="clips"/><clipPath id="legendb1451b"><rect width="101" height="67" x="0" y="0"/></clipPath></defs><g class="layer-above"><g class="imagelayer"/><g class="shapelayer"/></g><g class="infolayer"><g class="legend" pointer-events="all" transform="translate(587.34, 60)"><rect class="bg" shape-rendering="crispEdges" width="101" height="67" x="0" y="0" style="stroke: rgb(68, 68, 68); stroke-opacity: 1; fill: rgb(255, 255, 255); fill-opacity: 1; stroke-width: 0px;"/><g class="scrollbox" transform="translate(0, 0)" clip-path="url('#legendb1451b')"><g class="groups"><g class="traces" transform="translate(0, 14.5)" style="opacity: 1;"><text class="legendtext" text-anchor="start" x="40" y="4.680000000000001" style="font-family: 'Open Sans', verdana, arial, sans-serif; font-size: 12px; fill: rgb(68, 68, 68); fill-opacity: 1; white-space: pre;">train loss</text><g class="layers" style="opacity: 1;"><g class="legendfill"/><g class="legendlines"><path class="js-line" d="M5,0h30" style="fill: none; stroke: rgb(31, 119, 180); stroke-opacity: 1; stroke-width: 2px;"/></g><g class="legendsymbols"><g class="legendpoints"/></g></g><rect class="legendtoggle" pointer-events="all" x="0" y="-9.5" width="95.78125" height="19" style="cursor: pointer; fill: rgb(0, 0, 0); fill-opacity: 0;"/></g><g class="traces" transform="translate(0, 33.5)" style="opacity: 1;"><text class="legendtext" text-anchor="start" x="40" y="4.680000000000001" style="font-family: 'Open Sans', verdana, arial, sans-serif; font-size: 12px; fill: rgb(68, 68, 68); fill-opacity: 1; white-space: pre;">test loss</text><g class="layers" style="opacity: 1;"><g class="legendfill"/><g class="legendlines"><path class="js-line" d="M5,0h30" style="fill: none; stroke: rgb(255, 127, 14); stroke-opacity: 1; stroke-width: 2px;"/></g><g class="legendsymbols"><g class="legendpoints"/></g></g><rect class="legendtoggle" pointer-events="all" x="0" y="-9.5" width="95.78125" height="19" style="cursor: pointer; fill: rgb(0, 0, 0); fill-opacity: 0;"/></g><g class="traces" transform="translate(0, 52.5)" style="opacity: 1;"><text class="legendtext" text-anchor="start" x="40" y="4.680000000000001" style="font-family: 'Open Sans', verdana, arial, sans-serif; font-size: 12px; fill: rgb(68, 68, 68); fill-opacity: 1; white-space: pre;">acc</text><g class="layers" style="opacity: 1;"><g class="legendfill"/><g class="legendlines"><path class="js-line" d="M5,0h30" style="fill: none; stroke: rgb(44, 160, 44); stroke-opacity: 1; stroke-width: 2px;"/></g><g class="legendsymbols"><g class="legendpoints"/></g></g><rect class="legendtoggle" pointer-events="all" x="0" y="-9.5" width="95.78125" height="19" style="cursor: pointer; fill: rgb(0, 0, 0); fill-opacity: 0;"/></g></g></g><rect class="scrollbar" rx="20" ry="3" width="0" height="0" x="0" y="0" style="fill: rgb(128, 139, 164); fill-opacity: 1;"/></g><g class="g-gtitle"><text class="gtitle" x="350" y="30" text-anchor="middle" dy="0em" style="font-family: 'Open Sans', verdana, arial, sans-serif; font-size: 17px; fill: rgb(68, 68, 68); opacity: 1; font-weight: normal; white-space: pre;">SAMPLE_PER_CLASS_10</text></g><g class="g-xtitle"/><g class="g-ytitle"/></g></svg>