<svg class="main-svg" xmlns="http://www.w3.org/2000/svg" xmlns:xlink="http://www.w3.org/1999/xlink" width="700" height="450" style="" viewBox="0 0 700 450"><rect x="0" y="0" width="700" height="450" style="fill: rgb(255, 255, 255); fill-opacity: 1;"/><defs id="defs-e7eb96"><g class="clips"><clipPath id="clipe7eb96xyplot" class="plotclip"><rect width="517" height="330"/></clipPath><clipPath class="axesclip" id="clipe7eb96x"><rect x="60" y="0" width="517" height="450"/></clipPath><clipPath class="axesclip" id="clipe7eb96y"><rect x="0" y="60" width="700" height="330"/></clipPath><clipPath class="axesclip" id="clipe7eb96xy"><rect x="60" y="60" width="517" height="330"/></clipPath></g><g class="gradients"/></defs><g class="bglayer"/><g class="layer-below"><g class="imagelayer"/><g class="shapelayer"/></g><g class="cartesianlayer"><g class="subplot xy"><g class="layer-subplot"><g class="shapelayer"/><g class="imagelayer"/></g><g class="gridlayer"><g class="x"><path class="xgrid crisp" transform="translate(163.5,0)" d="M0,60v330" style="stroke: rgb(238, 238, 238); stroke-opacity: 1; stroke-width: 1px;"/><path class="xgrid crisp" transform="translate(267.01,0)" d="M0,60v330" style="stroke: rgb(238, 238, 238); stroke-opacity: 1; stroke-width: 1px;"/><path class="xgrid crisp" transform="translate(370.51,0)" d="M0,60v330" style="stroke: rgb(238, 238, 238); stroke-opacity: 1; stroke-width: 1px;"/><path class="xgrid crisp" transform="translate(474.01,0)" d="M0,60v330" style="stroke: rgb(238, 238, 238); stroke-opacity: 1; stroke-width: 1px;"/></g><g class="y"><path class="ygrid crisp" transform="translate(0,304.12)" d="M60,0h517" style="stroke: rgb(238, 238, 238); stroke-opacity: 1; stroke-width: 1px;"/><path class="ygrid crisp" transform="translate(0,234.75)" d="M60,0h517" style="stroke: rgb(238, 238, 238); stroke-opacity: 1; stroke-width: 1px;"/><path class="ygrid crisp" transform="translate(0,165.37)" d="M60,0h517" style="stroke: rgb(238, 238, 238); stroke-opacity: 1; stroke-width: 1px;"/><path class="ygrid crisp" transform="translate(0,96)" d="M60,0h517" style="stroke: rgb(238, 238, 238); stroke-opacity: 1; stroke-width: 1px;"/></g></g><g class="zerolinelayer"><path class="xzl zl crisp" transform="translate(60,0)" d="M0,60v330" style="stroke: rgb(68, 68, 68); stroke-opacity: 1; stroke-width: 1px;"/><path class="yzl zl crisp" transform="translate(0,373.5)" d="M60,0h517" style="stroke: rgb(68, 68, 68); stroke-opacity: 1; stroke-width: 1px;"/></g><path class="xlines-below"/><path class="ylines-below"/><g class="overlines-below"/><g class="xaxislayer-below"/><g class="yaxislayer-below"/><g class="overaxes-below"/><g class="plot" transform="translate(60, 60)" clip-path="url('#clipe7eb96xyplot')"><g class="scatterlayer mlayer"><g class="trace scatter trace33bbda" style="stroke-miterlimit: 2; opacity: 1;"><g class="fills"/><g class="errorbars"/><g class="lines"><path class="js-line" d="M0,16.5L1.04,241.73L1.55,261.46L4.14,290.82L4.66,293.82L5.69,297.15L6.21,296.74L8.28,301.72L8.8,302.64L11.9,305.07L12.42,306.69L13.46,306.09L13.97,306.88L15.53,305.65L16.04,307.04L18.11,308.85L18.63,308.38L19.15,308.04L19.67,308.8L20.7,307.92L21.22,309.54L23.29,310.97L23.81,310.78L24.32,308.48L24.84,310.79L25.36,309.83L25.88,310.34L26.39,310.68L29.5,311.99L30.02,311.2L30.53,308.79L31.05,311.07L32.6,310.87L33.12,309.36L34.16,309.97L34.67,311.87L35.71,312.35L36.23,311.91L38.3,311.78L38.81,312.29L39.33,311.05L39.85,311.84L40.88,312.76L41.4,312.9L41.92,312.47L42.44,310.78L43.99,311.48L44.51,312.38L45.54,312.72L46.06,311.91L48.65,312.87L49.16,312.55L49.68,312.7L50.2,311.12L50.72,312.51L51.23,311.6L53.82,313.09L54.34,313.2L57.44,313.09L57.96,312.34L60.03,312.84L60.55,312.23L61.58,313.18L62.1,313.31L68.31,312.75L68.83,312.01L69.35,311.53L69.86,312.53L74.52,313.27L75.04,312.99L75.56,313.35L76.08,312.76L78.15,313.25L78.66,312.33L81.77,313.42L82.29,313.26L84.36,313.07L84.87,313.3L86.43,312.34L86.94,313.09L87.98,312.76L88.5,312.4L90.05,313.38L90.57,313.35L93.15,313.23L93.67,312.05L94.19,313.37L94.71,312.59L95.22,312.2L95.74,313.24L96.78,312.59L97.29,313.09L98.33,312.83L98.85,312.69L100.4,313.32L100.92,313.35L101.43,313.28L101.95,312.41L103.5,313.17L104.02,313.02L108.68,313.42L109.2,312.72L110.75,313.42L111.27,313.23L112.82,313.39L113.34,313L116.96,313.48L117.48,313.29L122.65,313.48L123.17,313.45L124.2,313.17L124.72,313.13L127.31,313.35L127.83,313.25L129.9,313.47L130.41,313.18L134.04,313.19L134.55,313.32L135.07,312.57L135.59,313.11L136.11,313.04L136.62,312.64L137.14,313.25L139.73,313.33L140.25,312.91L146.46,313.3L146.97,313.42L154.74,313.31L155.26,313.29L156.81,313.21L157.33,313.38L161.47,313.48L161.98,313.49L164.57,313.49L165.09,313.48L175.44,312.94L175.96,312.89L176.99,313.32L177.51,313.44L183.2,313.41L183.72,313.13L185.27,313.27L185.79,313.48L208.04,313.46L208.56,313.48L517,313.5" style="vector-effect: non-scaling-stroke; fill: none; stroke: rgb(31, 119, 180); stroke-opacity: 1; stroke-width: 2px; opacity: 1;"/></g><g class="points"/><g class="text"/></g><g class="trace scatter trace86a951" style="stroke-miterlimit: 2; opacity: 1;"><g class="fills"/><g class="errorbars"/><g class="lines"><path class="js-line" d="M0,171.58L1.55,256.58L2.07,256.3L3.62,274.57L4.14,270.9L5.18,276.71L5.69,275.54L6.21,283.44L6.73,279.69L7.76,284.75L8.28,284.65L9.83,283.14L10.35,284.74L10.87,283.95L11.39,284.58L11.9,285.18L12.42,287.21L12.94,287.2L13.46,284.39L14.49,287.81L15.01,285.19L15.53,286.4L16.04,282.73L16.56,280.96L17.08,285.9L17.6,286.7L18.11,285.62L18.63,286.04L19.15,285L19.67,286.89L20.18,284.43L21.22,282.17L21.74,283.93L22.25,283.12L22.77,284.31L23.81,283.75L24.32,282.93L24.84,281.91L25.36,283.79L25.88,280.65L26.39,285.62L26.91,285.17L27.43,282.93L28.98,280.96L29.5,278.76L30.02,274.22L30.53,276.9L31.05,281.7L31.57,274.18L32.09,282.2L32.6,281.08L33.12,281.17L33.64,281.29L34.16,280.46L35.19,280.86L35.71,280.06L36.23,280.38L36.74,281.76L37.26,276.8L37.78,279.31L38.3,276.78L38.81,277.51L39.33,278.93L39.85,280.34L40.37,280.03L40.88,278.68L42.44,274.36L42.95,279.62L43.47,275.68L43.99,276.29L44.51,279.09L45.02,279.35L45.54,277.3L46.06,272.28L46.58,277.09L47.09,276.95L47.61,275.14L48.65,276.87L49.16,273.12L49.68,275.2L50.2,272.37L50.72,274.86L51.23,272.68L51.75,276.8L52.27,274.19L53.3,276.01L53.82,272.79L54.34,275.74L54.86,274.4L55.37,273.23L55.89,273.59L56.41,272.19L56.93,273.93L57.44,272.07L57.96,269.74L58.48,272.76L59,272.8L59.51,270.92L60.03,268.64L60.55,272.1L61.58,273.65L62.1,271.84L63.14,271.72L63.65,270.44L64.17,271.23L64.69,267.96L65.21,271.34L65.72,267.85L66.24,269.7L66.76,268.15L67.28,271.01L67.79,268.91L68.31,271.05L68.83,266.83L69.86,271.67L70.38,267.4L70.9,269.92L71.42,268.4L71.93,268.85L72.45,270.48L72.97,270.21L73.49,268.38L75.56,268.01L76.08,265.35L77.11,268.99L77.63,268.94L78.15,263.7L78.66,268.87L79.18,270.69L79.7,267.28L80.22,261.83L80.73,268.21L81.25,270.15L81.77,267.31L82.29,265.74L82.8,270.26L84.36,268.8L84.87,267.97L85.91,265.43L86.43,262.34L86.94,266.89L87.46,266.73L87.98,266.31L88.5,267.7L89.01,266.22L90.05,268.16L90.57,267.04L91.08,267.53L91.6,265.41L92.12,263.98L92.64,265.72L93.15,260.08L93.67,264.32L94.19,265.07L94.71,242.64L95.22,269.28L95.74,267.57L96.26,264.63L97.29,269.54L97.81,267.03L98.85,268.32L99.36,267.59L99.88,268.38L100.4,267.11L100.92,267.43L101.43,266.31L101.95,263.83L102.47,265.81L102.99,267.48L103.5,265.52L104.02,266.27L104.54,264.26L105.06,264.75L105.57,267.13L106.61,266.44L107.13,264.44L108.68,266.01L109.2,265.74L110.23,266.58L110.75,264.99L111.78,265.15L112.3,262.81L112.82,262.42L113.34,264.42L113.85,266.24L114.37,265.99L114.89,264.11L116.96,263.28L117.48,261.92L117.99,263.26L118.51,261.17L119.55,263.97L120.06,263.41L121.62,263.31L122.13,262.03L122.65,262.44L123.17,261.84L124.2,256.17L124.72,259.76L125.24,264.16L125.76,263.58L126.27,264.59L127.83,262.01L128.34,262.84L128.86,263.05L129.38,260.03L129.9,261.57L130.41,260.89L130.93,260.02L131.45,259.82L131.97,261.42L132.48,260.95L133,259.33L133.52,261.72L134.04,259.08L134.55,263.94L135.07,260.01L136.11,265.04L136.62,263.92L138.69,263.97L139.21,263.2L140.25,259.81L140.76,260.53L142.32,259.05L142.83,260.63L143.35,261.05L143.87,257.51L144.9,261.58L145.42,258.88L146.97,260.89L147.49,260.38L148.01,256.47L148.53,259.69L149.05,258.37L149.56,259.13L151.63,259.22L152.15,257.78L152.67,257.81L153.19,256.85L154.22,260.1L154.74,259.24L156.81,258.06L157.33,259.35L159.4,259.44L159.91,259.74L160.43,259.01L160.95,259.82L163.54,259.97L164.05,259.16L165.09,258.19L165.61,258.23L166.64,257.15L167.16,257.68L167.68,255.23L168.19,257.85L168.71,255.85L169.23,256.13L169.75,257.73L170.78,257.45L171.3,257.63L171.82,254.56L172.33,256.93L173.37,259.15L173.89,258.87L174.92,256.14L175.44,257.37L175.96,256.97L176.47,258.53L176.99,257.68L177.51,259.6L178.03,259.74L178.54,257.03L179.06,259.12L179.58,257.47L180.1,257.38L180.61,258.96L181.13,259.54L181.65,258.84L182.17,257.83L182.68,255.01L183.2,256.55L183.72,254.97L184.24,256.96L184.75,255.55L186.31,256.7L186.82,254.27L187.34,255.92L187.86,255.04L188.38,254.86L188.89,256.58L191.48,254.91L192,255.52L192.52,254.57L193.03,254.91L193.55,255.21L195.1,254.99L195.62,253L197.17,256.05L197.69,255.14L198.73,256.54L199.24,256.01L199.76,256.08L200.28,255.24L200.8,254.22L201.31,255.46L201.83,254.24L202.35,249.76L203.38,254.14L203.9,252.75L204.94,254.1L205.45,253.96L207.01,253.89L207.52,252.89L208.56,251.81L209.08,251.58L210.11,252.24L210.63,251.16L211.66,252.53L212.18,252.52L213.73,253.41L214.25,252.79L214.77,252.52L215.29,248.99L216.84,251.94L217.36,252.07L220.46,253.18L220.98,251.06L222.02,252.48L222.53,250.69L224.09,249.58L224.6,249.8L225.12,250.11L225.64,249.36L226.16,250.35L226.67,248.42L227.71,249.78L228.23,248.78L229.26,250.11L229.78,248.57L230.3,246.74L230.81,248.4L231.85,250.57L232.37,247.42L233.4,250.88L233.92,250.6L234.44,250.65L234.95,243.35L235.99,249.83L236.51,250.14L238.58,250.21L239.09,249.14L240.13,249.72L240.65,248.77L241.16,246.79L241.68,248.23L243.23,244.15L243.75,245.29L245.3,246.66L245.82,246.33L246.34,247.73L246.86,246.66L247.37,244.21L247.89,246.94L248.93,248.79L249.44,248.42L249.96,248.3L251,248.51L251.51,248.86L252.03,245.47L252.55,248.64L254.1,245.56L254.62,246.46L256.69,247.72L257.21,247.34L258.76,247.74L259.28,246.43L259.79,248.58L260.31,248.36L260.83,247.75L261.86,247.05L262.38,247.09L263.42,243.83L263.93,247.33L266,246.25L266.52,243.86L267.56,245.13L268.07,245.44L268.59,246.03L269.11,243.44L270.14,246.25L270.66,244.24L271.18,246.43L271.7,245.94L272.21,246.38L275.84,246.13L276.35,244.41L277.91,246.42L278.42,246.01L278.94,244.83L279.46,246.07L280.49,245.06L281.01,245.94L282.05,246.29L282.56,246.22L284.12,245.83L284.63,245.76L286.19,245L286.7,244.11L287.74,244.3L288.26,239.2L288.77,244.32L289.29,244.21L289.81,244.03L290.33,244.14L290.84,243.45L292.4,243.55L292.91,239.33L294.98,243.13L295.5,240.37L296.02,241.93L296.54,240.23L297.57,245.26L298.09,244.25L300.68,243.83L301.2,244.05L301.71,239.43L302.23,243.88L302.75,244.11L303.27,243.18L304.82,244.94L305.34,244.68L306.37,244.65L306.89,244.75L308.44,244.69L308.96,243.47L309.99,243.82L310.51,243.04L311.55,240.42L312.06,241.3L312.58,243.13L313.1,242.72L313.62,242.68L314.65,242.1L315.17,241.52L315.69,241.54L316.2,242.53L316.72,242.75L317.24,243.83L320.34,243.62L320.86,243.69L323.97,243.49L324.48,242.86L325.52,243.05L326.04,242.05L326.55,242.23L327.07,243.23L327.59,242.42L328.11,242.96L328.62,243L329.14,238.19L329.66,241.92L330.69,236.99L331.21,239.1L331.73,239.95L332.25,238.89L332.76,237.16L333.28,237.98L333.8,238.7L335.35,239.1L335.87,239.25L337.42,239.5L337.94,239.59L338.46,236.79L338.97,237.65L339.49,238.05L340.01,237.65L340.53,231.2L341.56,237.57L342.08,238.45L343.11,238.34L343.63,237.21L344.67,238.62L345.18,238.05L346.22,239.47L346.74,239.5L349.84,238.87L350.36,238.94L351.39,238.07L351.91,238.04L353.98,237.74L354.5,237.72L355.53,237.14L356.05,236.98L357.09,236.86L357.6,236.94L358.64,237.19L359.16,237.73L359.67,237.88L360.19,235.1L361.74,237.5L362.26,237.63L362.78,237.55L363.3,238.32L363.81,238.43L364.33,237.58L365.37,238.7L365.88,238.77L368.47,238.82L368.99,238.84L371.58,238.41L372.1,239L375.72,238.68L376.24,235.63L376.75,235.15L377.27,236.72L377.79,233.43L378.31,236.73L378.82,237.15L379.34,236.42L380.38,238.66L380.89,239.33L381.93,239.12L382.45,239.09L384,238.76L384.52,237L385.55,238.96L386.07,237.26L386.59,238.44L387.1,238L387.62,237.97L388.14,237.12L388.66,237.55L389.17,237.8L390.73,238.07L391.24,237.99L401.08,238.61L401.59,237.47L402.63,237.59L403.15,235.16L404.7,236.83L405.22,237.2L405.73,237.3L406.25,234.33L407.8,235.87L408.32,236.08L411.94,236.16L412.46,234.74L412.98,234.28L413.5,235.04L417.64,235.79L418.15,234.68L419.19,235.45L419.71,234.7L420.74,235.61L421.26,235.77L422.81,235.43L423.33,234.36L423.85,234.35L424.36,235.4L425.92,235.77L426.43,235.71L426.95,235.12L427.47,236.05L428.5,236.17L429.02,236.14L429.54,236.22L430.06,235.25L433.16,236.69L433.68,236.19L434.71,235.22L435.23,235.11L436.78,235.05L437.3,235.02L440.92,234.48L441.44,234.99L441.96,235L442.48,234.18L443.51,234.27L444.03,233.69L446.62,233.43L447.14,232.83L447.65,232.28L448.17,233.71L449.21,233.47L449.72,233.54L452.83,233.09L453.35,231.62L453.86,232.85L454.38,232.53L454.9,232.32L455.42,232.47L455.93,233.66L456.45,233.49L456.97,230.75L457.49,231.35L458,228.64L459.04,230.2L459.56,230.45L462.66,230.66L463.18,230.55L476.12,230.31L476.63,227.46L477.67,227.87L478.19,228.36L479.22,228.83L479.74,228.87L481.29,227.04L481.81,227.77L482.33,227.97L482.84,227.31L483.88,227.05L484.4,227.92L488.02,227.94L488.54,227.8L491.12,227.06L491.64,227.88L493.19,228.55L493.71,228.8L494.23,229.31L494.75,228.36L496.3,227.66L496.82,227.27L498.89,228.95L499.4,227.6L501.47,228.61L501.99,228.94L503.54,229.9L504.06,228.94L505.61,228.68L506.13,227.84L506.65,224.87L507.17,225.81L507.68,225.97L508.72,226.74L509.24,224.36L510.79,228.93L511.31,228.45L513.38,227.51L513.89,227.86L517,228.07" style="vector-effect: non-scaling-stroke; fill: none; stroke: rgb(255, 127, 14); stroke-opacity: 1; stroke-width: 2px; opacity: 1;"/></g><g class="points"/><g class="text"/></g><g class="trace scatter traced17c7a" style="stroke-miterlimit: 2; opacity: 1;"><g class="fills"/><g class="errorbars"/><g class="lines"><path class="js-line" d="M0,232.72L1.55,199.23L2.07,199.58L3.62,192.22L4.14,192.53L5.69,189.93L6.21,186.46L6.73,188.59L7.25,186.22L8.28,185.63L8.8,186.57L9.83,186.35L10.35,185.4L11.39,185.62L11.9,184.96L12.94,183.62L13.46,184.88L13.97,184.61L14.49,183.04L16.04,185.26L16.56,185.17L17.6,183.06L18.11,183.21L20.18,183.42L20.7,184.14L21.22,184.29L21.74,183.55L25.36,182.77L25.88,183.83L26.91,182.2L27.43,182.65L29.5,182.97L30.02,183.94L31.05,182.74L31.57,183.69L32.6,182.48L33.12,182.98L37.78,182.32L38.3,182.94L40.37,182.05L40.88,182.26L42.95,182.44L43.47,183.34L45.54,182.09L46.06,183.31L46.58,182.09L47.09,182.39L47.61,182.61L48.65,182.07L49.16,182.68L49.68,182.27L50.2,182.83L50.72,182.29L51.23,183.25L52.27,182.3L52.79,181.98L54.86,182.09L55.37,182.24L57.44,182.39L57.96,182.57L59,182.12L59.51,182.25L60.55,182.08L61.07,181.83L64.17,182.29L64.69,182.81L65.21,182.15L65.72,182.91L67.28,182.08L67.79,182.49L68.31,182.12L68.83,182.78L69.86,182.19L70.38,182.6L71.42,182.58L71.93,182.4L73.49,182.22L74.01,182.12L75.56,182.21L76.08,182.9L77.63,181.99L78.15,182.76L79.7,182.44L80.22,183.06L81.25,182.13L81.77,182.16L82.29,182.74L82.8,182.07L85.39,182.46L85.91,182.54L86.43,183.37L86.94,182.35L90.57,182.08L91.08,181.97L93.15,182.79L93.67,182.38L94.19,182.21L94.71,184.08L95.22,181.98L95.74,182.24L96.26,182.72L98.85,181.97L99.36,182.09L111.78,182.14L112.3,182.39L119.03,181.99L119.55,181.9L124.72,182.16L125.24,181.95L132.48,182.22L133,182.68L133.52,182.26L134.04,182.88L134.55,182.18L135.07,182.68L135.59,182.17L142.83,182.32L143.35,182.2L144.39,182.16L144.9,182.35L160.43,182.03L160.95,181.94L173.37,182.01L173.89,181.88L175.96,182.52L176.47,182.2L185.27,182.06L185.79,181.9L190.45,182.1L190.96,182.07L201.83,182.02L202.35,182.7L203.38,182L203.9,182.19L205.97,181.98L206.49,182L377.27,182.02L377.79,182.58L379.34,182.22L379.86,181.97L412.46,182.05L412.98,182.08L423.33,182.03L423.85,182.06L430.06,181.92L430.57,181.92L517,181.91" style="vector-effect: non-scaling-stroke; fill: none; stroke: rgb(44, 160, 44); stroke-opacity: 1; stroke-width: 2px; opacity: 1;"/></g><g class="points"/><g class="text"/></g></g></g><g class="overplot"/><path class="xlines-above crisp" d="M0,0" style="fill: none;"/><path class="ylines-above crisp" d="M0,0" style="fill: none;"/><g class="overlines-above"/><g class="xaxislayer-above"><g class="xtick"><text text-anchor="middle" x="0" y="403" transform="translate(60,0)" style="font-family: 'Open Sans', verdana, arial, sans-serif; font-size: 12px; fill: rgb(68, 68, 68); fill-opacity: 1; white-space: pre;">0</text></g><g class="xtick"><text text-anchor="middle" x="0" y="403" transform="translate(163.5,0)" style="font-family: 'Open Sans', verdana, arial, sans-serif; font-size: 12px; fill: rgb(68, 68, 68); fill-opacity: 1; white-space: pre;">200</text></g><g class="xtick"><text text-anchor="middle" x="0" y="403" transform="translate(267.01,0)" style="font-family: 'Open Sans', verdana, arial, sans-serif; font-size: 12px; fill: rgb(68, 68, 68); fill-opacity: 1; white-space: pre;">400</text></g><g class="xtick"><text text-anchor="middle" x="0" y="403" transform="translate(370.51,0)" style="font-family: 'Open Sans', verdana, arial, sans-serif; font-size: 12px; fill: rgb(68, 68, 68); fill-opacity: 1; white-space: pre;">600</text></g><g class="xtick"><text text-anchor="middle" x="0" y="403" transform="translate(474.01,0)" style="font-family: 'Open Sans', verdana, arial, sans-serif; font-size: 12px; fill: rgb(68, 68, 68); fill-opacity: 1; white-space: pre;">800</text></g></g><g class="yaxislayer-above"><g class="ytick"><text text-anchor="end" x="59" y="4.199999999999999" transform="translate(0,373.5)" style="font-family: 'Open Sans', verdana, arial, sans-serif; font-size: 12px; fill: rgb(68, 68, 68); fill-opacity: 1; white-space: pre;">0</text></g><g class="ytick"><text text-anchor="end" x="59" y="4.199999999999999" transform="translate(0,304.12)" style="font-family: 'Open Sans', verdana, arial, sans-serif; font-size: 12px; fill: rgb(68, 68, 68); fill-opacity: 1; white-space: pre;">0.5</text></g><g class="ytick"><text text-anchor="end" x="59" y="4.199999999999999" transform="translate(0,234.75)" style="font-family: 'Open Sans', verdana, arial, sans-serif; font-size: 12px; fill: rgb(68, 68, 68); fill-opacity: 1; white-space: pre;">1</text></g><g class="ytick"><text text-anchor="end" x="59" y="4.199999999999999" transform="translate(0,165.37)" style="font-family: 'Open Sans', verdana, arial, sans-serif; font-size: 12px; fill: rgb(68, 68, 68); fill-opacity: 1; white-space: pre;">1.5</text></g><g class="ytick"><text text-anchor="end" x="59" y="4.199999999999999" transform="translate(0,96)" style="font-family: 'Open Sans', verdana, arial, sans-serif; font-size: 12px; fill: rgb(68, 68, 68); fill-opacity: 1; white-space: pre;">2</text></g></g><g class="overaxes-above"/></g></g><g class="polarlayer"/><g class="ternarylayer"/><g class="geolayer"/><g class="funnelarealayer"/><g class="pielayer"/><g class="treemaplayer"/><g class="sunburstlayer"/><g class="glimages"/><defs id="topdefs-e7eb96"><g class="clips"/><clipPath id="legende7eb96"><rect width="101" height="67" x="0" y="0"/></clipPath></defs><g class="layer-above"><g class="imagelayer"/><g class="shapelayer"/></g><g class="infolayer"><g class="legend" pointer-events="all" transform="translate(587.34, 60)"><rect class="bg" shape-rendering="crispEdges" width="101" height="67" x="0" y="0" style="stroke: rgb(68, 68, 68); stroke-opacity: 1; fill: rgb(255, 255, 255); fill-opacity: 1; stroke-width: 0px;"/><g class="scrollbox" transform="translate(0, 0)" clip-path="url('#legende7eb96')"><g class="groups"><g class="traces" transform="translate(0, 14.5)" style="opacity: 1;"><text class="legendtext" text-anchor="start" x="40" y="4.680000000000001" style="font-family: 'Open Sans', verdana, arial, sans-serif; font-size: 12px; fill: rgb(68, 68, 68); fill-opacity: 1; white-space: pre;">train loss</text><g class="layers" style="opacity: 1;"><g class="legendfill"/><g class="legendlines"><path class="js-line" d="M5,0h30" style="fill: none; stroke: rgb(31, 119, 180); stroke-opacity: 1; stroke-width: 2px;"/></g><g class="legendsymbols"><g class="legendpoints"/></g></g><rect class="legendtoggle" pointer-events="all" x="0" y="-9.5" width="95.78125" height="19" style="cursor: pointer; fill: rgb(0, 0, 0); fill-opacity: 0;"/></g><g class="traces" transform="translate(0, 33.5)" style="opacity: 1;"><text class="legendtext" text-anchor="start" x="40" y="4.680000000000001" style="font-family: 'Open Sans', verdana, arial, sans-serif; font-size: 12px; fill: rgb(68, 68, 68); fill-opacity: 1; white-space: pre;">test loss</text><g class="layers" style="opacity: 1;"><g class="legendfill"/><g class="legendlines"><path class="js-line" d="M5,0h30" style="fill: none; stroke: rgb(255, 127, 14); stroke-opacity: 1; stroke-width: 2px;"/></g><g class="legendsymbols"><g class="legendpoints"/></g></g><rect class="legendtoggle" pointer-events="all" x="0" y="-9.5" width="95.78125" height="19" style="cursor: pointer; fill: rgb(0, 0, 0); fill-opacity: 0;"/></g><g class="traces" transform="translate(0, 52.5)" style="opacity: 1;"><text class="legendtext" text-anchor="start" x="40" y="4.680000000000001" style="font-family: 'Open Sans', verdana, arial, sans-serif; font-size: 12px; fill: rgb(68, 68, 68); fill-opacity: 1; white-space: pre;">acc</text><g class="layers" style="opacity: 1;"><g class="legendfill"/><g class="legendlines"><path class="js-line" d="M5,0h30" style="fill: none; stroke: rgb(44, 160, 44); stroke-opacity: 1; stroke-width: 2px;"/></g><g class="legendsymbols"><g class="legendpoints"/></g></g><rect class="legendtoggle" pointer-events="all" x="0" y="-9.5" width="95.78125" height="19" style="cursor: pointer; fill: rgb(0, 0, 0); fill-opacity: 0;"/></g></g></g><rect class="scrollbar" rx="20" ry="3" width="0" height="0" x="0" y="0" style="fill: rgb(128, 139, 164); fill-opacity: 1;"/></g><g class="g-gtitle"><text class="gtitle" x="350" y="30" text-anchor="middle" dy="0em" style="font-family: 'Open Sans', verdana, arial, sans-serif; font-size: 17px; fill: rgb(68, 68, 68); opacity: 1; font-weight: normal; white-space: pre;">SAMPLE_PER_CLASS_50</text></g><g class="g-xtitle"/><g class="g-ytitle"/></g></svg>