<svg class="main-svg" xmlns="http://www.w3.org/2000/svg" xmlns:xlink="http://www.w3.org/1999/xlink" width="700" height="450" style="" viewBox="0 0 700 450"><rect x="0" y="0" width="700" height="450" style="fill: rgb(255, 255, 255); fill-opacity: 1;"/><defs id="defs-092f8e"><g class="clips"><clipPath id="clip092f8exyplot" class="plotclip"><rect width="517" height="330"/></clipPath><clipPath class="axesclip" id="clip092f8ex"><rect x="60" y="0" width="517" height="450"/></clipPath><clipPath class="axesclip" id="clip092f8ey"><rect x="0" y="60" width="700" height="330"/></clipPath><clipPath class="axesclip" id="clip092f8exy"><rect x="60" y="60" width="517" height="330"/></clipPath></g><g class="gradients"/></defs><g class="bglayer"/><g class="layer-below"><g class="imagelayer"/><g class="shapelayer"/></g><g class="cartesianlayer"><g class="subplot xy"><g class="layer-subplot"><g class="shapelayer"/><g class="imagelayer"/></g><g class="gridlayer"><g class="x"><path class="xgrid crisp" transform="translate(163.5,0)" d="M0,60v330" style="stroke: rgb(238, 238, 238); stroke-opacity: 1; stroke-width: 1px;"/><path class="xgrid crisp" transform="translate(267.01,0)" d="M0,60v330" style="stroke: rgb(238, 238, 238); stroke-opacity: 1; stroke-width: 1px;"/><path class="xgrid crisp" transform="translate(370.51,0)" d="M0,60v330" style="stroke: rgb(238, 238, 238); stroke-opacity: 1; stroke-width: 1px;"/><path class="xgrid crisp" transform="translate(474.01,0)" d="M0,60v330" style="stroke: rgb(238, 238, 238); stroke-opacity: 1; stroke-width: 1px;"/></g><g class="y"><path class="ygrid crisp" transform="translate(0,333.52)" d="M60,0h517" style="stroke: rgb(238, 238, 238); stroke-opacity: 1; stroke-width: 1px;"/><path class="ygrid crisp" transform="translate(0,293.53999999999996)" d="M60,0h517" style="stroke: rgb(238, 238, 238); stroke-opacity: 1; stroke-width: 1px;"/><path class="ygrid crisp" transform="translate(0,253.56)" d="M60,0h517" style="stroke: rgb(238, 238, 238); stroke-opacity: 1; stroke-width: 1px;"/><path class="ygrid crisp" transform="translate(0,213.58)" d="M60,0h517" style="stroke: rgb(238, 238, 238); stroke-opacity: 1; stroke-width: 1px;"/><path class="ygrid crisp" transform="translate(0,173.6)" d="M60,0h517" style="stroke: rgb(238, 238, 238); stroke-opacity: 1; stroke-width: 1px;"/><path class="ygrid crisp" transform="translate(0,133.62)" d="M60,0h517" style="stroke: rgb(238, 238, 238); stroke-opacity: 1; stroke-width: 1px;"/><path class="ygrid crisp" transform="translate(0,93.65)" d="M60,0h517" style="stroke: rgb(238, 238, 238); stroke-opacity: 1; stroke-width: 1px;"/></g></g><g class="zerolinelayer"><path class="xzl zl crisp" transform="translate(60,0)" d="M0,60v330" style="stroke: rgb(68, 68, 68); stroke-opacity: 1; stroke-width: 1px;"/><path class="yzl zl crisp" transform="translate(0,373.5)" d="M60,0h517" style="stroke: rgb(68, 68, 68); stroke-opacity: 1; stroke-width: 1px;"/></g><path class="xlines-below"/><path class="ylines-below"/><g class="overlines-below"/><g class="xaxislayer-below"/><g class="yaxislayer-below"/><g class="overaxes-below"/><g class="plot" transform="translate(60, 60)" clip-path="url('#clip092f8exyplot')"><g class="scatterlayer mlayer"><g class="trace scatter trace92045e" style="stroke-miterlimit: 2; opacity: 1;"><g class="fills"/><g class="errorbars"/><g class="lines"><path class="js-line" d="M0,16.5L1.04,257.83L1.55,274.57L3.11,290.99L3.62,293.24L4.14,293.68L4.66,296.59L5.18,297.95L5.69,297.74L6.21,298.34L7.76,302.78L8.28,301.78L9.32,302.8L9.83,303.76L11.39,305.16L11.9,305.09L12.94,306.93L13.46,304.95L15.01,307.08L15.53,307.47L16.04,307.85L16.56,309.57L17.08,308.49L17.6,309.39L18.11,309.87L18.63,309.19L19.15,309.06L19.67,310.02L20.7,309.3L21.22,309.66L22.25,309.27L22.77,310.04L24.32,310.99L24.84,308.71L25.36,310.71L25.88,309.62L26.39,311.84L26.91,310.84L27.43,312.13L29.5,311.51L30.02,311.91L31.57,311.3L32.09,310.12L33.64,312.2L34.16,311.28L36.74,313L37.26,312.62L37.78,311.2L38.3,311.68L38.81,310.78L39.33,312.66L39.85,311.56L40.37,311.5L40.88,312.81L43.99,311.91L44.51,310.28L46.06,313.11L46.58,313.03L50.72,311.95L51.23,312.43L54.34,312.67L54.86,313.02L55.37,312.19L55.89,312.99L57.96,312.96L58.48,311.76L59,311.79L59.51,312.97L60.55,312.89L61.07,312.49L62.62,313.43L63.14,313.45L64.69,312.38L65.21,312.77L68.31,312.92L68.83,312.23L71.42,312.99L71.93,313.11L74.01,313.3L74.52,313.38L80.73,312.6L81.25,313.01L82.8,312.6L83.32,313.28L87.46,312.86L87.98,312.34L89.01,313.09L89.53,313.14L90.57,313.44L91.08,312.53L92.64,313.11L93.15,312.48L94.19,313.13L94.71,313.16L96.26,311.96L96.78,313L97.81,312.43L98.33,312.73L99.36,313.27L99.88,312.46L101.43,313.32L101.95,313.11L107.64,313.32L108.16,313.42L117.48,313.4L117.99,313.01L119.55,313.27L120.06,313.19L128.86,313.47L129.38,313.37L131.97,313.47L132.48,312.48L134.04,313.44L134.55,313.39L137.14,312.97L137.66,313.47L138.18,312.78L138.69,313.31L139.21,313.31L140.76,312.67L141.28,313.37L146.97,313.28L147.49,312.78L149.05,313.32L149.56,313.21L152.67,313.3L153.19,312.86L154.74,313.12L155.26,313.33L160.43,313.4L160.95,313.43L164.57,313.05L165.09,313.48L168.19,313.46L168.71,313.48L174.4,313.47L174.92,313.49L176.47,313.43L176.99,313.44L203.9,313.44L204.42,312.84L205.45,313.35L205.97,313.47L219.94,313.48L220.46,313.27L223.05,313.42L223.57,313.26L226.16,313.39L226.67,313.39L229.78,313.46L230.3,313.49L517,313.5" style="vector-effect: non-scaling-stroke; fill: none; stroke: rgb(31, 119, 180); stroke-opacity: 1; stroke-width: 2px; opacity: 1;"/></g><g class="points"/><g class="text"/></g><g class="trace scatter trace618886" style="stroke-miterlimit: 2; opacity: 1;"><g class="fills"/><g class="errorbars"/><g class="lines"><path class="js-line" d="M0,196.83L1.55,256.82L2.07,270.12L2.59,264.23L3.11,268.34L5.18,277.26L5.69,273.16L6.73,282.21L7.25,281.62L7.76,277.34L8.28,280.76L9.32,284.34L9.83,281.25L10.35,285.59L10.87,279.82L11.39,287.25L11.9,283.55L12.42,287.89L12.94,284.43L13.46,286.67L13.97,282.63L15.01,287.71L15.53,287.18L16.04,285.58L17.08,285.61L17.6,285.37L18.11,288.22L18.63,283.06L19.67,285.5L20.18,285.12L20.7,282.17L21.22,284.19L21.74,282.41L22.25,267.82L23.29,283.91L23.81,281.99L24.84,280.17L25.36,282.48L25.88,281.94L26.39,284.06L26.91,284.16L27.43,280.88L28.46,282.17L28.98,277.98L29.5,279.02L30.02,281.87L30.53,283.74L31.05,274.03L32.6,283.43L33.12,280.37L34.16,279.94L34.67,276.72L35.19,275.77L35.71,280.24L36.23,281.6L36.74,279.12L37.78,274.67L38.3,277.53L38.81,276.76L39.33,278.13L39.85,278.22L40.37,270.84L40.88,278.48L41.4,277.27L41.92,277.62L42.44,277.48L42.95,268.98L43.47,278.64L43.99,268.26L44.51,275.46L45.02,273.6L45.54,277.55L46.58,276.29L47.09,272.53L47.61,275.11L48.13,274.54L48.65,265.43L49.16,273.91L49.68,272.89L50.2,271.65L50.72,276.92L51.23,274.82L51.75,273.92L52.27,274.37L52.79,268.94L53.3,274.69L53.82,261.12L54.34,274.92L54.86,272.76L55.37,273.17L56.41,271.17L56.93,272.08L57.44,273.37L57.96,273.09L58.48,273.4L59.51,273.3L60.03,270.09L61.07,269.4L61.58,273.54L62.1,275.02L62.62,274.18L63.65,270.41L64.17,271.71L64.69,272.01L65.21,271.19L65.72,271.76L66.24,271.29L66.76,270.41L67.28,268.96L67.79,272.6L68.31,267.94L68.83,270.5L69.35,268.82L69.86,269.9L70.38,270.92L70.9,269.99L71.42,273.25L71.93,267.89L72.45,269.79L72.97,267.61L74.01,272.31L74.52,269.23L75.04,272.24L75.56,266.83L77.11,270.83L77.63,266.8L78.66,266.84L79.18,265.31L79.7,268.43L80.22,265.96L80.73,264.08L81.25,268.34L82.29,264.49L82.8,269.67L83.84,268.42L84.36,264.76L85.39,267.78L85.91,267.56L86.94,263.67L87.46,263.67L87.98,263.32L88.5,259.85L89.53,264.95L90.05,266.53L90.57,266.56L91.08,264.83L91.6,268.5L92.12,266.64L92.64,267.68L93.15,263.7L94.19,266.62L94.71,259.25L95.74,266.76L96.26,265.92L96.78,265.55L97.29,266.87L97.81,260.7L98.33,269.27L98.85,268.43L99.36,265.12L100.92,267.84L101.43,266.63L101.95,266.33L102.47,264.88L103.5,265.34L104.02,261.53L105.06,261.84L105.57,257.86L106.61,262.82L107.13,263.07L108.16,264.97L108.68,264.02L109.71,265.04L110.23,264.21L111.78,264.72L112.3,263.39L113.34,264.7L113.85,264L114.37,259.45L114.89,262.76L116.44,261.18L116.96,262.06L117.99,255.18L118.51,261.09L119.03,261.84L119.55,260.11L120.06,259.68L120.58,254.94L121.62,261.63L122.13,255.26L122.65,261.28L123.17,257.27L124.72,261.45L125.24,256.21L126.79,262.34L127.31,261.37L128.34,258.45L128.86,260.84L129.38,259.33L129.9,260.81L130.41,260.91L130.93,259.1L133,257.71L133.52,255.6L134.04,257.86L134.55,256.49L135.59,258.43L136.11,257.8L136.62,254.44L137.14,257.09L137.66,257.32L138.18,253.85L139.21,258.91L139.73,257.49L141.28,254.36L141.8,257.96L142.83,253.11L143.35,242.05L144.39,254.85L144.9,254.56L145.94,255.21L146.46,254.72L146.97,251.73L147.49,255.51L148.01,255.91L148.53,258.97L149.05,259.33L149.56,257.93L150.08,256.26L150.6,258.25L151.63,257.69L152.15,257.34L152.67,257.31L153.19,258.4L153.7,258.26L154.22,253L155.26,257.5L155.77,253.83L157.84,256.11L158.36,255.22L159.4,255.96L159.91,254.99L160.43,251.04L160.95,254.3L161.47,250.01L161.98,255.44L162.5,255.32L163.02,254.25L163.54,255.73L164.05,250.65L165.61,255.05L166.12,252.3L166.64,256.07L167.16,255.84L167.68,254.13L168.71,254.37L169.23,253.75L169.75,254.01L170.26,252.41L170.78,253.25L171.3,251.81L171.82,254.39L172.33,252.94L173.37,252.98L173.89,252.94L174.92,249.07L175.44,245.56L175.96,252.64L176.47,252.31L176.99,251.45L177.51,252.83L178.03,252.03L179.06,251.97L179.58,251.22L180.61,250.51L181.13,250.64L181.65,251.22L182.17,248.62L182.68,249.88L183.2,249.37L183.72,250.18L184.24,251.13L184.75,248.82L185.79,249.78L186.31,247.75L186.82,246.15L187.34,246.98L187.86,246.46L188.38,236.76L188.89,244.08L189.41,244.67L189.93,247.13L190.45,236.44L190.96,247.47L191.48,247.36L192,248.66L193.03,246.97L193.55,244.41L194.59,247.44L195.1,248.51L195.62,246.2L196.14,247.48L196.66,247.18L197.17,245.56L197.69,248.73L198.21,246.76L198.73,246.45L199.24,248.45L199.76,246.19L200.28,246.38L200.8,249.07L202.87,247.28L203.38,248.16L203.9,249.22L204.42,247.38L204.94,245.88L205.45,250.38L207.01,248.74L207.52,248.63L208.56,248.82L209.08,250.16L210.11,247.53L210.63,248.74L211.66,246.15L212.18,246.64L212.7,246.94L214.25,246.76L214.77,244.65L215.29,235.9L215.8,246.76L216.32,242.39L216.84,247.51L218.39,246.37L218.91,246.76L219.43,244.1L219.94,247.92L220.46,234.8L220.98,246.76L222.02,242.74L222.53,243.25L223.05,243.83L223.57,244.9L224.09,243.82L224.6,243.57L225.12,241.84L226.16,242.86L226.67,241.75L227.19,241.67L227.71,243.14L228.23,243.73L228.74,242.97L229.26,245.43L229.78,241.11L230.81,243.26L231.33,242.26L231.85,241.16L232.37,237.08L232.88,243.41L233.4,242.48L233.92,243.27L234.44,238.96L234.95,243.42L235.99,243.47L236.51,244.37L237.02,244.28L237.54,239.56L238.58,244.85L239.09,244.65L239.61,244.51L240.13,239.85L240.65,243.19L241.16,240.63L242.72,242.75L243.23,243.38L244.79,243.85L245.3,242.52L245.82,242.18L246.34,243.51L246.86,245.02L247.37,243.67L247.89,243.12L248.41,240.27L248.93,240.49L249.44,241.81L251,244.76L251.51,244.36L253.07,244.78L253.58,243.97L254.1,244.2L254.62,231.31L255.14,244.83L255.65,244.23L256.17,243.78L257.21,245.39L257.72,245.73L258.24,245.61L258.76,243.56L259.79,245.84L260.31,245.6L261.86,246.23L262.38,240.44L263.42,245.79L263.93,243.4L264.97,246.45L265.49,245.72L266,246.41L267.04,242.77L267.56,244.73L268.07,245.89L268.59,242.07L269.11,241.84L269.63,243.83L270.66,244.93L271.18,244.8L271.7,244.71L272.21,241.48L272.73,241.53L273.25,242.55L274.28,244.25L274.8,243.35L275.84,237.88L276.35,241.34L277.91,241.11L278.42,239.93L279.98,242.52L280.49,242.89L281.01,242.66L281.53,241.34L282.05,239.45L282.56,241.04L283.6,241.96L284.12,240.84L285.15,240.48L285.67,240.26L287.22,241.41L287.74,241L288.77,241.04L289.29,241.03L290.84,241.46L291.36,241.01L292.4,241.78L292.91,241.56L293.43,241.48L293.95,239.11L294.47,241.04L294.98,238.91L296.02,242.22L296.54,241.84L297.06,241.44L297.57,239.46L298.61,239.21L299.13,240.67L299.64,240.14L300.16,240.94L301.2,240.99L301.71,238.93L302.23,238.99L302.75,240.2L303.78,240.35L304.3,237.08L304.82,241.83L305.34,241.17L305.85,241.6L306.89,241.12L307.41,241.4L308.96,242.42L309.48,240.41L310.51,239.96L311.03,240.26L311.55,240.26L312.06,238.94L314.13,240.09L314.65,236.15L315.69,239.19L316.2,239.11L316.72,238.4L317.24,239.29L318.27,241.18L318.79,240.86L319.31,240.7L319.83,239.4L320.86,238.88L321.38,239.57L322.93,240.46L323.45,238.98L325,239.19L325.52,238.68L327.07,238.9L327.59,239.28L328.11,240.31L328.62,238.47L329.14,233.92L329.66,238.36L330.69,236.7L331.21,236.73L332.76,236.78L333.28,237.7L333.8,236.73L334.32,237.4L334.83,234.83L335.35,236.8L337.42,236.09L337.94,233.48L338.46,230.94L338.97,233.58L340.01,229.43L340.53,231.52L341.56,236.37L342.08,237.23L343.11,233.17L343.63,234.84L344.15,234.34L344.67,234.93L345.7,236.51L346.22,236.65L346.74,235.64L347.25,237.01L347.77,235.69L348.29,236.29L348.81,236.44L350.88,235.87L351.39,236.28L351.91,236.43L352.43,235.1L352.95,236.65L353.46,234.88L355.02,235.11L355.53,232.54L357.6,232.84L358.12,233.62L358.64,229.63L359.16,235.09L359.67,234.36L360.19,234.82L360.71,235.52L363.81,234.61L364.33,235.32L365.37,234.57L365.88,234.84L366.92,235.3L367.44,235.48L371.58,235.12L372.1,234.33L376.24,234.27L376.75,234.01L377.27,233.13L377.79,233.53L378.31,233.57L378.82,233.89L379.34,230.2L380.89,234.27L381.41,234.68L383.48,233.31L384,232.88L385.03,223.74L385.55,228.53L386.59,231.12L387.1,230.72L387.62,230.84L388.66,230.65L389.17,230.31L389.69,225.65L390.21,230.33L392.28,230.01L392.8,229.38L395.9,229.35L396.42,229.58L397.45,230.25L397.97,229.36L399.01,228.87L399.52,229.49L400.04,228.77L400.56,229.22L401.08,225.61L401.59,225.58L402.11,227.44L403.66,227.29L404.18,228.02L406.25,230.74L406.77,229.81L407.8,224.69L408.32,225.48L408.84,226.29L409.87,227.66L410.39,227.16L410.91,226.63L411.43,228.14L412.46,227.99L412.98,228.25L415.57,229.89L416.08,229.68L417.12,229.84L417.64,229.04L419.19,229.46L419.71,229.49L420.74,229.2L421.26,224.98L422.81,226.67L423.33,226.53L423.85,226.47L424.36,223.01L425.4,227.78L425.92,228.06L431.09,228.2L431.61,227.05L434.71,227.52L435.23,227.84L437.82,227.99L438.34,224.58L439.89,227.32L440.41,227.41L442.48,227.97L442.99,226.21L444.03,224.06L444.55,219.21L446.1,227.07L446.62,226.13L447.65,226.06L448.17,224.95L449.72,224.69L450.24,225.63L451.28,225.8L451.79,224.64L453.86,225.49L454.38,224.54L455.42,224.45L455.93,223.05L456.45,224.44L456.97,223.68L458,222.26L458.52,222.77L460.59,223.33L461.11,223.87L462.14,223.84L462.66,222.27L463.7,219.33L464.21,219.14L465.77,221.68L466.28,221.43L467.32,221.33L467.84,221.03L468.87,221.65L469.39,220.05L469.91,217.36L470.42,218.49L470.94,222.41L473.01,222.53L473.53,223.07L474.05,223.41L474.56,221.14L477.67,221.39L478.19,220.81L479.22,221.72L479.74,219.96L480.77,221.13L481.29,220.2L481.81,222.02L482.33,221.5L482.84,221.42L484.4,220.24L484.91,220.3L485.43,217.93L485.95,219.28L486.98,220.77L487.5,220.38L488.02,221.89L488.54,217.36L490.09,220.44L490.61,220.26L492.68,220.83L493.19,221.48L493.71,221.47L494.23,220L496.3,220.62L496.82,218.3L497.33,218.6L497.85,216.03L498.37,216.06L498.89,217.23L501.99,218.85L502.51,217.65L505.1,220.22L505.61,220L506.65,219.37L507.17,219.77L509.24,219.38L509.75,214.61L510.27,218.71L510.79,218.6L511.31,218.52L512.34,219.47L512.86,219.53L513.38,220.66L513.89,220.29L514.41,220.94L515.96,221.75L516.48,220.71L517,219.76" style="vector-effect: non-scaling-stroke; fill: none; stroke: rgb(255, 127, 14); stroke-opacity: 1; stroke-width: 2px; opacity: 1;"/></g><g class="points"/><g class="text"/></g><g class="trace scatter trace464145" style="stroke-miterlimit: 2; opacity: 1;"><g class="fills"/><g class="errorbars"/><g class="lines"><path class="js-line" d="M0,168.8L1.55,139.21L2.07,130.74L2.59,134.76L3.11,133.95L3.62,131.19L5.18,127.84L5.69,129.47L6.73,125.57L7.25,126.33L7.76,127.98L8.28,126.79L9.32,124.63L9.83,125.92L10.35,123.78L10.87,125.39L11.39,122.83L11.9,124.66L12.42,122.43L12.94,123.95L13.46,122.63L13.97,123.64L14.49,123.59L15.01,122.03L17.6,122.5L18.11,121.45L18.63,123.04L19.15,122.43L19.67,121.71L21.74,122.57L22.25,124.11L23.29,121.82L23.81,122.23L24.32,122.12L24.84,122.67L25.36,122.06L25.88,122.53L26.39,121.35L30.02,121.56L30.53,120.91L31.05,122.78L31.57,122.18L32.09,121.64L32.6,120.93L33.12,121.46L33.64,121.36L35.71,121.13L36.23,120.7L38.3,121.36L38.81,121.55L39.85,121.05L40.37,122.38L40.88,120.86L41.4,121.04L41.92,120.8L42.44,121.15L42.95,122.55L43.47,121.09L43.99,122.6L45.54,121.09L46.06,121.33L46.58,121.07L47.09,121.73L48.13,121.07L48.65,122.56L49.16,121.08L49.68,121.44L50.2,121.51L51.75,121.11L52.27,121.04L52.79,122.19L53.3,121.09L53.82,122.27L54.34,120.86L56.93,121.02L57.44,120.91L61.07,121.56L61.58,120.8L67.79,120.56L68.31,121.1L71.42,120.66L71.93,121.67L74.01,120.68L74.52,120.94L75.04,120.48L75.56,121.44L77.63,121.02L78.15,120.93L80.73,121.42L81.25,120.96L82.29,121.65L82.8,120.85L85.39,120.86L85.91,120.74L88.5,122.14L89.01,120.98L91.08,121.12L91.6,120.83L93.67,121.17L94.19,120.9L94.71,122.13L95.22,121.22L97.29,121.15L97.81,122.17L98.85,120.85L99.36,121.21L103.5,120.92L104.02,121.3L105.06,121.06L105.57,121.71L106.61,120.88L107.13,120.96L113.85,120.47L114.37,121.05L115.41,120.63L115.92,120.85L117.48,121.52L117.99,121.73L119.03,120.76L119.55,120.84L121.1,121.34L121.62,120.88L122.13,121.57L122.65,120.75L125.76,121.1L126.27,120.88L128.86,120.82L129.38,121.17L130.93,120.86L131.45,120.91L133,120.9L133.52,121.25L135.07,120.8L135.59,120.75L138.69,120.84L139.21,120.68L141.28,121.22L141.8,121.03L143.35,122.12L143.87,121.24L152.67,121.03L153.19,121.1L159.4,120.78L159.91,120.89L161.47,121.28L161.98,120.81L164.57,121.3L165.09,121.05L170.78,121.03L171.3,121.03L172.33,120.96L172.85,121.24L174.92,121.25L175.44,121.71L176.47,121.07L176.99,121.05L179.58,120.97L180.1,120.95L187.86,120.97L188.38,122.09L189.41,121.26L189.93,120.92L190.45,121.78L190.96,121.01L193.03,120.91L193.55,121.31L195.1,120.75L195.62,120.95L199.24,120.87L199.76,121.03L201.83,121.06L202.35,121.01L214.77,121.27L215.29,122.09L215.8,121.12L216.32,121.45L216.84,121.07L219.94,120.9L220.46,122.31L221.5,121.16L222.02,121.28L226.16,120.95L226.67,121.06L228.74,121.11L229.26,120.94L230.3,121.06L230.81,120.96L232.37,121.7L232.88,120.98L234.95,121L235.47,120.87L239.61,120.84L240.13,121.44L241.16,121.12L241.68,121.08L245.82,121.02L246.34,120.87L247.89,120.89L248.41,121.07L249.96,120.61L250.48,121.04L252.55,120.74L253.07,120.8L254.1,120.89L254.62,122.14L255.65,120.83L256.17,120.87L261.86,120.7L262.38,121.2L266,120.65L266.52,120.83L269.11,121.09L269.63,120.81L272.21,120.83L272.73,120.79L275.32,120.82L275.84,121.03L279.98,120.75L280.49,120.71L287.22,120.76L287.74,120.84L294.98,120.85L295.5,120.88L297.57,120.95L298.09,120.9L304.3,120.95L304.82,120.72L320.34,120.71L320.86,120.6L328.62,120.44L329.14,120.86L330.69,120.51L331.21,120.53L336.9,120.48L337.42,120.53L340.53,120.96L341.04,120.59L343.63,120.67L344.15,120.7L350.88,120.55L351.39,120.55L384.52,120.76L385.03,121.23L386.59,120.6L387.1,120.62L407.29,120.74L407.8,121.03L410.39,120.79L410.91,120.75L434.71,120.5L435.23,120.47L517,120.59" style="vector-effect: non-scaling-stroke; fill: none; stroke: rgb(44, 160, 44); stroke-opacity: 1; stroke-width: 2px; opacity: 1;"/></g><g class="points"/><g class="text"/></g></g></g><g class="overplot"/><path class="xlines-above crisp" d="M0,0" style="fill: none;"/><path class="ylines-above crisp" d="M0,0" style="fill: none;"/><g class="overlines-above"/><g class="xaxislayer-above"><g class="xtick"><text text-anchor="middle" x="0" y="403" transform="translate(60,0)" style="font-family: 'Open Sans', verdana, arial, sans-serif; font-size: 12px; fill: rgb(68, 68, 68); fill-opacity: 1; white-space: pre;">0</text></g><g class="xtick"><text text-anchor="middle" x="0" y="403" transform="translate(163.5,0)" style="font-family: 'Open Sans', verdana, arial, sans-serif; font-size: 12px; fill: rgb(68, 68, 68); fill-opacity: 1; white-space: pre;">200</text></g><g class="xtick"><text text-anchor="middle" x="0" y="403" transform="translate(267.01,0)" style="font-family: 'Open Sans', verdana, arial, sans-serif; font-size: 12px; fill: rgb(68, 68, 68); fill-opacity: 1; white-space: pre;">400</text></g><g class="xtick"><text text-anchor="middle" x="0" y="403" transform="translate(370.51,0)" style="font-family: 'Open Sans', verdana, arial, sans-serif; font-size: 12px; fill: rgb(68, 68, 68); fill-opacity: 1; white-space: pre;">600</text></g><g class="xtick"><text text-anchor="middle" x="0" y="403" transform="translate(474.01,0)" style="font-family: 'Open Sans', verdana, arial, sans-serif; font-size: 12px; fill: rgb(68, 68, 68); fill-opacity: 1; white-space: pre;">800</text></g></g><g class="yaxislayer-above"><g class="ytick"><text text-anchor="end" x="59" y="4.199999999999999" transform="translate(0,373.5)" style="font-family: 'Open Sans', verdana, arial, sans-serif; font-size: 12px; fill: rgb(68, 68, 68); fill-opacity: 1; white-space: pre;">0</text></g><g class="ytick"><text text-anchor="end" x="59" y="4.199999999999999" transform="translate(0,333.52)" style="font-family: 'Open Sans', verdana, arial, sans-serif; font-size: 12px; fill: rgb(68, 68, 68); fill-opacity: 1; white-space: pre;">0.2</text></g><g class="ytick"><text text-anchor="end" x="59" y="4.199999999999999" transform="translate(0,293.53999999999996)" style="font-family: 'Open Sans', verdana, arial, sans-serif; font-size: 12px; fill: rgb(68, 68, 68); fill-opacity: 1; white-space: pre;">0.4</text></g><g class="ytick"><text text-anchor="end" x="59" y="4.199999999999999" transform="translate(0,253.56)" style="font-family: 'Open Sans', verdana, arial, sans-serif; font-size: 12px; fill: rgb(68, 68, 68); fill-opacity: 1; white-space: pre;">0.6</text></g><g class="ytick"><text text-anchor="end" x="59" y="4.199999999999999" transform="translate(0,213.58)" style="font-family: 'Open Sans', verdana, arial, sans-serif; font-size: 12px; fill: rgb(68, 68, 68); fill-opacity: 1; white-space: pre;">0.8</text></g><g class="ytick"><text text-anchor="end" x="59" y="4.199999999999999" transform="translate(0,173.6)" style="font-family: 'Open Sans', verdana, arial, sans-serif; font-size: 12px; fill: rgb(68, 68, 68); fill-opacity: 1; white-space: pre;">1</text></g><g class="ytick"><text text-anchor="end" x="59" y="4.199999999999999" transform="translate(0,133.62)" style="font-family: 'Open Sans', verdana, arial, sans-serif; font-size: 12px; fill: rgb(68, 68, 68); fill-opacity: 1; white-space: pre;">1.2</text></g><g class="ytick"><text text-anchor="end" x="59" y="4.199999999999999" transform="translate(0,93.65)" style="font-family: 'Open Sans', verdana, arial, sans-serif; font-size: 12px; fill: rgb(68, 68, 68); fill-opacity: 1; white-space: pre;">1.4</text></g></g><g class="overaxes-above"/></g></g><g class="polarlayer"/><g class="ternarylayer"/><g class="geolayer"/><g class="funnelarealayer"/><g class="pielayer"/><g class="treemaplayer"/><g class="sunburstlayer"/><g class="glimages"/><defs id="topdefs-092f8e"><g class="clips"/><clipPath id="legend092f8e"><rect width="101" height="67" x="0" y="0"/></clipPath></defs><g class="layer-above"><g class="imagelayer"/><g class="shapelayer"/></g><g class="infolayer"><g class="legend" pointer-events="all" transform="translate(587.34, 60)"><rect class="bg" shape-rendering="crispEdges" width="101" height="67" x="0" y="0" style="stroke: rgb(68, 68, 68); stroke-opacity: 1; fill: rgb(255, 255, 255); fill-opacity: 1; stroke-width: 0px;"/><g class="scrollbox" transform="translate(0, 0)" clip-path="url('#legend092f8e')"><g class="groups"><g class="traces" transform="translate(0, 14.5)" style="opacity: 1;"><text class="legendtext" text-anchor="start" x="40" y="4.680000000000001" style="font-family: 'Open Sans', verdana, arial, sans-serif; font-size: 12px; fill: rgb(68, 68, 68); fill-opacity: 1; white-space: pre;">train loss</text><g class="layers" style="opacity: 1;"><g class="legendfill"/><g class="legendlines"><path class="js-line" d="M5,0h30" style="fill: none; stroke: rgb(31, 119, 180); stroke-opacity: 1; stroke-width: 2px;"/></g><g class="legendsymbols"><g class="legendpoints"/></g></g><rect class="legendtoggle" pointer-events="all" x="0" y="-9.5" width="95.78125" height="19" style="cursor: pointer; fill: rgb(0, 0, 0); fill-opacity: 0;"/></g><g class="traces" transform="translate(0, 33.5)" style="opacity: 1;"><text class="legendtext" text-anchor="start" x="40" y="4.680000000000001" style="font-family: 'Open Sans', verdana, arial, sans-serif; font-size: 12px; fill: rgb(68, 68, 68); fill-opacity: 1; white-space: pre;">test loss</text><g class="layers" style="opacity: 1;"><g class="legendfill"/><g class="legendlines"><path class="js-line" d="M5,0h30" style="fill: none; stroke: rgb(255, 127, 14); stroke-opacity: 1; stroke-width: 2px;"/></g><g class="legendsymbols"><g class="legendpoints"/></g></g><rect class="legendtoggle" pointer-events="all" x="0" y="-9.5" width="95.78125" height="19" style="cursor: pointer; fill: rgb(0, 0, 0); fill-opacity: 0;"/></g><g class="traces" transform="translate(0, 52.5)" style="opacity: 1;"><text class="legendtext" text-anchor="start" x="40" y="4.680000000000001" style="font-family: 'Open Sans', verdana, arial, sans-serif; font-size: 12px; fill: rgb(68, 68, 68); fill-opacity: 1; white-space: pre;">acc</text><g class="layers" style="opacity: 1;"><g class="legendfill"/><g class="legendlines"><path class="js-line" d="M5,0h30" style="fill: none; stroke: rgb(44, 160, 44); stroke-opacity: 1; stroke-width: 2px;"/></g><g class="legendsymbols"><g class="legendpoints"/></g></g><rect class="legendtoggle" pointer-events="all" x="0" y="-9.5" width="95.78125" height="19" style="cursor: pointer; fill: rgb(0, 0, 0); fill-opacity: 0;"/></g></g></g><rect class="scrollbar" rx="20" ry="3" width="0" height="0" x="0" y="0" style="fill: rgb(128, 139, 164); fill-opacity: 1;"/></g><g class="g-gtitle"><text class="gtitle" x="350" y="30" text-anchor="middle" dy="0em" style="font-family: 'Open Sans', verdana, arial, sans-serif; font-size: 17px; fill: rgb(68, 68, 68); opacity: 1; font-weight: normal; white-space: pre;">SAMPLE_PER_CLASS_100</text></g><g class="g-xtitle"/><g class="g-ytitle"/></g></svg>