<svg class="main-svg" xmlns="http://www.w3.org/2000/svg" xmlns:xlink="http://www.w3.org/1999/xlink" width="700" height="450" style="" viewBox="0 0 700 450"><rect x="0" y="0" width="700" height="450" style="fill: rgb(255, 255, 255); fill-opacity: 1;"/><defs id="defs-1fd847"><g class="clips"><clipPath id="clip1fd847xyplot" class="plotclip"><rect width="517" height="330"/></clipPath><clipPath class="axesclip" id="clip1fd847x"><rect x="60" y="0" width="517" height="450"/></clipPath><clipPath class="axesclip" id="clip1fd847y"><rect x="0" y="60" width="700" height="330"/></clipPath><clipPath class="axesclip" id="clip1fd847xy"><rect x="60" y="60" width="517" height="330"/></clipPath></g><g class="gradients"/></defs><g class="bglayer"/><g class="layer-below"><g class="imagelayer"/><g class="shapelayer"/></g><g class="cartesianlayer"><g class="subplot xy"><g class="layer-subplot"><g class="shapelayer"/><g class="imagelayer"/></g><g class="gridlayer"><g class="x"><path class="xgrid crisp" transform="translate(163.5,0)" d="M0,60v330" style="stroke: rgb(238, 238, 238); stroke-opacity: 1; stroke-width: 1px;"/><path class="xgrid crisp" transform="translate(267.01,0)" d="M0,60v330" style="stroke: rgb(238, 238, 238); stroke-opacity: 1; stroke-width: 1px;"/><path class="xgrid crisp" transform="translate(370.51,0)" d="M0,60v330" style="stroke: rgb(238, 238, 238); stroke-opacity: 1; stroke-width: 1px;"/><path class="xgrid crisp" transform="translate(474.01,0)" d="M0,60v330" style="stroke: rgb(238, 238, 238); stroke-opacity: 1; stroke-width: 1px;"/></g><g class="y"><path class="ygrid crisp" transform="translate(0,319.67)" d="M60,0h517" style="stroke: rgb(238, 238, 238); stroke-opacity: 1; stroke-width: 1px;"/><path class="ygrid crisp" transform="translate(0,265.84000000000003)" d="M60,0h517" style="stroke: rgb(238, 238, 238); stroke-opacity: 1; stroke-width: 1px;"/><path class="ygrid crisp" transform="translate(0,212)" d="M60,0h517" style="stroke: rgb(238, 238, 238); stroke-opacity: 1; stroke-width: 1px;"/><path class="ygrid crisp" transform="translate(0,158.17000000000002)" d="M60,0h517" style="stroke: rgb(238, 238, 238); stroke-opacity: 1; stroke-width: 1px;"/><path class="ygrid crisp" transform="translate(0,104.34)" d="M60,0h517" style="stroke: rgb(238, 238, 238); stroke-opacity: 1; stroke-width: 1px;"/></g></g><g class="zerolinelayer"><path class="xzl zl crisp" transform="translate(60,0)" d="M0,60v330" style="stroke: rgb(68, 68, 68); stroke-opacity: 1; stroke-width: 1px;"/><path class="yzl zl crisp" transform="translate(0,373.5)" d="M60,0h517" style="stroke: rgb(68, 68, 68); stroke-opacity: 1; stroke-width: 1px;"/></g><path class="xlines-below"/><path class="ylines-below"/><g class="overlines-below"/><g class="xaxislayer-below"/><g class="yaxislayer-below"/><g class="overaxes-below"/><g class="plot" transform="translate(60, 60)" clip-path="url('#clip1fd847xyplot')"><g class="scatterlayer mlayer"><g class="trace scatter trace469300" style="stroke-miterlimit: 2; opacity: 1;"><g class="fills"/><g class="errorbars"/><g class="lines"><path class="js-line" d="M0,16.5L0.52,30.09L1.04,66.43L3.11,228.4L3.62,241.18L5.69,271.81L6.21,275.57L6.73,277.13L7.25,281.73L9.32,291.39L9.83,292.92L11.39,296.19L11.9,295.08L13.46,299.32L13.97,299.87L15.01,301.68L15.53,301.92L16.04,301.1L16.56,301.8L17.08,303.55L17.6,301.98L18.11,302.32L18.63,303.58L19.67,304.78L20.18,304.03L22.25,305.89L22.77,305.68L23.81,307.05L24.32,307.4L25.36,307.5L25.88,308.41L26.91,307.62L27.43,306.86L28.98,308.4L29.5,307.43L30.53,308.25L31.05,307.55L31.57,308.69L32.09,307.7L32.6,308.85L33.12,308.46L33.64,307.68L34.67,307.95L35.19,307.84L36.74,309.48L37.26,309.67L37.78,309.42L38.3,310.67L39.85,310.86L40.37,310.03L41.92,311.26L42.44,311.2L43.47,311.24L43.99,311.41L45.02,310.6L45.54,307.32L46.58,310.56L47.09,310.49L47.61,310.52L48.13,307.6L48.65,306.02L49.16,308.82L50.2,310.73L50.72,311.18L52.27,312.37L52.79,312.4L54.34,312.17L54.86,312.6L56.93,312.55L57.44,311.76L57.96,312.46L58.48,311.71L60.03,312.11L60.55,312.19L64.17,312.75L64.69,312.68L65.21,311.95L65.72,312.66L67.28,311.84L67.79,312.84L68.83,312.91L69.35,311.66L70.38,305.88L70.9,311.75L71.93,312.79L72.45,312.82L74.52,313.01L75.04,312.78L76.59,312.79L77.11,312.93L77.63,312.27L78.15,312.78L78.66,312.51L79.7,312.85L80.22,311.94L80.73,312.47L81.25,311.68L81.77,311.56L82.29,312.46L83.32,312.43L83.84,313L84.87,312.11L85.39,312.64L86.94,312.17L87.46,312.53L87.98,311.97L88.5,312.73L90.05,312.69L90.57,312.4L91.6,312.88L92.12,312.41L92.64,312.27L93.15,313.04L93.67,313.26L94.19,312.62L95.74,313.09L96.26,312.14L98.85,313.23L99.36,313.21L101.43,313.07L101.95,313.24L106.09,313.1L106.61,313.3L107.13,312.82L107.64,313.37L123.17,313.22L123.69,313.35L130.93,313.11L131.45,312.88L132.48,313.31L133,312.02L134.55,313.12L135.07,313.38L136.62,312.51L137.14,313.43L139.21,313.35L139.73,312.67L140.76,311.09L141.28,313.28L142.32,312.86L142.83,312.39L143.35,313.2L143.87,312.78L144.39,313.37L145.94,312.87L146.46,313.4L148.53,312.63L149.05,311.54L150.6,313.37L151.12,313.32L153.7,313.38L154.22,313.11L155.26,313.37L155.77,313.38L162.5,313.16L163.02,312.24L164.05,313.35L164.57,313.44L166.12,313.32L166.64,311.99L167.16,310.52L167.68,312.21L169.23,313.27L169.75,313.36L176.47,313.45L176.99,313.45L192.52,313.04L193.03,312.02L193.55,311.52L194.07,313.02L195.1,312.87L195.62,313.25L199.76,313.46L200.28,313.44L219.43,313.44L219.94,313.39L235.99,313.42L236.51,312.99L246.86,313.34L247.37,312.98L249.96,313.48L250.48,313.47L271.18,313.43L271.7,312.52L272.21,313.32L272.73,311.67L273.77,313.42L274.28,313.48L299.64,313.49L300.16,312.68L301.2,313.48L301.71,313.48L320.34,313.49L320.86,313.49L372.61,313.2L373.13,312.34L374.17,313.33L374.68,313.49L413.5,313.49L414.01,313.49L517,313.49" style="vector-effect: non-scaling-stroke; fill: none; stroke: rgb(31, 119, 180); stroke-opacity: 1; stroke-width: 2px; opacity: 1;"/></g><g class="points"/><g class="text"/></g><g class="trace scatter tracec41d76" style="stroke-miterlimit: 2; opacity: 1;"><g class="fills"/><g class="errorbars"/><g class="lines"><path class="js-line" d="M0,22.9L1.04,105.28L1.55,164.52L3.11,237.45L3.62,240.2L5.18,256.26L5.69,254.4L6.73,260.9L7.25,259.09L7.76,258.61L8.28,261.38L8.8,264.02L9.32,261.37L9.83,259.38L10.35,263.75L10.87,263.86L11.39,259.46L11.9,259.99L12.42,263.94L13.46,264.6L13.97,262.24L15.01,264.47L15.53,261.18L16.04,258.92L16.56,263.92L17.08,263.19L17.6,258.31L18.11,261.68L18.63,261.01L19.15,263.48L19.67,262.49L20.18,258.24L21.22,259.67L21.74,264.74L22.25,260.37L22.77,265.06L23.81,260.22L24.32,262.31L24.84,263.93L25.36,260.04L25.88,261.17L26.39,259.65L26.91,261.03L27.43,255.08L27.95,262.65L28.46,259.95L28.98,259.31L29.5,259.23L30.02,257.93L30.53,258.73L31.05,254.94L32.09,260.05L32.6,250.21L33.12,255.02L33.64,254.49L34.16,256.25L34.67,255.69L35.19,257.62L35.71,252.74L36.23,253.59L36.74,255.01L37.26,258.31L37.78,252.14L38.3,258.58L38.81,257.81L39.33,254.24L39.85,256.87L40.37,254.03L40.88,257.76L41.4,254.33L42.44,255.99L42.95,255.83L43.47,258.22L43.99,255.28L45.02,252.97L45.54,246.89L46.58,253.55L47.09,254.27L47.61,244.38L48.13,250.23L49.16,254.78L49.68,250.74L50.2,254.61L50.72,253.5L51.23,252.27L52.79,254.05L53.3,253.51L54.34,252.72L54.86,250.5L56.41,252.54L56.93,249.62L58.48,247.27L59,248.93L59.51,252.66L60.03,249.14L60.55,251.12L61.07,249.41L61.58,247.53L62.1,248.46L62.62,249.86L63.14,244.46L63.65,245.94L64.17,249.15L65.72,241.1L66.24,244.31L66.76,247.98L67.28,245.68L67.79,246.46L68.31,249.38L68.83,248.29L69.35,243.77L69.86,245.4L70.38,251.09L70.9,251.55L71.42,247.39L72.45,248.96L72.97,244.15L74.52,248.32L75.04,247.11L75.56,246.32L76.08,247.3L77.63,245.55L78.15,245.31L78.66,245.18L79.18,245.88L79.7,243.55L80.22,245.16L81.25,241.64L81.77,242.96L82.29,244.9L82.8,242.8L83.32,245.45L83.84,243.39L84.36,241.61L84.87,243.78L85.39,242.34L85.91,244.56L86.43,247.12L86.94,243.36L88.5,245.84L89.01,245.47L89.53,245.71L90.05,243.53L90.57,246.09L91.08,245.79L91.6,245.15L94.71,239.92L95.22,241.49L95.74,243.68L96.26,241.82L96.78,236.4L97.29,244L98.85,239.07L99.36,243.75L99.88,239.07L100.4,242.64L100.92,241.05L101.43,241.43L101.95,244.19L104.02,239.91L104.54,240.48L105.06,240.39L105.57,238.35L106.61,241.19L107.13,241.16L107.64,239.88L108.16,240.32L108.68,240.43L111.27,240.2L111.78,238.72L112.3,239.37L112.82,235.93L113.34,236.64L113.85,239.71L114.37,240.12L114.89,236.42L115.41,235.39L115.92,236.68L117.99,238.06L118.51,237.23L120.06,236.5L120.58,234.96L121.1,234.68L121.62,236.36L122.65,234.52L123.17,236.81L123.69,238.21L124.2,237.97L124.72,236.02L125.24,238.07L125.76,236.14L126.27,234.41L126.79,236.2L127.83,237.21L128.34,236.04L128.86,235.38L129.38,236.27L130.41,236.68L130.93,231.11L131.45,231.82L131.97,234.13L132.48,236.84L133,233.95L133.52,232.81L134.04,235.53L135.07,234.3L135.59,234.91L137.14,236.73L137.66,236.27L138.18,236.19L138.69,234.71L140.25,230.69L140.76,234.63L141.8,231.29L142.32,233.95L142.83,234.63L143.35,228.66L143.87,233.37L144.39,232.09L144.9,235.4L145.42,233.78L145.94,235.34L146.46,236.96L146.97,236.77L147.49,234.75L148.53,235.18L149.05,234.11L149.56,234.82L150.08,234.4L150.6,231.85L151.63,235.06L152.15,235.29L153.19,237.56L153.7,234.92L154.22,235.61L154.74,233.6L155.77,235.73L156.29,236.03L157.84,235.07L158.36,235.62L158.88,235.83L159.4,233.75L159.91,232.19L160.43,233.74L160.95,235.67L161.47,234.86L161.98,233.54L162.5,233.26L163.02,234.32L163.54,234.15L164.05,234.8L165.61,234.88L166.12,233.74L166.64,235.25L167.16,234.83L167.68,233.05L168.71,235.48L169.23,235.13L170.78,231.12L171.3,231.08L172.33,233.39L172.85,233.57L173.37,233.65L173.89,232.37L175.44,233.01L175.96,233.47L176.99,232.88L177.51,233.66L179.06,229.18L179.58,231.39L180.1,227.67L180.61,232.48L181.13,232.69L181.65,229.24L183.2,233.77L183.72,233.77L184.75,232.31L185.27,229.81L185.79,228.79L186.31,232.63L186.82,234.25L187.34,232.02L187.86,232.98L188.38,231.81L188.89,231.04L189.41,232.47L189.93,231.73L190.45,232.23L190.96,232.23L192,231.5L192.52,228.38L193.55,229.94L194.07,226.91L194.59,230.42L195.1,230.04L195.62,230.17L196.66,231.37L197.17,230.74L197.69,231.02L198.21,232.26L199.24,231.66L199.76,230.95L201.31,230.14L201.83,231.91L202.35,233.24L202.87,229.3L203.9,229.64L204.42,229.38L206.49,229.8L207.01,229.32L208.56,229.77L209.08,229.29L210.63,229.73L211.15,230.91L212.18,231.05L212.7,231.01L214.25,229.66L214.77,229.4L215.29,228.12L215.8,229.42L216.84,228.71L217.36,228.96L218.39,228.14L218.91,223.08L219.43,223.7L219.94,222.57L221.5,229.28L222.02,228.83L222.53,226.45L223.05,220.08L225.64,228.61L226.16,228.9L226.67,221.57L227.19,223.85L227.71,226.92L229.26,226.7L229.78,225.47L230.81,226.45L231.33,225.7L232.37,228.19L232.88,219.77L233.92,226.65L234.44,225.96L234.95,225.36L235.47,222.99L235.99,221.91L236.51,227.97L237.02,220.71L237.54,223.2L238.06,222.55L239.61,226.05L240.13,225.21L241.16,224.4L241.68,220.6L242.2,220.59L242.72,221.74L243.23,222.4L243.75,221.37L244.79,225.24L245.3,224.07L245.82,223.41L246.34,221.22L246.86,223.99L247.37,223.84L247.89,218.08L249.44,225.01L249.96,224.57L251,226.7L251.51,226.77L252.55,226.31L253.07,225.95L255.14,223.5L255.65,223.58L256.17,222.15L256.69,224.16L257.72,225.9L258.24,224.06L259.28,222.23L259.79,222.15L261.35,222.72L261.86,223.56L264.97,223.96L265.49,223.51L266.52,219.3L267.04,220.2L268.07,224.42L268.59,222.87L269.11,217.88L269.63,218.91L270.14,220.18L270.66,221.06L271.18,219.31L271.7,219.67L272.21,213.22L273.25,222.83L273.77,222.59L274.28,221.92L274.8,222.72L275.84,223.37L276.35,223.49L276.87,223.82L277.39,222.65L278.42,220.27L278.94,220.93L280.49,221.45L281.01,219.78L281.53,219.51L282.05,221.26L283.6,224.06L284.12,223.65L285.15,221.89L285.67,222.83L286.7,223.6L287.22,222.87L287.74,223.46L288.26,221.56L288.77,221.73L289.29,220.68L289.81,218.89L290.33,222.58L290.84,223.4L291.36,220.76L292.4,217.57L292.91,220.18L293.95,221.15L294.47,221.1L296.02,221.97L296.54,220.98L298.09,221.7L298.61,220.69L300.68,218.76L301.2,219.84L301.71,222.05L302.23,219.43L303.27,221.16L303.78,222.94L304.3,224.06L304.82,222.68L305.85,219.96L306.37,220.99L307.41,221.01L307.92,220.62L308.96,220.69L309.48,221.28L310.51,221.64L311.03,217.75L312.06,217.47L312.58,218.76L313.62,221.34L314.13,216.43L314.65,219.94L315.17,218.57L315.69,219.13L317.24,221.31L317.76,221.25L320.86,219.93L321.38,220.77L322.93,220.65L323.45,220.56L323.97,220.38L324.48,219.07L325.52,215.92L326.04,217.85L327.59,219.42L328.11,219.12L328.62,219.41L329.14,216.92L330.69,219.21L331.21,219.88L333.28,221.05L333.8,220.46L336.9,216.12L337.42,218.34L338.46,219.01L338.97,218.8L342.6,217.7L343.11,217.77L343.63,217.97L344.15,220.36L344.67,220.55L345.18,216.25L346.22,219.15L346.74,218.87L350.36,219.44L350.88,218.99L352.95,216.93L353.46,214.33L353.98,213L354.5,215.86L355.53,217.6L356.05,217.21L356.57,217.59L358.64,218.47L359.16,217.37L360.19,215.41L360.71,215.91L363.3,215.56L363.81,216.94L365.37,217.24L365.88,216.96L367.95,215.88L368.47,216.26L369.51,216.91L370.03,217.02L371.58,215.67L372.1,217.15L372.61,211.9L373.13,216.23L373.65,212.64L374.17,215L375.2,216.47L375.72,215.5L376.24,213.86L376.75,215.47L377.79,216.7L378.31,216.69L380.89,216.8L381.41,216.82L382.96,217.24L383.48,216.66L384.52,216.93L385.03,217.2L386.59,216.93L387.1,217.11L389.17,217.42L389.69,217.76L390.73,217.4L391.24,217.95L393.83,216.39L394.35,217.01L395.9,217.32L396.42,216.22L396.94,218.85L397.45,218.6L397.97,217.78L399.52,215.45L400.04,215.74L400.56,215.53L401.08,214.17L401.59,215.59L402.11,213.95L403.15,212.21L403.66,212.69L404.18,213.23L404.7,215.95L406.25,217.06L406.77,217.51L407.8,217.79L408.32,216.08L409.36,215.6L409.87,215.75L411.43,213.08L411.94,213.09L412.46,212.69L412.98,213.91L414.01,215.63L414.53,215.58L415.57,214.69L416.08,215.47L416.6,212.89L417.12,206.4L418.67,215.48L419.19,215.41L419.71,213.96L420.22,217.13L420.74,217.1L421.26,210.79L421.78,210.31L422.29,215.96L422.81,216.36L423.33,215.67L424.88,213.2L425.4,213.28L426.43,213.14L426.95,211.72L429.02,214.56L429.54,214.62L431.09,214.74L431.61,215.34L432.13,216.63L432.64,216.18L433.16,215.97L435.75,216.19L436.27,213.64L436.78,210.6L437.3,215.97L437.82,216.46L438.34,215.82L440.41,213.98L440.92,214.32L442.48,213.96L442.99,212.53L444.55,211.37L445.07,209.03L447.65,212.95L448.17,212.69L449.72,214.37L450.24,214.24L451.79,210.75L452.31,210.08L452.83,209.88L453.35,210.52L454.9,211.89L455.42,211.35L456.45,212.31L456.97,211.68L457.49,202.87L458,212.26L458.52,214.26L459.04,213.72L459.56,213.39L461.11,211.78L461.63,211.54L464.21,211.27L464.73,211.69L468.35,212.05L468.87,211.92L470.94,214.18L471.46,213.63L471.98,213.06L472.49,207.32L473.01,205.56L473.53,206.37L474.05,208.19L475.6,210.73L476.12,211.01L477.15,211.57L477.67,211.5L479.22,210.54L479.74,210.86L480.77,211.22L481.29,211.07L484.91,210.29L485.43,207.15L485.95,206.6L486.47,209.68L487.5,210.84L488.02,210.94L492.68,211.09L493.19,211.96L493.71,211.58L494.23,210.27L494.75,208.75L495.26,209.47L495.78,210.13L498.37,210.93L498.89,211.16L499.92,211.84L500.44,211.31L503.03,210.71L503.54,211.59L505.1,211.6L505.61,213.57L506.13,213.64L506.65,209.89L507.17,208.12L507.68,208.29L508.2,209.22L509.24,210.09L509.75,210.06L513.38,209.99L513.89,208.99L514.93,208.84L515.45,209.17L516.48,209.73L517,209.49" style="vector-effect: non-scaling-stroke; fill: none; stroke: rgb(255, 127, 14); stroke-opacity: 1; stroke-width: 2px; opacity: 1;"/></g><g class="points"/><g class="text"/></g><g class="trace scatter trace13e504" style="stroke-miterlimit: 2; opacity: 1;"><g class="fills"/><g class="errorbars"/><g class="lines"><path class="js-line" d="M0,292.3L2.59,239.57L3.11,237.27L3.62,238.37L4.14,232.86L4.66,233.95L5.18,229.9L5.69,231.09L6.21,227.76L6.73,226.56L7.25,228.15L7.76,228.04L8.28,226.19L9.32,225.65L9.83,227.42L10.87,224.63L11.39,225.32L13.97,223.57L14.49,222.07L15.01,221.8L15.53,223.25L16.04,223.07L16.56,221.63L17.08,221.62L17.6,223.32L19.15,221.17L19.67,221.5L20.18,223.01L20.7,222.43L21.22,221.95L21.74,219.71L22.25,221.98L22.77,219.7L23.29,220.15L23.81,221.24L24.84,219.62L25.36,220.73L26.39,220.38L26.91,220.36L27.43,221.8L27.95,219.14L28.98,220.37L29.5,220.16L30.02,220.61L30.53,219.69L31.05,220.86L31.57,220.2L32.09,219.42L32.6,221.61L33.12,220.66L33.64,220.85L35.19,219.78L35.71,220.31L36.23,220.58L36.74,219.37L37.26,219.17L37.78,220.53L38.81,218.9L39.33,219.92L40.88,218.61L41.4,219.45L43.47,218.11L43.99,218.74L45.54,220.31L46.06,219.13L47.09,219.14L47.61,220.63L48.13,219.1L48.65,219.8L49.16,219.17L49.68,220.45L50.2,218.67L51.23,219.43L51.75,218.78L54.34,218.46L54.86,218.92L56.41,218.33L56.93,218.92L58.48,219.39L59,218.59L59.51,218.09L60.03,218.84L61.07,218.7L61.58,219.56L62.62,218.46L63.14,219.47L64.69,218.55L65.21,218.73L65.72,219.88L66.24,219.03L67.28,218.81L67.79,219.08L68.83,218.09L69.35,219.45L70.38,218.48L70.9,218.08L71.42,218.86L71.93,218.2L72.45,218.23L72.97,219.05L74.52,218.08L75.04,218.37L80.73,218.71L81.25,219.15L83.32,218.31L83.84,218.63L85.39,218.47L85.91,218.15L86.43,217.97L86.94,218.62L88.5,218.14L89.01,218.17L93.15,218.22L93.67,218.58L94.19,218.19L94.71,218.9L96.26,218.04L96.78,218.97L97.29,217.92L97.81,218.3L98.33,218.36L100.92,218.38L101.43,218.16L102.47,218.02L102.99,218L105.57,218.65L106.09,218.11L111.27,218.1L111.78,218.3L112.82,218.68L113.34,218.77L114.37,217.89L114.89,218.39L128.86,218.32L129.38,218.12L131.97,218.22L132.48,217.85L133.52,218.62L134.04,218.16L144.39,218.68L144.9,218.25L146.46,218.19L146.97,218.09L148.53,218.22L149.05,218.43L153.7,217.94L154.22,218.2L157.33,218.08L157.84,218.01L161.98,218.09L162.5,218.19L165.09,217.92L165.61,217.99L166.64,217.91L167.16,217.85L168.19,217.85L168.71,217.86L171.82,218.04L172.33,217.9L176.99,217.9L177.51,217.88L180.1,218.62L180.61,217.91L188.38,217.89L188.89,217.91L190.96,217.76L191.48,217.85L193.55,218.15L194.07,218.65L195.1,218.22L195.62,218.21L206.49,217.96L207.01,218L211.66,217.6L212.18,217.57L219.94,218.27L220.46,217.82L222.02,217.59L222.53,217.96L223.57,218.18L224.09,218.1L228.74,217.71L229.26,217.7L231.33,217.96L231.85,217.7L232.37,217.49L232.88,218.33L234.44,217.75L234.95,217.91L237.02,218.55L237.54,218.15L240.13,217.87L240.65,217.94L249.96,217.75L250.48,217.65L267.56,217.79L268.07,217.55L270.14,218.21L270.66,218.15L272.73,218.15L273.25,218.13L276.87,217.75L277.39,217.89L279.46,218.03L279.98,218.05L289.29,218.07L289.81,218.12L291.36,218.14L291.88,218.28L294.47,218.08L294.98,218.03L310.51,217.67L311.03,218.3L313.62,217.59L314.13,218.32L315.17,218.13L315.69,218.03L318.79,217.87L319.31,217.92L328.62,217.8L329.14,218.19L331.73,217.63L332.25,217.59L341.56,217.78L342.08,217.79L349.32,217.64L349.84,217.58L364.33,217.84L364.85,217.82L375.72,217.91L376.24,217.97L380.38,217.79L380.89,217.81L402.63,218.05L403.15,218.1L416.08,217.56L416.6,217.92L417.64,218.04L418.15,217.76L420.74,217.36L421.26,218.19L422.29,217.5L422.81,217.45L431.61,217.57L432.13,217.54L441.44,217.73L441.96,217.71L456.97,217.8L457.49,218.3L459.04,217.75L459.56,217.76L465.77,217.8L466.28,217.78L472.49,218.06L473.01,218.16L482.84,217.8L483.36,217.83L498.89,217.63L499.4,217.62L506.65,217.75L507.17,217.86L517,217.76" style="vector-effect: non-scaling-stroke; fill: none; stroke: rgb(44, 160, 44); stroke-opacity: 1; stroke-width: 2px; opacity: 1;"/></g><g class="points"/><g class="text"/></g></g></g><g class="overplot"/><path class="xlines-above crisp" d="M0,0" style="fill: none;"/><path class="ylines-above crisp" d="M0,0" style="fill: none;"/><g class="overlines-above"/><g class="xaxislayer-above"><g class="xtick"><text text-anchor="middle" x="0" y="403" transform="translate(60,0)" style="font-family: 'Open Sans', verdana, arial, sans-serif; font-size: 12px; fill: rgb(68, 68, 68); fill-opacity: 1; white-space: pre;">0</text></g><g class="xtick"><text text-anchor="middle" x="0" y="403" transform="translate(163.5,0)" style="font-family: 'Open Sans', verdana, arial, sans-serif; font-size: 12px; fill: rgb(68, 68, 68); fill-opacity: 1; white-space: pre;">200</text></g><g class="xtick"><text text-anchor="middle" x="0" y="403" transform="translate(267.01,0)" style="font-family: 'Open Sans', verdana, arial, sans-serif; font-size: 12px; fill: rgb(68, 68, 68); fill-opacity: 1; white-space: pre;">400</text></g><g class="xtick"><text text-anchor="middle" x="0" y="403" transform="translate(370.51,0)" style="font-family: 'Open Sans', verdana, arial, sans-serif; font-size: 12px; fill: rgb(68, 68, 68); fill-opacity: 1; white-space: pre;">600</text></g><g class="xtick"><text text-anchor="middle" x="0" y="403" transform="translate(474.01,0)" style="font-family: 'Open Sans', verdana, arial, sans-serif; font-size: 12px; fill: rgb(68, 68, 68); fill-opacity: 1; white-space: pre;">800</text></g></g><g class="yaxislayer-above"><g class="ytick"><text text-anchor="end" x="59" y="4.199999999999999" transform="translate(0,373.5)" style="font-family: 'Open Sans', verdana, arial, sans-serif; font-size: 12px; fill: rgb(68, 68, 68); fill-opacity: 1; white-space: pre;">0</text></g><g class="ytick"><text text-anchor="end" x="59" y="4.199999999999999" transform="translate(0,319.67)" style="font-family: 'Open Sans', verdana, arial, sans-serif; font-size: 12px; fill: rgb(68, 68, 68); fill-opacity: 1; white-space: pre;">0.5</text></g><g class="ytick"><text text-anchor="end" x="59" y="4.199999999999999" transform="translate(0,265.84000000000003)" style="font-family: 'Open Sans', verdana, arial, sans-serif; font-size: 12px; fill: rgb(68, 68, 68); fill-opacity: 1; white-space: pre;">1</text></g><g class="ytick"><text text-anchor="end" x="59" y="4.199999999999999" transform="translate(0,212)" style="font-family: 'Open Sans', verdana, arial, sans-serif; font-size: 12px; fill: rgb(68, 68, 68); fill-opacity: 1; white-space: pre;">1.5</text></g><g class="ytick"><text text-anchor="end" x="59" y="4.199999999999999" transform="translate(0,158.17000000000002)" style="font-family: 'Open Sans', verdana, arial, sans-serif; font-size: 12px; fill: rgb(68, 68, 68); fill-opacity: 1; white-space: pre;">2</text></g><g class="ytick"><text text-anchor="end" x="59" y="4.199999999999999" transform="translate(0,104.34)" style="font-family: 'Open Sans', verdana, arial, sans-serif; font-size: 12px; fill: rgb(68, 68, 68); fill-opacity: 1; white-space: pre;">2.5</text></g></g><g class="overaxes-above"/></g></g><g class="polarlayer"/><g class="ternarylayer"/><g class="geolayer"/><g class="funnelarealayer"/><g class="pielayer"/><g class="treemaplayer"/><g class="sunburstlayer"/><g class="glimages"/><defs id="topdefs-1fd847"><g class="clips"/><clipPath id="legend1fd847"><rect width="101" height="67" x="0" y="0"/></clipPath></defs><g class="layer-above"><g class="imagelayer"/><g class="shapelayer"/></g><g class="infolayer"><g class="legend" pointer-events="all" transform="translate(587.34, 60)"><rect class="bg" shape-rendering="crispEdges" width="101" height="67" x="0" y="0" style="stroke: rgb(68, 68, 68); stroke-opacity: 1; fill: rgb(255, 255, 255); fill-opacity: 1; stroke-width: 0px;"/><g class="scrollbox" transform="translate(0, 0)" clip-path="url('#legend1fd847')"><g class="groups"><g class="traces" transform="translate(0, 14.5)" style="opacity: 1;"><text class="legendtext" text-anchor="start" x="40" y="4.680000000000001" style="font-family: 'Open Sans', verdana, arial, sans-serif; font-size: 12px; fill: rgb(68, 68, 68); fill-opacity: 1; white-space: pre;">train loss</text><g class="layers" style="opacity: 1;"><g class="legendfill"/><g class="legendlines"><path class="js-line" d="M5,0h30" style="fill: none; stroke: rgb(31, 119, 180); stroke-opacity: 1; stroke-width: 2px;"/></g><g class="legendsymbols"><g class="legendpoints"/></g></g><rect class="legendtoggle" pointer-events="all" x="0" y="-9.5" width="95.78125" height="19" style="cursor: pointer; fill: rgb(0, 0, 0); fill-opacity: 0;"/></g><g class="traces" transform="translate(0, 33.5)" style="opacity: 1;"><text class="legendtext" text-anchor="start" x="40" y="4.680000000000001" style="font-family: 'Open Sans', verdana, arial, sans-serif; font-size: 12px; fill: rgb(68, 68, 68); fill-opacity: 1; white-space: pre;">test loss</text><g class="layers" style="opacity: 1;"><g class="legendfill"/><g class="legendlines"><path class="js-line" d="M5,0h30" style="fill: none; stroke: rgb(255, 127, 14); stroke-opacity: 1; stroke-width: 2px;"/></g><g class="legendsymbols"><g class="legendpoints"/></g></g><rect class="legendtoggle" pointer-events="all" x="0" y="-9.5" width="95.78125" height="19" style="cursor: pointer; fill: rgb(0, 0, 0); fill-opacity: 0;"/></g><g class="traces" transform="translate(0, 52.5)" style="opacity: 1;"><text class="legendtext" text-anchor="start" x="40" y="4.680000000000001" style="font-family: 'Open Sans', verdana, arial, sans-serif; font-size: 12px; fill: rgb(68, 68, 68); fill-opacity: 1; white-space: pre;">acc</text><g class="layers" style="opacity: 1;"><g class="legendfill"/><g class="legendlines"><path class="js-line" d="M5,0h30" style="fill: none; stroke: rgb(44, 160, 44); stroke-opacity: 1; stroke-width: 2px;"/></g><g class="legendsymbols"><g class="legendpoints"/></g></g><rect class="legendtoggle" pointer-events="all" x="0" y="-9.5" width="95.78125" height="19" style="cursor: pointer; fill: rgb(0, 0, 0); fill-opacity: 0;"/></g></g></g><rect class="scrollbar" rx="20" ry="3" width="0" height="0" x="0" y="0" style="fill: rgb(128, 139, 164); fill-opacity: 1;"/></g><g class="g-gtitle"><text class="gtitle" x="350" y="30" text-anchor="middle" dy="0em" style="font-family: 'Open Sans', verdana, arial, sans-serif; font-size: 17px; fill: rgb(68, 68, 68); opacity: 1; font-weight: normal; white-space: pre;">SAMPLE_PER_CLASS_10</text></g><g class="g-xtitle"/><g class="g-ytitle"/></g></svg>